<svg version="1.1" viewBox="0.0 0.0 928.6272965879265 586.6246719160105" fill="none" stroke="none" stroke-linecap="square" stroke-miterlimit="10" xmlns:xlink="http://www.w3.org/1999/xlink" xmlns="http://www.w3.org/2000/svg"><clipPath id="p.0"><path d="m0 0l928.6273 0l0 586.6247l-928.6273 0l0 -586.6247z" clip-rule="nonzero"/></clipPath><g clip-path="url(#p.0)"><path fill="#000000" fill-opacity="0.0" d="m0 0l928.6273 0l0 586.6247l-928.6273 0z" fill-rule="evenodd"/><path fill="#000000" fill-opacity="0.0" d="m5.656952 4.875936l576.0 0l0 576.0l-576.0 0z" fill-rule="evenodd"/><path stroke="#000000" stroke-width="1.0" stroke-linejoin="round" stroke-linecap="butt" d="m5.656952 4.875936l576.0 0l0 576.0l-576.0 0z" fill-rule="evenodd"/><path fill="#00ffff" d="m492.7795 34.706917l8.818878 8.818897l-8.818878 8.818897l-8.818909 -8.818897z" fill-rule="evenodd"/><path stroke="#000000" stroke-width="1.0" stroke-linejoin="round" stroke-linecap="butt" d="m492.7795 34.706917l8.818878 8.818897l-8.818878 8.818897l-8.818909 -8.818897z" fill-rule="evenodd"/><path fill="#00ffff" d="m548.7795 34.706917l8.818909 8.818897l-8.818909 8.818897l-8.818848 -8.818897z" fill-rule="evenodd"/><path stroke="#000000" stroke-width="1.0" stroke-linejoin="round" stroke-linecap="butt" d="m548.7795 34.706917l8.818909 8.818897l-8.818909 8.818897l-8.818848 -8.818897z" fill-rule="evenodd"/><path fill="#00ffff" d="m540.7795 66.70692l8.818909 8.818893l-8.818909 8.818901l-8.818848 -8.818901z" fill-rule="evenodd"/><path stroke="#000000" stroke-width="1.0" stroke-linejoin="round" stroke-linecap="butt" d="m540.7795 66.70692l8.818909 8.818893l-8.818909 8.818901l-8.818848 -8.818901z" fill-rule="evenodd"/><path fill="#00ffff" d="m564.7795 106.70692l8.818909 8.818893l-8.818909 8.818901l-8.818848 -8.818901z" fill-rule="evenodd"/><path stroke="#000000" stroke-width="1.0" stroke-linejoin="round" stroke-linecap="butt" d="m564.7795 106.70692l8.818909 8.818893l-8.818909 8.818901l-8.818848 -8.818901z" fill-rule="evenodd"/><path fill="#00ffff" d="m396.7795 42.706917l8.818878 8.818897l-8.818878 8.818897l-8.818909 -8.818897z" fill-rule="evenodd"/><path stroke="#000000" stroke-width="1.0" stroke-linejoin="round" stroke-linecap="butt" d="m396.7795 42.706917l8.818878 8.818897l-8.818878 8.818897l-8.818909 -8.818897z" fill-rule="evenodd"/><path fill="#00ffff" d="m428.7795 42.706917l8.818878 8.818897l-8.818878 8.818897l-8.818909 -8.818897z" fill-rule="evenodd"/><path stroke="#000000" stroke-width="1.0" stroke-linejoin="round" stroke-linecap="butt" d="m428.7795 42.706917l8.818878 8.818897l-8.818878 8.818897l-8.818909 -8.818897z" fill-rule="evenodd"/><path fill="#00ffff" d="m428.7795 74.70692l8.818878 8.818893l-8.818878 8.818901l-8.818909 -8.818901z" fill-rule="evenodd"/><path stroke="#000000" stroke-width="1.0" stroke-linejoin="round" stroke-linecap="butt" d="m428.7795 74.70692l8.818878 8.818893l-8.818878 8.818901l-8.818909 -8.818901z" fill-rule="evenodd"/><path fill="#00ffff" d="m524.7795 90.70692l8.818909 8.818893l-8.818909 8.818901l-8.818848 -8.818901z" fill-rule="evenodd"/><path stroke="#000000" stroke-width="1.0" stroke-linejoin="round" stroke-linecap="butt" d="m524.7795 90.70692l8.818909 8.818893l-8.818909 8.818901l-8.818848 -8.818901z" fill-rule="evenodd"/><path fill="#00ffff" d="m508.7795 50.706917l8.818878 8.818897l-8.818878 8.818897l-8.818909 -8.818897z" fill-rule="evenodd"/><path stroke="#000000" stroke-width="1.0" stroke-linejoin="round" stroke-linecap="butt" d="m508.7795 50.706917l8.818878 8.818897l-8.818878 8.818897l-8.818909 -8.818897z" fill-rule="evenodd"/><path fill="#00ffff" d="m364.7795 90.70692l8.818878 8.818893l-8.818878 8.818901l-8.818909 -8.818901z" fill-rule="evenodd"/><path stroke="#000000" stroke-width="1.0" stroke-linejoin="round" stroke-linecap="butt" d="m364.7795 90.70692l8.818878 8.818893l-8.818878 8.818901l-8.818909 -8.818901z" fill-rule="evenodd"/><path fill="#00ffff" d="m428.7795 122.70692l8.818878 8.818901l-8.818878 8.818893l-8.818909 -8.818893z" fill-rule="evenodd"/><path stroke="#000000" stroke-width="1.0" stroke-linejoin="round" stroke-linecap="butt" d="m428.7795 122.70692l8.818878 8.818901l-8.818878 8.818893l-8.818909 -8.818893z" fill-rule="evenodd"/><path fill="#00ffff" d="m524.7795 186.70691l8.818909 8.818909l-8.818909 8.818893l-8.818848 -8.818893z" fill-rule="evenodd"/><path stroke="#000000" stroke-width="1.0" stroke-linejoin="round" stroke-linecap="butt" d="m524.7795 186.70691l8.818909 8.818909l-8.818909 8.818893l-8.818848 -8.818893z" fill-rule="evenodd"/><path fill="#00ffff" d="m484.7795 170.70691l8.818878 8.818909l-8.818878 8.818893l-8.818909 -8.818893z" fill-rule="evenodd"/><path stroke="#000000" stroke-width="1.0" stroke-linejoin="round" stroke-linecap="butt" d="m484.7795 170.70691l8.818878 8.818909l-8.818878 8.818893l-8.818909 -8.818893z" fill-rule="evenodd"/><path fill="#00ffff" d="m484.7795 194.70691l8.818878 8.818909l-8.818878 8.818893l-8.818909 -8.818893z" fill-rule="evenodd"/><path stroke="#000000" stroke-width="1.0" stroke-linejoin="round" stroke-linecap="butt" d="m484.7795 194.70691l8.818878 8.818909l-8.818878 8.818893l-8.818909 -8.818893z" fill-rule="evenodd"/><path fill="#00ffff" d="m476.7795 210.70691l8.818878 8.818909l-8.818878 8.818893l-8.818909 -8.818893z" fill-rule="evenodd"/><path stroke="#000000" stroke-width="1.0" stroke-linejoin="round" stroke-linecap="butt" d="m476.7795 210.70691l8.818878 8.818909l-8.818878 8.818893l-8.818909 -8.818893z" fill-rule="evenodd"/><path fill="#00ffff" d="m292.7795 34.706917l8.818878 8.818897l-8.818878 8.818897l-8.818909 -8.818897z" fill-rule="evenodd"/><path stroke="#000000" stroke-width="1.0" stroke-linejoin="round" stroke-linecap="butt" d="m292.7795 34.706917l8.818878 8.818897l-8.818878 8.818897l-8.818909 -8.818897z" fill-rule="evenodd"/><path fill="#00ffff" d="m292.7795 74.70692l8.818878 8.818893l-8.818878 8.818901l-8.818909 -8.818901z" fill-rule="evenodd"/><path stroke="#000000" stroke-width="1.0" stroke-linejoin="round" stroke-linecap="butt" d="m292.7795 74.70692l8.818878 8.818893l-8.818878 8.818901l-8.818909 -8.818901z" fill-rule="evenodd"/><path fill="#00ffff" d="m340.7795 26.706915l8.818878 8.818899l-8.818878 8.818897l-8.818909 -8.818897z" fill-rule="evenodd"/><path stroke="#000000" stroke-width="1.0" stroke-linejoin="round" stroke-linecap="butt" d="m340.7795 26.706915l8.818878 8.818899l-8.818878 8.818897l-8.818909 -8.818897z" fill-rule="evenodd"/><path fill="#00ffff" d="m308.7795 114.70692l8.818878 8.818893l-8.818878 8.818901l-8.818909 -8.818901z" fill-rule="evenodd"/><path stroke="#000000" stroke-width="1.0" stroke-linejoin="round" stroke-linecap="butt" d="m308.7795 114.70692l8.818878 8.818893l-8.818878 8.818901l-8.818909 -8.818901z" fill-rule="evenodd"/><path fill="#00ffff" d="m308.7795 146.70691l8.818878 8.818909l-8.818878 8.818893l-8.818909 -8.818893z" fill-rule="evenodd"/><path stroke="#000000" stroke-width="1.0" stroke-linejoin="round" stroke-linecap="butt" d="m308.7795 146.70691l8.818878 8.818909l-8.818878 8.818893l-8.818909 -8.818893z" fill-rule="evenodd"/><path fill="#00ffff" d="m340.7795 146.70691l8.818878 8.818909l-8.818878 8.818893l-8.818909 -8.818893z" fill-rule="evenodd"/><path stroke="#000000" stroke-width="1.0" stroke-linejoin="round" stroke-linecap="butt" d="m340.7795 146.70691l8.818878 8.818909l-8.818878 8.818893l-8.818909 -8.818893z" fill-rule="evenodd"/><path fill="#00ffff" d="m348.7795 130.70691l8.818878 8.818909l-8.818878 8.818893l-8.818909 -8.818893z" fill-rule="evenodd"/><path stroke="#000000" stroke-width="1.0" stroke-linejoin="round" stroke-linecap="butt" d="m348.7795 130.70691l8.818878 8.818909l-8.818878 8.818893l-8.818909 -8.818893z" fill-rule="evenodd"/><path fill="#00ffff" d="m396.7795 162.70691l8.818878 8.818909l-8.818878 8.818893l-8.818909 -8.818893z" fill-rule="evenodd"/><path stroke="#000000" stroke-width="1.0" stroke-linejoin="round" stroke-linecap="butt" d="m396.7795 162.70691l8.818878 8.818909l-8.818878 8.818893l-8.818909 -8.818893z" fill-rule="evenodd"/><path fill="#00ffff" d="m380.7795 162.70691l8.818878 8.818909l-8.818878 8.818893l-8.818909 -8.818893z" fill-rule="evenodd"/><path stroke="#000000" stroke-width="1.0" stroke-linejoin="round" stroke-linecap="butt" d="m380.7795 162.70691l8.818878 8.818909l-8.818878 8.818893l-8.818909 -8.818893z" fill-rule="evenodd"/><path fill="#00ffff" d="m364.7795 194.70691l8.818878 8.818909l-8.818878 8.818893l-8.818909 -8.818893z" fill-rule="evenodd"/><path stroke="#000000" stroke-width="1.0" stroke-linejoin="round" stroke-linecap="butt" d="m364.7795 194.70691l8.818878 8.818909l-8.818878 8.818893l-8.818909 -8.818893z" fill-rule="evenodd"/><path fill="#00ffff" d="m380.7795 226.70691l8.818878 8.818909l-8.818878 8.818893l-8.818909 -8.818893z" fill-rule="evenodd"/><path stroke="#000000" stroke-width="1.0" stroke-linejoin="round" stroke-linecap="butt" d="m380.7795 226.70691l8.818878 8.818909l-8.818878 8.818893l-8.818909 -8.818893z" fill-rule="evenodd"/><path fill="#00ffff" d="m396.7795 242.70691l8.818878 8.818909l-8.818878 8.818878l-8.818909 -8.818878z" fill-rule="evenodd"/><path stroke="#000000" stroke-width="1.0" stroke-linejoin="round" stroke-linecap="butt" d="m396.7795 242.70691l8.818878 8.818909l-8.818878 8.818878l-8.818909 -8.818878z" fill-rule="evenodd"/><path fill="#00ffff" d="m420.7795 226.70691l8.818878 8.818909l-8.818878 8.818893l-8.818909 -8.818893z" fill-rule="evenodd"/><path stroke="#000000" stroke-width="1.0" stroke-linejoin="round" stroke-linecap="butt" d="m420.7795 226.70691l8.818878 8.818909l-8.818878 8.818893l-8.818909 -8.818893z" fill-rule="evenodd"/><path fill="#00ffff" d="m396.7795 306.7069l8.818878 8.818909l-8.818878 8.818878l-8.818909 -8.818878z" fill-rule="evenodd"/><path stroke="#000000" stroke-width="1.0" stroke-linejoin="round" stroke-linecap="butt" d="m396.7795 306.7069l8.818878 8.818909l-8.818878 8.818878l-8.818909 -8.818878z" fill-rule="evenodd"/><path fill="#00ffff" d="m452.7795 258.7069l8.818878 8.818909l-8.818878 8.818878l-8.818909 -8.818878z" fill-rule="evenodd"/><path stroke="#000000" stroke-width="1.0" stroke-linejoin="round" stroke-linecap="butt" d="m452.7795 258.7069l8.818878 8.818909l-8.818878 8.818878l-8.818909 -8.818878z" fill-rule="evenodd"/><path fill="#00ffff" d="m460.7795 354.7069l8.818878 8.818909l-8.818878 8.818878l-8.818909 -8.818878z" fill-rule="evenodd"/><path stroke="#000000" stroke-width="1.0" stroke-linejoin="round" stroke-linecap="butt" d="m460.7795 354.7069l8.818878 8.818909l-8.818878 8.818878l-8.818909 -8.818878z" fill-rule="evenodd"/><path fill="#00ffff" d="m492.7795 354.7069l8.818878 8.818909l-8.818878 8.818878l-8.818909 -8.818878z" fill-rule="evenodd"/><path stroke="#000000" stroke-width="1.0" stroke-linejoin="round" stroke-linecap="butt" d="m492.7795 354.7069l8.818878 8.818909l-8.818878 8.818878l-8.818909 -8.818878z" fill-rule="evenodd"/><path fill="#00ffff" d="m508.7795 330.7069l8.818878 8.818909l-8.818878 8.818878l-8.818909 -8.818878z" fill-rule="evenodd"/><path stroke="#000000" stroke-width="1.0" stroke-linejoin="round" stroke-linecap="butt" d="m508.7795 330.7069l8.818878 8.818909l-8.818878 8.818878l-8.818909 -8.818878z" fill-rule="evenodd"/><path fill="#00ffff" d="m492.7795 250.70691l8.818878 8.818909l-8.818878 8.818878l-8.818909 -8.818878z" fill-rule="evenodd"/><path stroke="#000000" stroke-width="1.0" stroke-linejoin="round" stroke-linecap="butt" d="m492.7795 250.70691l8.818878 8.818909l-8.818878 8.818878l-8.818909 -8.818878z" fill-rule="evenodd"/><path fill="#00ffff" d="m484.7795 290.7069l8.818878 8.818909l-8.818878 8.818878l-8.818909 -8.818878z" fill-rule="evenodd"/><path stroke="#000000" stroke-width="1.0" stroke-linejoin="round" stroke-linecap="butt" d="m484.7795 290.7069l8.818878 8.818909l-8.818878 8.818878l-8.818909 -8.818878z" fill-rule="evenodd"/><path fill="#00ffff" d="m524.7795 282.7069l8.818909 8.818909l-8.818909 8.818878l-8.818848 -8.818878z" fill-rule="evenodd"/><path stroke="#000000" stroke-width="1.0" stroke-linejoin="round" stroke-linecap="butt" d="m524.7795 282.7069l8.818909 8.818909l-8.818909 8.818878l-8.818848 -8.818878z" fill-rule="evenodd"/><path fill="#00ffff" d="m228.77951 18.706915l8.818893 8.818899l-8.818893 8.818897l-8.818909 -8.818897z" fill-rule="evenodd"/><path stroke="#000000" stroke-width="1.0" stroke-linejoin="round" stroke-linecap="butt" d="m228.77951 18.706915l8.818893 8.818899l-8.818893 8.818897l-8.818909 -8.818897z" fill-rule="evenodd"/><path fill="#00ffff" d="m223.27095 42.706917l8.818893 8.818897l-8.818893 8.818897l-8.818893 -8.818897z" fill-rule="evenodd"/><path stroke="#000000" stroke-width="1.0" stroke-linejoin="round" stroke-linecap="butt" d="m223.27095 42.706917l8.818893 8.818897l-8.818893 8.818897l-8.818893 -8.818897z" fill-rule="evenodd"/><path fill="#00ffff" d="m196.77951 66.70692l8.818893 8.818893l-8.818893 8.818901l-8.818909 -8.818901z" fill-rule="evenodd"/><path stroke="#000000" stroke-width="1.0" stroke-linejoin="round" stroke-linecap="butt" d="m196.77951 66.70692l8.818893 8.818893l-8.818893 8.818901l-8.818909 -8.818901z" fill-rule="evenodd"/><path fill="#00ffff" d="m316.7795 258.7069l8.818878 8.818909l-8.818878 8.818878l-8.818909 -8.818878z" fill-rule="evenodd"/><path stroke="#000000" stroke-width="1.0" stroke-linejoin="round" stroke-linecap="butt" d="m316.7795 258.7069l8.818878 8.818909l-8.818878 8.818878l-8.818909 -8.818878z" fill-rule="evenodd"/><path fill="#00ffff" d="m324.7795 234.70691l8.818878 8.818909l-8.818878 8.818893l-8.818909 -8.818893z" fill-rule="evenodd"/><path stroke="#000000" stroke-width="1.0" stroke-linejoin="round" stroke-linecap="butt" d="m324.7795 234.70691l8.818878 8.818909l-8.818878 8.818893l-8.818909 -8.818893z" fill-rule="evenodd"/><path fill="#f9cb9c" d="m48.394485 256.02292l0 0c0 -4.774872 3.8707962 -8.645676 8.645668 -8.645676l0 0c2.2929764 0 4.492035 0.9108887 6.113411 2.532257c1.621376 1.6213837 2.532257 3.8204498 2.532257 6.1134186l0 0c0 4.774872 -3.8707962 8.64566 -8.645668 8.64566l0 0c-4.774872 0 -8.645668 -3.8707886 -8.645668 -8.64566z" fill-rule="evenodd"/><path stroke="#000000" stroke-width="1.0" stroke-linejoin="round" stroke-linecap="butt" d="m48.394485 256.02292l0 0c0 -4.774872 3.8707962 -8.645676 8.645668 -8.645676l0 0c2.2929764 0 4.492035 0.9108887 6.113411 2.532257c1.621376 1.6213837 2.532257 3.8204498 2.532257 6.1134186l0 0c0 4.774872 -3.8707962 8.64566 -8.645668 8.64566l0 0c-4.774872 0 -8.645668 -3.8707886 -8.645668 -8.64566z" fill-rule="evenodd"/><path fill="#f9cb9c" d="m48.394485 536.0229l0 0c0 -4.7748413 3.8707962 -8.64563 8.645668 -8.64563l0 0c2.2929764 0 4.492035 0.9108887 6.113411 2.5322266c1.621376 1.6213989 2.532257 3.8204346 2.532257 6.1134033l0 0c0 4.7749023 -3.8707962 8.645691 -8.645668 8.645691l0 0c-4.774872 0 -8.645668 -3.8707886 -8.645668 -8.645691z" fill-rule="evenodd"/><path stroke="#000000" stroke-width="1.0" stroke-linejoin="round" stroke-linecap="butt" d="m48.394485 536.0229l0 0c0 -4.7748413 3.8707962 -8.64563 8.645668 -8.64563l0 0c2.2929764 0 4.492035 0.9108887 6.113411 2.5322266c1.621376 1.6213989 2.532257 3.8204346 2.532257 6.1134033l0 0c0 4.7749023 -3.8707962 8.645691 -8.645668 8.645691l0 0c-4.774872 0 -8.645668 -3.8707886 -8.645668 -8.645691z" fill-rule="evenodd"/><path fill="#f9cb9c" d="m248.39449 560.0229l0 0c0 -4.7748413 3.8708038 -8.64563 8.645676 -8.64563l0 0c2.2929688 0 4.492035 0.9108887 6.1134033 2.5322266c1.6213684 1.6213989 2.532257 3.8204346 2.532257 6.1134033l0 0c0 4.7749023 -3.8707886 8.645691 -8.64566 8.645691l0 0c-4.774872 0 -8.645676 -3.8707886 -8.645676 -8.645691z" fill-rule="evenodd"/><path stroke="#000000" stroke-width="1.0" stroke-linejoin="round" stroke-linecap="butt" d="m248.39449 560.0229l0 0c0 -4.7748413 3.8708038 -8.64563 8.645676 -8.64563l0 0c2.2929688 0 4.492035 0.9108887 6.1134033 2.5322266c1.6213684 1.6213989 2.532257 3.8204346 2.532257 6.1134033l0 0c0 4.7749023 -3.8707886 8.645691 -8.64566 8.645691l0 0c-4.774872 0 -8.645676 -3.8707886 -8.645676 -8.645691z" fill-rule="evenodd"/><path fill="#f9cb9c" d="m184.39449 480.02292l0 0c0 -4.774872 3.8708038 -8.64566 8.645676 -8.64566l0 0c2.2929688 0 4.4920197 0.91085815 6.1134033 2.532257c1.6213837 1.6213684 2.532257 3.8204346 2.532257 6.1134033l0 0c0 4.774872 -3.8707886 8.64566 -8.64566 8.64566l0 0c-4.774872 0 -8.645676 -3.8707886 -8.645676 -8.64566z" fill-rule="evenodd"/><path stroke="#000000" stroke-width="1.0" stroke-linejoin="round" stroke-linecap="butt" d="m184.39449 480.02292l0 0c0 -4.774872 3.8708038 -8.64566 8.645676 -8.64566l0 0c2.2929688 0 4.4920197 0.91085815 6.1134033 2.532257c1.6213837 1.6213684 2.532257 3.8204346 2.532257 6.1134033l0 0c0 4.774872 -3.8707886 8.64566 -8.64566 8.64566l0 0c-4.774872 0 -8.645676 -3.8707886 -8.645676 -8.64566z" fill-rule="evenodd"/><path fill="#f9cb9c" d="m248.39449 480.02292l0 0c0 -4.774872 3.8708038 -8.64566 8.645676 -8.64566l0 0c2.2929688 0 4.492035 0.91085815 6.1134033 2.532257c1.6213684 1.6213684 2.532257 3.8204346 2.532257 6.1134033l0 0c0 4.774872 -3.8707886 8.64566 -8.64566 8.64566l0 0c-4.774872 0 -8.645676 -3.8707886 -8.645676 -8.64566z" fill-rule="evenodd"/><path stroke="#000000" stroke-width="1.0" stroke-linejoin="round" stroke-linecap="butt" d="m248.39449 480.02292l0 0c0 -4.774872 3.8708038 -8.64566 8.645676 -8.64566l0 0c2.2929688 0 4.492035 0.91085815 6.1134033 2.532257c1.6213684 1.6213684 2.532257 3.8204346 2.532257 6.1134033l0 0c0 4.774872 -3.8707886 8.64566 -8.64566 8.64566l0 0c-4.774872 0 -8.645676 -3.8707886 -8.645676 -8.64566z" fill-rule="evenodd"/><path fill="#f9cb9c" d="m264.39447 456.02292l0 0c0 -4.774872 3.870819 -8.64566 8.645691 -8.64566l0 0c2.2929688 0 4.492035 0.91085815 6.1134033 2.532257c1.6213684 1.6213684 2.532257 3.8204346 2.532257 6.1134033l0 0c0 4.774872 -3.8707886 8.64566 -8.64566 8.64566l0 0c-4.774872 0 -8.645691 -3.8707886 -8.645691 -8.64566z" fill-rule="evenodd"/><path stroke="#000000" stroke-width="1.0" stroke-linejoin="round" stroke-linecap="butt" d="m264.39447 456.02292l0 0c0 -4.774872 3.870819 -8.64566 8.645691 -8.64566l0 0c2.2929688 0 4.492035 0.91085815 6.1134033 2.532257c1.6213684 1.6213684 2.532257 3.8204346 2.532257 6.1134033l0 0c0 4.774872 -3.8707886 8.64566 -8.64566 8.64566l0 0c-4.774872 0 -8.645691 -3.8707886 -8.645691 -8.64566z" fill-rule="evenodd"/><path fill="#f9cb9c" d="m320.39447 512.0229l0 0c0 -4.7748413 3.870819 -8.64563 8.645691 -8.64563l0 0c2.2929688 0 4.492035 0.91085815 6.1134033 2.532257c1.6213684 1.6213684 2.532257 3.8204346 2.532257 6.113373l0 0c0 4.7749023 -3.8707886 8.645691 -8.64566 8.645691l0 0c-4.774872 0 -8.645691 -3.8707886 -8.645691 -8.645691z" fill-rule="evenodd"/><path stroke="#000000" stroke-width="1.0" stroke-linejoin="round" stroke-linecap="butt" d="m320.39447 512.0229l0 0c0 -4.7748413 3.870819 -8.64563 8.645691 -8.64563l0 0c2.2929688 0 4.492035 0.91085815 6.1134033 2.532257c1.6213684 1.6213684 2.532257 3.8204346 2.532257 6.113373l0 0c0 4.7749023 -3.8707886 8.645691 -8.64566 8.645691l0 0c-4.774872 0 -8.645691 -3.8707886 -8.645691 -8.645691z" fill-rule="evenodd"/><path fill="#f9cb9c" d="m288.39447 448.02292l0 0c0 -4.774872 3.870819 -8.64566 8.645691 -8.64566l0 0c2.2929688 0 4.492035 0.91085815 6.1134033 2.532257c1.6213684 1.6213684 2.532257 3.8204346 2.532257 6.1134033l0 0c0 4.774872 -3.8707886 8.64566 -8.64566 8.64566l0 0c-4.774872 0 -8.645691 -3.8707886 -8.645691 -8.64566z" fill-rule="evenodd"/><path stroke="#000000" stroke-width="1.0" stroke-linejoin="round" stroke-linecap="butt" d="m288.39447 448.02292l0 0c0 -4.774872 3.870819 -8.64566 8.645691 -8.64566l0 0c2.2929688 0 4.492035 0.91085815 6.1134033 2.532257c1.6213684 1.6213684 2.532257 3.8204346 2.532257 6.1134033l0 0c0 4.774872 -3.8707886 8.64566 -8.64566 8.64566l0 0c-4.774872 0 -8.645691 -3.8707886 -8.645691 -8.64566z" fill-rule="evenodd"/><path fill="#f9cb9c" d="m320.39447 440.02292l0 0c0 -4.774872 3.870819 -8.64566 8.645691 -8.64566l0 0c2.2929688 0 4.492035 0.91085815 6.1134033 2.532257c1.6213684 1.6213684 2.532257 3.8204346 2.532257 6.1134033l0 0c0 4.774872 -3.8707886 8.64566 -8.64566 8.64566l0 0c-4.774872 0 -8.645691 -3.8707886 -8.645691 -8.64566z" fill-rule="evenodd"/><path stroke="#000000" stroke-width="1.0" stroke-linejoin="round" stroke-linecap="butt" d="m320.39447 440.02292l0 0c0 -4.774872 3.870819 -8.64566 8.645691 -8.64566l0 0c2.2929688 0 4.492035 0.91085815 6.1134033 2.532257c1.6213684 1.6213684 2.532257 3.8204346 2.532257 6.1134033l0 0c0 4.774872 -3.8707886 8.64566 -8.64566 8.64566l0 0c-4.774872 0 -8.645691 -3.8707886 -8.645691 -8.64566z" fill-rule="evenodd"/><path fill="#f9cb9c" d="m304.39447 416.02292l0 0c0 -4.774872 3.870819 -8.64566 8.645691 -8.64566l0 0c2.2929688 0 4.492035 0.91085815 6.1134033 2.532257c1.6213684 1.6213684 2.532257 3.8204346 2.532257 6.1134033l0 0c0 4.774872 -3.8707886 8.64566 -8.64566 8.64566l0 0c-4.774872 0 -8.645691 -3.8707886 -8.645691 -8.64566z" fill-rule="evenodd"/><path stroke="#000000" stroke-width="1.0" stroke-linejoin="round" stroke-linecap="butt" d="m304.39447 416.02292l0 0c0 -4.774872 3.870819 -8.64566 8.645691 -8.64566l0 0c2.2929688 0 4.492035 0.91085815 6.1134033 2.532257c1.6213684 1.6213684 2.532257 3.8204346 2.532257 6.1134033l0 0c0 4.774872 -3.8707886 8.64566 -8.64566 8.64566l0 0c-4.774872 0 -8.645691 -3.8707886 -8.645691 -8.64566z" fill-rule="evenodd"/><path fill="#f9cb9c" d="m280.39447 368.02292l0 0c0 -4.774872 3.870819 -8.64566 8.645691 -8.64566l0 0c2.2929688 0 4.492035 0.91085815 6.1134033 2.532257c1.6213684 1.6213684 2.532257 3.8204346 2.532257 6.1134033l0 0c0 4.774872 -3.8707886 8.64566 -8.64566 8.64566l0 0c-4.774872 0 -8.645691 -3.8707886 -8.645691 -8.64566z" fill-rule="evenodd"/><path stroke="#000000" stroke-width="1.0" stroke-linejoin="round" stroke-linecap="butt" d="m280.39447 368.02292l0 0c0 -4.774872 3.870819 -8.64566 8.645691 -8.64566l0 0c2.2929688 0 4.492035 0.91085815 6.1134033 2.532257c1.6213684 1.6213684 2.532257 3.8204346 2.532257 6.1134033l0 0c0 4.774872 -3.8707886 8.64566 -8.64566 8.64566l0 0c-4.774872 0 -8.645691 -3.8707886 -8.645691 -8.64566z" fill-rule="evenodd"/><path fill="#f9cb9c" d="m16.394485 504.02292l0 0c0 -4.774872 3.870798 -8.64566 8.645668 -8.64566l0 0c2.2929745 0 4.492035 0.91085815 6.113413 2.532257c1.621378 1.6213684 2.5322552 3.8204346 2.5322552 6.1134033l0 0c0 4.774872 -3.8707962 8.64566 -8.645668 8.64566l0 0c-4.77487 0 -8.645668 -3.8707886 -8.645668 -8.64566z" fill-rule="evenodd"/><path stroke="#000000" stroke-width="1.0" stroke-linejoin="round" stroke-linecap="butt" d="m16.394485 504.02292l0 0c0 -4.774872 3.870798 -8.64566 8.645668 -8.64566l0 0c2.2929745 0 4.492035 0.91085815 6.113413 2.532257c1.621378 1.6213684 2.5322552 3.8204346 2.5322552 6.1134033l0 0c0 4.774872 -3.8707962 8.64566 -8.645668 8.64566l0 0c-4.77487 0 -8.645668 -3.8707886 -8.645668 -8.64566z" fill-rule="evenodd"/><path fill="#f9cb9c" d="m120.394485 400.02292l0 0c0 -4.774872 3.8707962 -8.64566 8.645676 -8.64566l0 0c2.2929688 0 4.4920197 0.91085815 6.1134033 2.532257c1.6213837 1.6213684 2.532257 3.8204346 2.532257 6.1134033l0 0c0 4.774872 -3.8707886 8.64566 -8.64566 8.64566l0 0c-4.7748795 0 -8.645676 -3.8707886 -8.645676 -8.64566z" fill-rule="evenodd"/><path stroke="#000000" stroke-width="1.0" stroke-linejoin="round" stroke-linecap="butt" d="m120.394485 400.02292l0 0c0 -4.774872 3.8707962 -8.64566 8.645676 -8.64566l0 0c2.2929688 0 4.4920197 0.91085815 6.1134033 2.532257c1.6213837 1.6213684 2.532257 3.8204346 2.532257 6.1134033l0 0c0 4.774872 -3.8707886 8.64566 -8.64566 8.64566l0 0c-4.7748795 0 -8.645676 -3.8707886 -8.645676 -8.64566z" fill-rule="evenodd"/><path fill="#f9cb9c" d="m152.39449 392.02292l0 0c0 -4.774872 3.8708038 -8.64566 8.645676 -8.64566l0 0c2.2929688 0 4.4920197 0.91085815 6.1134033 2.532257c1.6213837 1.6213684 2.532257 3.8204346 2.532257 6.1134033l0 0c0 4.774872 -3.8707886 8.64566 -8.64566 8.64566l0 0c-4.774872 0 -8.645676 -3.8707886 -8.645676 -8.64566z" fill-rule="evenodd"/><path stroke="#000000" stroke-width="1.0" stroke-linejoin="round" stroke-linecap="butt" d="m152.39449 392.02292l0 0c0 -4.774872 3.8708038 -8.64566 8.645676 -8.64566l0 0c2.2929688 0 4.4920197 0.91085815 6.1134033 2.532257c1.6213837 1.6213684 2.532257 3.8204346 2.532257 6.1134033l0 0c0 4.774872 -3.8707886 8.64566 -8.64566 8.64566l0 0c-4.774872 0 -8.645676 -3.8707886 -8.645676 -8.64566z" fill-rule="evenodd"/><path fill="#f9cb9c" d="m144.39449 376.02292l0 0c0 -4.774872 3.8708038 -8.64566 8.645676 -8.64566l0 0c2.2929688 0 4.4920197 0.91085815 6.1134033 2.532257c1.6213837 1.6213684 2.532257 3.8204346 2.532257 6.1134033l0 0c0 4.774872 -3.8707886 8.64566 -8.64566 8.64566l0 0c-4.774872 0 -8.645676 -3.8707886 -8.645676 -8.64566z" fill-rule="evenodd"/><path stroke="#000000" stroke-width="1.0" stroke-linejoin="round" stroke-linecap="butt" d="m144.39449 376.02292l0 0c0 -4.774872 3.8708038 -8.64566 8.645676 -8.64566l0 0c2.2929688 0 4.4920197 0.91085815 6.1134033 2.532257c1.6213837 1.6213684 2.532257 3.8204346 2.532257 6.1134033l0 0c0 4.774872 -3.8707886 8.64566 -8.64566 8.64566l0 0c-4.774872 0 -8.645676 -3.8707886 -8.645676 -8.64566z" fill-rule="evenodd"/><path fill="#f9cb9c" d="m192.39449 280.02292l0 0c0 -4.774872 3.8708038 -8.64566 8.645676 -8.64566l0 0c2.2929688 0 4.4920197 0.91085815 6.1134033 2.532257c1.6213837 1.6213684 2.532257 3.8204346 2.532257 6.1134033l0 0c0 4.774872 -3.8707886 8.64566 -8.64566 8.64566l0 0c-4.774872 0 -8.645676 -3.8707886 -8.645676 -8.64566z" fill-rule="evenodd"/><path stroke="#000000" stroke-width="1.0" stroke-linejoin="round" stroke-linecap="butt" d="m192.39449 280.02292l0 0c0 -4.774872 3.8708038 -8.64566 8.645676 -8.64566l0 0c2.2929688 0 4.4920197 0.91085815 6.1134033 2.532257c1.6213837 1.6213684 2.532257 3.8204346 2.532257 6.1134033l0 0c0 4.774872 -3.8707886 8.64566 -8.64566 8.64566l0 0c-4.774872 0 -8.645676 -3.8707886 -8.645676 -8.64566z" fill-rule="evenodd"/><path fill="#f9cb9c" d="m180.24207 200.02292l0 0c0 -4.774872 3.8708038 -8.645676 8.645676 -8.645676l0 0c2.2929688 0 4.492035 0.9108887 6.1134186 2.532257c1.6213684 1.6213837 2.532257 3.8204498 2.532257 6.1134186l0 0c0 4.774872 -3.8708038 8.645676 -8.645676 8.645676l0 0c-4.774872 0 -8.645676 -3.8708038 -8.645676 -8.645676z" fill-rule="evenodd"/><path stroke="#000000" stroke-width="1.0" stroke-linejoin="round" stroke-linecap="butt" d="m180.24207 200.02292l0 0c0 -4.774872 3.8708038 -8.645676 8.645676 -8.645676l0 0c2.2929688 0 4.492035 0.9108887 6.1134186 2.532257c1.6213684 1.6213837 2.532257 3.8204498 2.532257 6.1134186l0 0c0 4.774872 -3.8708038 8.645676 -8.645676 8.645676l0 0c-4.774872 0 -8.645676 -3.8708038 -8.645676 -8.645676z" fill-rule="evenodd"/><path fill="#f9cb9c" d="m216.39449 200.02292l0 0c0 -4.774872 3.8708038 -8.645676 8.645676 -8.645676l0 0c2.2929688 0 4.4920197 0.9108887 6.1134033 2.532257c1.6213837 1.6213837 2.532257 3.8204498 2.532257 6.1134186l0 0c0 4.774872 -3.8707886 8.645676 -8.64566 8.645676l0 0c-4.774872 0 -8.645676 -3.8708038 -8.645676 -8.645676z" fill-rule="evenodd"/><path stroke="#000000" stroke-width="1.0" stroke-linejoin="round" stroke-linecap="butt" d="m216.39449 200.02292l0 0c0 -4.774872 3.8708038 -8.645676 8.645676 -8.645676l0 0c2.2929688 0 4.4920197 0.9108887 6.1134033 2.532257c1.6213837 1.6213837 2.532257 3.8204498 2.532257 6.1134186l0 0c0 4.774872 -3.8707886 8.645676 -8.64566 8.645676l0 0c-4.774872 0 -8.645676 -3.8708038 -8.645676 -8.645676z" fill-rule="evenodd"/><path fill="#f9cb9c" d="m64.394485 152.02292l0 0c0 -4.774872 3.8707962 -8.645676 8.645668 -8.645676l0 0c2.2929764 0 4.492035 0.9108887 6.113411 2.532257c1.621376 1.6213837 2.532257 3.8204498 2.532257 6.1134186l0 0c0 4.774872 -3.8707962 8.645676 -8.645668 8.645676l0 0c-4.774872 0 -8.645668 -3.8708038 -8.645668 -8.645676z" fill-rule="evenodd"/><path stroke="#000000" stroke-width="1.0" stroke-linejoin="round" stroke-linecap="butt" d="m64.394485 152.02292l0 0c0 -4.774872 3.8707962 -8.645676 8.645668 -8.645676l0 0c2.2929764 0 4.492035 0.9108887 6.113411 2.532257c1.621376 1.6213837 2.532257 3.8204498 2.532257 6.1134186l0 0c0 4.774872 -3.8707962 8.645676 -8.645668 8.645676l0 0c-4.774872 0 -8.645668 -3.8708038 -8.645668 -8.645676z" fill-rule="evenodd"/><path fill="#f9cb9c" d="m104.394485 168.02292l0 0c0 -4.774872 3.8707962 -8.645676 8.645668 -8.645676l0 0c2.2929764 0 4.492035 0.9108887 6.113411 2.532257c1.621376 1.6213837 2.532257 3.8204498 2.532257 6.1134186l0 0c0 4.774872 -3.8707962 8.645676 -8.645668 8.645676l0 0c-4.774872 0 -8.645668 -3.8708038 -8.645668 -8.645676z" fill-rule="evenodd"/><path stroke="#000000" stroke-width="1.0" stroke-linejoin="round" stroke-linecap="butt" d="m104.394485 168.02292l0 0c0 -4.774872 3.8707962 -8.645676 8.645668 -8.645676l0 0c2.2929764 0 4.492035 0.9108887 6.113411 2.532257c1.621376 1.6213837 2.532257 3.8204498 2.532257 6.1134186l0 0c0 4.774872 -3.8707962 8.645676 -8.645668 8.645676l0 0c-4.774872 0 -8.645668 -3.8708038 -8.645668 -8.645676z" fill-rule="evenodd"/><path fill="#f9cb9c" d="m88.394485 128.02292l0 0c0 -4.774872 3.8707962 -8.645668 8.645668 -8.645668l0 0c2.2929764 0 4.492035 0.91088104 6.113411 2.532257c1.621376 1.621376 2.532257 3.8204346 2.532257 6.113411l0 0c0 4.774872 -3.8707962 8.645676 -8.645668 8.645676l0 0c-4.774872 0 -8.645668 -3.8708038 -8.645668 -8.645676z" fill-rule="evenodd"/><path stroke="#000000" stroke-width="1.0" stroke-linejoin="round" stroke-linecap="butt" d="m88.394485 128.02292l0 0c0 -4.774872 3.8707962 -8.645668 8.645668 -8.645668l0 0c2.2929764 0 4.492035 0.91088104 6.113411 2.532257c1.621376 1.621376 2.532257 3.8204346 2.532257 6.113411l0 0c0 4.774872 -3.8707962 8.645676 -8.645668 8.645676l0 0c-4.774872 0 -8.645668 -3.8708038 -8.645668 -8.645676z" fill-rule="evenodd"/><path fill="#f9cb9c" d="m48.394485 328.02292l0 0c0 -4.774872 3.8707962 -8.64566 8.645668 -8.64566l0 0c2.2929764 0 4.492035 0.91085815 6.113411 2.532257c1.621376 1.6213684 2.532257 3.8204346 2.532257 6.1134033l0 0c0 4.774872 -3.8707962 8.64566 -8.645668 8.64566l0 0c-4.774872 0 -8.645668 -3.8707886 -8.645668 -8.64566z" fill-rule="evenodd"/><path stroke="#000000" stroke-width="1.0" stroke-linejoin="round" stroke-linecap="butt" d="m48.394485 328.02292l0 0c0 -4.774872 3.8707962 -8.64566 8.645668 -8.64566l0 0c2.2929764 0 4.492035 0.91085815 6.113411 2.532257c1.621376 1.6213684 2.532257 3.8204346 2.532257 6.1134033l0 0c0 4.774872 -3.8707962 8.64566 -8.645668 8.64566l0 0c-4.774872 0 -8.645668 -3.8707886 -8.645668 -8.64566z" fill-rule="evenodd"/><path fill="#f9cb9c" d="m72.394485 328.02292l0 0c0 -4.774872 3.8707962 -8.64566 8.645668 -8.64566l0 0c2.2929764 0 4.492035 0.91085815 6.113411 2.532257c1.621376 1.6213684 2.532257 3.8204346 2.532257 6.1134033l0 0c0 4.774872 -3.8707962 8.64566 -8.645668 8.64566l0 0c-4.774872 0 -8.645668 -3.8707886 -8.645668 -8.64566z" fill-rule="evenodd"/><path stroke="#000000" stroke-width="1.0" stroke-linejoin="round" stroke-linecap="butt" d="m72.394485 328.02292l0 0c0 -4.774872 3.8707962 -8.64566 8.645668 -8.64566l0 0c2.2929764 0 4.492035 0.91085815 6.113411 2.532257c1.621376 1.6213684 2.532257 3.8204346 2.532257 6.1134033l0 0c0 4.774872 -3.8707962 8.64566 -8.645668 8.64566l0 0c-4.774872 0 -8.645668 -3.8707886 -8.645668 -8.64566z" fill-rule="evenodd"/><path fill="#f9cb9c" d="m128.39449 320.02292l0 0c0 -4.774872 3.8708038 -8.64566 8.645676 -8.64566l0 0c2.2929688 0 4.4920197 0.91085815 6.1134033 2.532257c1.6213837 1.6213684 2.532257 3.8204346 2.532257 6.1134033l0 0c0 4.774872 -3.8707886 8.64566 -8.64566 8.64566l0 0c-4.774872 0 -8.645676 -3.8707886 -8.645676 -8.64566z" fill-rule="evenodd"/><path stroke="#000000" stroke-width="1.0" stroke-linejoin="round" stroke-linecap="butt" d="m128.39449 320.02292l0 0c0 -4.774872 3.8708038 -8.64566 8.645676 -8.64566l0 0c2.2929688 0 4.4920197 0.91085815 6.1134033 2.532257c1.6213837 1.6213684 2.532257 3.8204346 2.532257 6.1134033l0 0c0 4.774872 -3.8707886 8.64566 -8.64566 8.64566l0 0c-4.774872 0 -8.645676 -3.8707886 -8.645676 -8.64566z" fill-rule="evenodd"/><path fill="#f9cb9c" d="m112.394485 288.02292l0 0c0 -4.774872 3.8707962 -8.64566 8.645668 -8.64566l0 0c2.2929764 0 4.492035 0.91085815 6.113411 2.532257c1.6213837 1.6213684 2.532257 3.8204346 2.532257 6.1134033l0 0c0 4.774872 -3.8707962 8.64566 -8.645668 8.64566l0 0c-4.774872 0 -8.645668 -3.8707886 -8.645668 -8.64566z" fill-rule="evenodd"/><path stroke="#000000" stroke-width="1.0" stroke-linejoin="round" stroke-linecap="butt" d="m112.394485 288.02292l0 0c0 -4.774872 3.8707962 -8.64566 8.645668 -8.64566l0 0c2.2929764 0 4.492035 0.91085815 6.113411 2.532257c1.6213837 1.6213684 2.532257 3.8204346 2.532257 6.1134033l0 0c0 4.774872 -3.8707962 8.64566 -8.645668 8.64566l0 0c-4.774872 0 -8.645668 -3.8707886 -8.645668 -8.64566z" fill-rule="evenodd"/><path fill="#f9cb9c" d="m16.394485 360.02292l0 0c0 -4.774872 3.870798 -8.64566 8.645668 -8.64566l0 0c2.2929745 0 4.492035 0.91085815 6.113413 2.532257c1.621378 1.6213684 2.5322552 3.8204346 2.5322552 6.1134033l0 0c0 4.774872 -3.8707962 8.64566 -8.645668 8.64566l0 0c-4.77487 0 -8.645668 -3.8707886 -8.645668 -8.64566z" fill-rule="evenodd"/><path stroke="#000000" stroke-width="1.0" stroke-linejoin="round" stroke-linecap="butt" d="m16.394485 360.02292l0 0c0 -4.774872 3.870798 -8.64566 8.645668 -8.64566l0 0c2.2929745 0 4.492035 0.91085815 6.113413 2.532257c1.621378 1.6213684 2.5322552 3.8204346 2.5322552 6.1134033l0 0c0 4.774872 -3.8707962 8.64566 -8.645668 8.64566l0 0c-4.77487 0 -8.645668 -3.8707886 -8.645668 -8.64566z" fill-rule="evenodd"/><path fill="#f9cb9c" d="m40.394485 376.02292l0 0c0 -4.774872 3.8707962 -8.64566 8.645668 -8.64566l0 0c2.2929764 0 4.492035 0.91085815 6.113411 2.532257c1.6213799 1.6213684 2.532257 3.8204346 2.532257 6.1134033l0 0c0 4.774872 -3.8707962 8.64566 -8.645668 8.64566l0 0c-4.774872 0 -8.645668 -3.8707886 -8.645668 -8.64566z" fill-rule="evenodd"/><path stroke="#000000" stroke-width="1.0" stroke-linejoin="round" stroke-linecap="butt" d="m40.394485 376.02292l0 0c0 -4.774872 3.8707962 -8.64566 8.645668 -8.64566l0 0c2.2929764 0 4.492035 0.91085815 6.113411 2.532257c1.6213799 1.6213684 2.532257 3.8204346 2.532257 6.1134033l0 0c0 4.774872 -3.8707962 8.64566 -8.645668 8.64566l0 0c-4.774872 0 -8.645668 -3.8707886 -8.645668 -8.64566z" fill-rule="evenodd"/><path fill="#f9cb9c" d="m296.39447 384.02292l0 0c0 -4.774872 3.870819 -8.64566 8.645691 -8.64566l0 0c2.2929688 0 4.492035 0.91085815 6.1134033 2.532257c1.6213684 1.6213684 2.532257 3.8204346 2.532257 6.1134033l0 0c0 4.774872 -3.8707886 8.64566 -8.64566 8.64566l0 0c-4.774872 0 -8.645691 -3.8707886 -8.645691 -8.64566z" fill-rule="evenodd"/><path stroke="#000000" stroke-width="1.0" stroke-linejoin="round" stroke-linecap="butt" d="m296.39447 384.02292l0 0c0 -4.774872 3.870819 -8.64566 8.645691 -8.64566l0 0c2.2929688 0 4.492035 0.91085815 6.1134033 2.532257c1.6213684 1.6213684 2.532257 3.8204346 2.532257 6.1134033l0 0c0 4.774872 -3.8707886 8.64566 -8.64566 8.64566l0 0c-4.774872 0 -8.645691 -3.8707886 -8.645691 -8.64566z" fill-rule="evenodd"/><path fill="#f9cb9c" d="m216.39449 368.02292l0 0c0 -4.774872 3.8708038 -8.64566 8.645676 -8.64566l0 0c2.2929688 0 4.4920197 0.91085815 6.1134033 2.532257c1.6213837 1.6213684 2.532257 3.8204346 2.532257 6.1134033l0 0c0 4.774872 -3.8707886 8.64566 -8.64566 8.64566l0 0c-4.774872 0 -8.645676 -3.8707886 -8.645676 -8.64566z" fill-rule="evenodd"/><path stroke="#000000" stroke-width="1.0" stroke-linejoin="round" stroke-linecap="butt" d="m216.39449 368.02292l0 0c0 -4.774872 3.8708038 -8.64566 8.645676 -8.64566l0 0c2.2929688 0 4.4920197 0.91085815 6.1134033 2.532257c1.6213837 1.6213684 2.532257 3.8204346 2.532257 6.1134033l0 0c0 4.774872 -3.8707886 8.64566 -8.64566 8.64566l0 0c-4.774872 0 -8.645676 -3.8707886 -8.645676 -8.64566z" fill-rule="evenodd"/><path fill="#f9cb9c" d="m232.39449 376.02292l0 0c0 -4.774872 3.8708038 -8.64566 8.645676 -8.64566l0 0c2.2929688 0 4.4920197 0.91085815 6.1134033 2.532257c1.6213837 1.6213684 2.532257 3.8204346 2.532257 6.1134033l0 0c0 4.774872 -3.8707886 8.64566 -8.64566 8.64566l0 0c-4.774872 0 -8.645676 -3.8707886 -8.645676 -8.64566z" fill-rule="evenodd"/><path stroke="#000000" stroke-width="1.0" stroke-linejoin="round" stroke-linecap="butt" d="m232.39449 376.02292l0 0c0 -4.774872 3.8708038 -8.64566 8.645676 -8.64566l0 0c2.2929688 0 4.4920197 0.91085815 6.1134033 2.532257c1.6213837 1.6213684 2.532257 3.8204346 2.532257 6.1134033l0 0c0 4.774872 -3.8707886 8.64566 -8.64566 8.64566l0 0c-4.774872 0 -8.645676 -3.8707886 -8.645676 -8.64566z" fill-rule="evenodd"/><path fill="#f9cb9c" d="m232.39449 320.02292l0 0c0 -4.774872 3.8708038 -8.64566 8.645676 -8.64566l0 0c2.2929688 0 4.4920197 0.91085815 6.1134033 2.532257c1.6213837 1.6213684 2.532257 3.8204346 2.532257 6.1134033l0 0c0 4.774872 -3.8707886 8.64566 -8.64566 8.64566l0 0c-4.774872 0 -8.645676 -3.8707886 -8.645676 -8.64566z" fill-rule="evenodd"/><path stroke="#000000" stroke-width="1.0" stroke-linejoin="round" stroke-linecap="butt" d="m232.39449 320.02292l0 0c0 -4.774872 3.8708038 -8.64566 8.645676 -8.64566l0 0c2.2929688 0 4.4920197 0.91085815 6.1134033 2.532257c1.6213837 1.6213684 2.532257 3.8204346 2.532257 6.1134033l0 0c0 4.774872 -3.8707886 8.64566 -8.64566 8.64566l0 0c-4.774872 0 -8.645676 -3.8707886 -8.645676 -8.64566z" fill-rule="evenodd"/><path fill="#f9cb9c" d="m196.24207 312.02292l0 0c0 -4.774872 3.8708038 -8.64566 8.645676 -8.64566l0 0c2.2929688 0 4.492035 0.91085815 6.1134186 2.532257c1.6213684 1.6213684 2.532257 3.8204346 2.532257 6.1134033l0 0c0 4.774872 -3.8708038 8.64566 -8.645676 8.64566l0 0c-4.774872 0 -8.645676 -3.8707886 -8.645676 -8.64566z" fill-rule="evenodd"/><path stroke="#000000" stroke-width="1.0" stroke-linejoin="round" stroke-linecap="butt" d="m196.24207 312.02292l0 0c0 -4.774872 3.8708038 -8.64566 8.645676 -8.64566l0 0c2.2929688 0 4.492035 0.91085815 6.1134186 2.532257c1.6213684 1.6213684 2.532257 3.8204346 2.532257 6.1134033l0 0c0 4.774872 -3.8708038 8.64566 -8.645676 8.64566l0 0c-4.774872 0 -8.645676 -3.8707886 -8.645676 -8.64566z" fill-rule="evenodd"/><path fill="#f9cb9c" d="m296.39447 320.02292l0 0c0 -4.774872 3.870819 -8.64566 8.645691 -8.64566l0 0c2.2929688 0 4.492035 0.91085815 6.1134033 2.532257c1.6213684 1.6213684 2.532257 3.8204346 2.532257 6.1134033l0 0c0 4.774872 -3.8707886 8.64566 -8.64566 8.64566l0 0c-4.774872 0 -8.645691 -3.8707886 -8.645691 -8.64566z" fill-rule="evenodd"/><path stroke="#000000" stroke-width="1.0" stroke-linejoin="round" stroke-linecap="butt" d="m296.39447 320.02292l0 0c0 -4.774872 3.870819 -8.64566 8.645691 -8.64566l0 0c2.2929688 0 4.492035 0.91085815 6.1134033 2.532257c1.6213684 1.6213684 2.532257 3.8204346 2.532257 6.1134033l0 0c0 4.774872 -3.8707886 8.64566 -8.64566 8.64566l0 0c-4.774872 0 -8.645691 -3.8707886 -8.645691 -8.64566z" fill-rule="evenodd"/><path fill="#00ffff" d="m442.28806 79.38499l8.818909 8.818893l-8.818909 8.818901l-8.818909 -8.818901z" fill-rule="evenodd"/><path stroke="#000000" stroke-width="1.0" stroke-linejoin="round" stroke-linecap="butt" d="m442.28806 79.38499l8.818909 8.818893l-8.818909 8.818901l-8.818909 -8.818901z" fill-rule="evenodd"/><path fill="#00ffff" d="m100.7795 202.70691l8.818901 8.818909l-8.818901 8.818893l-8.818893 -8.818893z" fill-rule="evenodd"/><path stroke="#000000" stroke-width="1.0" stroke-linejoin="round" stroke-linecap="butt" d="m100.7795 202.70691l8.818901 8.818909l-8.818901 8.818893l-8.818893 -8.818893z" fill-rule="evenodd"/><path fill="#00ffff" d="m140.77951 186.70691l8.818893 8.818909l-8.818893 8.818893l-8.818909 -8.818893z" fill-rule="evenodd"/><path stroke="#000000" stroke-width="1.0" stroke-linejoin="round" stroke-linecap="butt" d="m140.77951 186.70691l8.818893 8.818909l-8.818893 8.818893l-8.818909 -8.818893z" fill-rule="evenodd"/><path fill="#f9cb9c" d="m360.39447 272.02292l0 0c0 -4.774872 3.870819 -8.64566 8.645691 -8.64566l0 0c2.2929688 0 4.492035 0.91085815 6.1134033 2.532257c1.6213684 1.6213684 2.532257 3.8204346 2.532257 6.1134033l0 0c0 4.774872 -3.8707886 8.64566 -8.64566 8.64566l0 0c-4.774872 0 -8.645691 -3.8707886 -8.645691 -8.64566z" fill-rule="evenodd"/><path stroke="#000000" stroke-width="1.0" stroke-linejoin="round" stroke-linecap="butt" d="m360.39447 272.02292l0 0c0 -4.774872 3.870819 -8.64566 8.645691 -8.64566l0 0c2.2929688 0 4.492035 0.91085815 6.1134033 2.532257c1.6213684 1.6213684 2.532257 3.8204346 2.532257 6.1134033l0 0c0 4.774872 -3.8707886 8.64566 -8.64566 8.64566l0 0c-4.774872 0 -8.645691 -3.8707886 -8.645691 -8.64566z" fill-rule="evenodd"/><path fill="#f9cb9c" d="m400.39447 280.02292l0 0c0 -4.774872 3.870819 -8.64566 8.645691 -8.64566l0 0c2.2929688 0 4.492035 0.91085815 6.1134033 2.532257c1.6213684 1.6213684 2.532257 3.8204346 2.532257 6.1134033l0 0c0 4.774872 -3.8707886 8.64566 -8.64566 8.64566l0 0c-4.774872 0 -8.645691 -3.8707886 -8.645691 -8.64566z" fill-rule="evenodd"/><path stroke="#000000" stroke-width="1.0" stroke-linejoin="round" stroke-linecap="butt" d="m400.39447 280.02292l0 0c0 -4.774872 3.870819 -8.64566 8.645691 -8.64566l0 0c2.2929688 0 4.492035 0.91085815 6.1134033 2.532257c1.6213684 1.6213684 2.532257 3.8204346 2.532257 6.1134033l0 0c0 4.774872 -3.8707886 8.64566 -8.64566 8.64566l0 0c-4.774872 0 -8.645691 -3.8707886 -8.645691 -8.64566z" fill-rule="evenodd"/><path fill="#00ffff" d="m116.7795 218.70691l8.818901 8.818909l-8.818901 8.818893l-8.818893 -8.818893z" fill-rule="evenodd"/><path stroke="#000000" stroke-width="1.0" stroke-linejoin="round" stroke-linecap="butt" d="m116.7795 218.70691l8.818901 8.818909l-8.818901 8.818893l-8.818893 -8.818893z" fill-rule="evenodd"/><path fill="#00ffff" d="m100.7795 258.7069l8.818901 8.818909l-8.818901 8.818878l-8.818893 -8.818878z" fill-rule="evenodd"/><path stroke="#000000" stroke-width="1.0" stroke-linejoin="round" stroke-linecap="butt" d="m100.7795 258.7069l8.818901 8.818909l-8.818901 8.818878l-8.818893 -8.818878z" fill-rule="evenodd"/><path fill="#00ffff" d="m92.7795 58.706917l8.818901 8.818893l-8.818901 8.818901l-8.818893 -8.818901z" fill-rule="evenodd"/><path stroke="#000000" stroke-width="1.0" stroke-linejoin="round" stroke-linecap="butt" d="m92.7795 58.706917l8.818901 8.818893l-8.818901 8.818901l-8.818893 -8.818901z" fill-rule="evenodd"/><path fill="#f9cb9c" d="m440.39447 312.02292l0 0c0 -4.774872 3.870819 -8.64566 8.645691 -8.64566l0 0c2.2929688 0 4.492035 0.91085815 6.1134033 2.532257c1.6213684 1.6213684 2.532257 3.8204346 2.532257 6.1134033l0 0c0 4.774872 -3.8707886 8.64566 -8.64566 8.64566l0 0c-4.774872 0 -8.645691 -3.8707886 -8.645691 -8.64566z" fill-rule="evenodd"/><path stroke="#000000" stroke-width="1.0" stroke-linejoin="round" stroke-linecap="butt" d="m440.39447 312.02292l0 0c0 -4.774872 3.870819 -8.64566 8.645691 -8.64566l0 0c2.2929688 0 4.492035 0.91085815 6.1134033 2.532257c1.6213684 1.6213684 2.532257 3.8204346 2.532257 6.1134033l0 0c0 4.774872 -3.8707886 8.64566 -8.64566 8.64566l0 0c-4.774872 0 -8.645691 -3.8707886 -8.645691 -8.64566z" fill-rule="evenodd"/><path fill="#f9cb9c" d="m424.39447 432.02292l0 0c0 -4.774872 3.870819 -8.64566 8.645691 -8.64566l0 0c2.2929688 0 4.492035 0.91085815 6.1134033 2.532257c1.6213684 1.6213684 2.532257 3.8204346 2.532257 6.1134033l0 0c0 4.774872 -3.8707886 8.64566 -8.64566 8.64566l0 0c-4.774872 0 -8.645691 -3.8707886 -8.645691 -8.64566z" fill-rule="evenodd"/><path stroke="#000000" stroke-width="1.0" stroke-linejoin="round" stroke-linecap="butt" d="m424.39447 432.02292l0 0c0 -4.774872 3.870819 -8.64566 8.645691 -8.64566l0 0c2.2929688 0 4.492035 0.91085815 6.1134033 2.532257c1.6213684 1.6213684 2.532257 3.8204346 2.532257 6.1134033l0 0c0 4.774872 -3.8707886 8.64566 -8.64566 8.64566l0 0c-4.774872 0 -8.645691 -3.8707886 -8.645691 -8.64566z" fill-rule="evenodd"/><path fill="#f9cb9c" d="m456.39447 448.02292l0 0c0 -4.774872 3.870819 -8.64566 8.645691 -8.64566l0 0c2.2929688 0 4.492035 0.91085815 6.1134033 2.532257c1.6213684 1.6213684 2.532257 3.8204346 2.532257 6.1134033l0 0c0 4.774872 -3.8707886 8.64566 -8.64566 8.64566l0 0c-4.774872 0 -8.645691 -3.8707886 -8.645691 -8.64566z" fill-rule="evenodd"/><path stroke="#000000" stroke-width="1.0" stroke-linejoin="round" stroke-linecap="butt" d="m456.39447 448.02292l0 0c0 -4.774872 3.870819 -8.64566 8.645691 -8.64566l0 0c2.2929688 0 4.492035 0.91085815 6.1134033 2.532257c1.6213684 1.6213684 2.532257 3.8204346 2.532257 6.1134033l0 0c0 4.774872 -3.8707886 8.64566 -8.64566 8.64566l0 0c-4.774872 0 -8.645691 -3.8707886 -8.645691 -8.64566z" fill-rule="evenodd"/><path fill="#00ffff" d="m617.2134 490.7069l8.818909 8.818909l-8.818909 8.818878l-8.818909 -8.818878z" fill-rule="evenodd"/><path stroke="#000000" stroke-width="1.0" stroke-linejoin="round" stroke-linecap="butt" d="m617.2134 490.7069l8.818909 8.818909l-8.818909 8.818878l-8.818909 -8.818878z" fill-rule="evenodd"/><path fill="#f9cb9c" d="m608.3945 550.6971l0 0c0 -4.7748413 3.8707886 -8.64563 8.645691 -8.64563l0 0c2.2929688 0 4.4920044 0.9108887 6.1134033 2.5322266c1.6213989 1.6213989 2.5322876 3.8204346 2.5322876 6.1134033l0 0c0 4.7749023 -3.8708496 8.645691 -8.645691 8.645691l0 0c-4.7749023 0 -8.645691 -3.8707886 -8.645691 -8.645691z" fill-rule="evenodd"/><path stroke="#000000" stroke-width="1.0" stroke-linejoin="round" stroke-linecap="butt" d="m608.3945 550.6971l0 0c0 -4.7748413 3.8707886 -8.64563 8.645691 -8.64563l0 0c2.2929688 0 4.4920044 0.9108887 6.1134033 2.5322266c1.6213989 1.6213989 2.5322876 3.8204346 2.5322876 6.1134033l0 0c0 4.7749023 -3.8708496 8.645691 -8.645691 8.645691l0 0c-4.7749023 0 -8.645691 -3.8707886 -8.645691 -8.645691z" fill-rule="evenodd"/><path fill="#000000" fill-opacity="0.0" d="m634.9719 480.7657l183.52753 0l0 46.70868l-183.52753 0z" fill-rule="evenodd"/><path fill="#000000" d="m643.9407 505.1257l4.40625 -11.453125l1.640625 0l4.6875 11.453125l-1.734375 0l-1.328125 -3.46875l-4.796875 0l-1.25 3.46875l-1.625 0zm3.3125 -4.703125l3.890625 0l-1.203125 -3.171875q-0.546875 -1.453125 -0.8125 -2.375q-0.21875 1.09375 -0.609375 2.1875l-1.265625 3.359375zm12.015625 4.703125l0 -11.453125l1.40625 0l0 4.109375q0.984375 -1.140625 2.484375 -1.140625q0.921875 0 1.59375 0.359375q0.6875 0.359375 0.96875 1.0q0.296875 0.640625 0.296875 1.859375l0 5.265625l-1.40625 0l0 -5.265625q0 -1.046875 -0.453125 -1.53125q-0.453125 -0.484375 -1.296875 -0.484375q-0.625 0 -1.171875 0.328125q-0.546875 0.328125 -0.78125 0.890625q-0.234375 0.546875 -0.234375 1.515625l0 4.546875l-1.40625 0zm14.5703125 -2.671875l1.453125 0.171875q-0.34375 1.28125 -1.28125 1.984375q-0.921875 0.703125 -2.359375 0.703125q-1.828125 0 -2.890625 -1.125q-1.0625 -1.125 -1.0625 -3.140625q0 -2.09375 1.078125 -3.25q1.078125 -1.15625 2.796875 -1.15625q1.65625 0 2.703125 1.140625q1.0625 1.125 1.0625 3.171875q0 0.125 0 0.375l-6.1875 0q0.078125 1.375 0.765625 2.109375q0.703125 0.71875 1.734375 0.71875q0.78125 0 1.328125 -0.40625q0.546875 -0.40625 0.859375 -1.296875zm-4.609375 -2.28125l4.625 0q-0.09375 -1.046875 -0.53125 -1.5625q-0.671875 -0.8125 -1.734375 -0.8125q-0.96875 0 -1.640625 0.65625q-0.65625 0.640625 -0.71875 1.71875zm13.2421875 3.921875q-0.78125 0.671875 -1.5 0.953125q-0.71875 0.265625 -1.546875 0.265625q-1.375 0 -2.109375 -0.671875q-0.734375 -0.671875 -0.734375 -1.703125q0 -0.609375 0.28125 -1.109375q0.28125 -0.515625 0.71875 -0.8125q0.453125 -0.3125 1.015625 -0.46875q0.421875 -0.109375 1.25 -0.203125q1.703125 -0.203125 2.515625 -0.484375q0 -0.296875 0 -0.375q0 -0.859375 -0.390625 -1.203125q-0.546875 -0.484375 -1.609375 -0.484375q-0.984375 0 -1.46875 0.359375q-0.46875 0.34375 -0.6875 1.21875l-1.375 -0.1875q0.1875 -0.875 0.609375 -1.421875q0.4375 -0.546875 1.25 -0.828125q0.8125 -0.296875 1.875 -0.296875q1.0625 0 1.71875 0.25q0.671875 0.25 0.984375 0.625q0.3125 0.375 0.4375 0.953125q0.078125 0.359375 0.078125 1.296875l0 1.875q0 1.96875 0.078125 2.484375q0.09375 0.515625 0.359375 1.0l-1.46875 0q-0.21875 -0.4375 -0.28125 -1.03125zm-0.109375 -3.140625q-0.765625 0.3125 -2.296875 0.53125q-0.875 0.125 -1.234375 0.28125q-0.359375 0.15625 -0.5625 0.46875q-0.1875 0.296875 -0.1875 0.65625q0 0.5625 0.421875 0.9375q0.4375 0.375 1.25 0.375q0.8125 0 1.4375 -0.34375q0.640625 -0.359375 0.9375 -0.984375q0.234375 -0.46875 0.234375 -1.40625l0 -0.515625zm3.5703125 4.171875l0 -11.453125l1.40625 0l0 11.453125l-1.40625 0zm6.6484375 -1.265625l0.203125 1.25q-0.59375 0.125 -1.0625 0.125q-0.765625 0 -1.1875 -0.234375q-0.421875 -0.25 -0.59375 -0.640625q-0.171875 -0.40625 -0.171875 -1.671875l0 -4.765625l-1.03125 0l0 -1.09375l1.03125 0l0 -2.0625l1.40625 -0.84375l0 2.90625l1.40625 0l0 1.09375l-1.40625 0l0 4.84375q0 0.609375 0.0625 0.78125q0.078125 0.171875 0.25 0.28125q0.171875 0.09375 0.484375 0.09375q0.234375 0 0.609375 -0.0625zm1.3828125 1.265625l0 -11.453125l1.40625 0l0 4.109375q0.984375 -1.140625 2.484375 -1.140625q0.921875 0 1.59375 0.359375q0.6875 0.359375 0.96875 1.0q0.296875 0.640625 0.296875 1.859375l0 5.265625l-1.40625 0l0 -5.265625q0 -1.046875 -0.453125 -1.53125q-0.453125 -0.484375 -1.296875 -0.484375q-0.625 0 -1.171875 0.328125q-0.546875 0.328125 -0.78125 0.890625q-0.234375 0.546875 -0.234375 1.515625l0 4.546875l-1.40625 0zm8.8359375 3.203125l-0.15625 -1.328125q0.453125 0.125 0.796875 0.125q0.46875 0 0.75 -0.15625q0.28125 -0.15625 0.46875 -0.4375q0.125 -0.203125 0.421875 -1.046875q0.046875 -0.109375 0.125 -0.34375l-3.140625 -8.3125l1.515625 0l1.71875 4.796875q0.34375 0.921875 0.609375 1.921875q0.234375 -0.96875 0.578125 -1.890625l1.765625 -4.828125l1.40625 0l-3.15625 8.4375q-0.5 1.375 -0.78125 1.890625q-0.375 0.6875 -0.859375 1.015625q-0.484375 0.328125 -1.15625 0.328125q-0.40625 0 -0.90625 -0.171875zm15.5703125 -4.46875l0.203125 1.25q-0.59375 0.125 -1.0625 0.125q-0.765625 0 -1.1875 -0.234375q-0.421875 -0.25 -0.59375 -0.640625q-0.171875 -0.40625 -0.171875 -1.671875l0 -4.765625l-1.03125 0l0 -1.09375l1.03125 0l0 -2.0625l1.40625 -0.84375l0 2.90625l1.40625 0l0 1.09375l-1.40625 0l0 4.84375q0 0.609375 0.0625 0.78125q0.078125 0.171875 0.25 0.28125q0.171875 0.09375 0.484375 0.09375q0.234375 0 0.609375 -0.0625zm1.3671875 1.265625l0 -8.296875l1.265625 0l0 1.25q0.484375 -0.875 0.890625 -1.15625q0.40625 -0.28125 0.90625 -0.28125q0.703125 0 1.4375 0.453125l-0.484375 1.296875q-0.515625 -0.296875 -1.03125 -0.296875q-0.453125 0 -0.828125 0.28125q-0.359375 0.265625 -0.515625 0.765625q-0.234375 0.75 -0.234375 1.640625l0 4.34375l-1.40625 0zm11.015625 -2.671875l1.453125 0.171875q-0.34375 1.28125 -1.28125 1.984375q-0.921875 0.703125 -2.359375 0.703125q-1.828125 0 -2.890625 -1.125q-1.0625 -1.125 -1.0625 -3.140625q0 -2.09375 1.078125 -3.25q1.078125 -1.15625 2.796875 -1.15625q1.65625 0 2.703125 1.140625q1.0625 1.125 1.0625 3.171875q0 0.125 0 0.375l-6.1875 0q0.078125 1.375 0.765625 2.109375q0.703125 0.71875 1.734375 0.71875q0.78125 0 1.328125 -0.40625q0.546875 -0.40625 0.859375 -1.296875zm-4.609375 -2.28125l4.625 0q-0.09375 -1.046875 -0.53125 -1.5625q-0.671875 -0.8125 -1.734375 -0.8125q-0.96875 0 -1.640625 0.65625q-0.65625 0.640625 -0.71875 1.71875zm13.5078125 2.28125l1.453125 0.171875q-0.34375 1.28125 -1.28125 1.984375q-0.921875 0.703125 -2.359375 0.703125q-1.828125 0 -2.890625 -1.125q-1.0625 -1.125 -1.0625 -3.140625q0 -2.09375 1.078125 -3.25q1.078125 -1.15625 2.796875 -1.15625q1.65625 0 2.703125 1.140625q1.0625 1.125 1.0625 3.171875q0 0.125 0 0.375l-6.1875 0q0.078125 1.375 0.765625 2.109375q0.703125 0.71875 1.734375 0.71875q0.78125 0 1.328125 -0.40625q0.546875 -0.40625 0.859375 -1.296875zm-4.609375 -2.28125l4.625 0q-0.09375 -1.046875 -0.53125 -1.5625q-0.671875 -0.8125 -1.734375 -0.8125q-0.96875 0 -1.640625 0.65625q-0.65625 0.640625 -0.71875 1.71875z" fill-rule="nonzero"/><path fill="#000000" fill-opacity="0.0" d="m634.9719 534.1317l183.52753 0l0 46.70862l-183.52753 0z" fill-rule="evenodd"/><path fill="#000000" d="m643.9407 558.4917l4.40625 -11.453125l1.640625 0l4.6875 11.453125l-1.734375 0l-1.328125 -3.46875l-4.796875 0l-1.25 3.46875l-1.625 0zm3.3125 -4.703125l3.890625 0l-1.203125 -3.171875q-0.546875 -1.453125 -0.8125 -2.375q-0.21875 1.09375 -0.609375 2.1875l-1.265625 3.359375zm11.453125 2.21875l1.390625 -0.21875q0.109375 0.84375 0.640625 1.296875q0.546875 0.4375 1.5 0.4375q0.96875 0 1.4375 -0.390625q0.46875 -0.40625 0.46875 -0.9375q0 -0.46875 -0.40625 -0.75q-0.296875 -0.1875 -1.4375 -0.46875q-1.546875 -0.390625 -2.15625 -0.671875q-0.59375 -0.296875 -0.90625 -0.796875q-0.296875 -0.5 -0.296875 -1.109375q0 -0.5625 0.25 -1.03125q0.25 -0.46875 0.6875 -0.78125q0.328125 -0.25 0.890625 -0.40625q0.578125 -0.171875 1.21875 -0.171875q0.984375 0 1.71875 0.28125q0.734375 0.28125 1.078125 0.765625q0.359375 0.46875 0.5 1.28125l-1.375 0.1875q-0.09375 -0.640625 -0.546875 -1.0q-0.453125 -0.359375 -1.265625 -0.359375q-0.96875 0 -1.390625 0.328125q-0.40625 0.3125 -0.40625 0.734375q0 0.28125 0.171875 0.5q0.171875 0.21875 0.53125 0.375q0.21875 0.078125 1.25 0.359375q1.484375 0.390625 2.078125 0.65625q0.59375 0.25 0.921875 0.734375q0.34375 0.484375 0.34375 1.203125q0 0.703125 -0.421875 1.328125q-0.40625 0.609375 -1.1875 0.953125q-0.765625 0.34375 -1.734375 0.34375q-1.625 0 -2.46875 -0.671875q-0.84375 -0.671875 -1.078125 -2.0zm8.5625 -7.359375l0 -1.609375l1.40625 0l0 1.609375l-1.40625 0zm0 9.84375l0 -8.296875l1.40625 0l0 8.296875l-1.40625 0zm8.9609375 -3.046875l1.390625 0.1875q-0.234375 1.421875 -1.171875 2.234375q-0.921875 0.8125 -2.28125 0.8125q-1.703125 0 -2.75 -1.109375q-1.03125 -1.125 -1.03125 -3.203125q0 -1.34375 0.4375 -2.34375q0.453125 -1.015625 1.359375 -1.515625q0.921875 -0.5 1.984375 -0.5q1.359375 0 2.21875 0.6875q0.859375 0.671875 1.09375 1.9375l-1.359375 0.203125q-0.203125 -0.828125 -0.703125 -1.25q-0.484375 -0.421875 -1.1875 -0.421875q-1.0625 0 -1.734375 0.765625q-0.65625 0.75 -0.65625 2.40625q0 1.671875 0.640625 2.4375q0.640625 0.75 1.671875 0.75q0.828125 0 1.375 -0.5q0.5625 -0.515625 0.703125 -1.578125zm2.59375 3.046875l0 -11.453125l1.40625 0l0 6.53125l3.328125 -3.375l1.828125 0l-3.171875 3.078125l3.484375 5.21875l-1.734375 0l-2.734375 -4.25l-1.0 0.953125l0 3.296875l-1.40625 0zm15.5078125 -1.265625l0.203125 1.25q-0.59375 0.125 -1.0625 0.125q-0.765625 0 -1.1875 -0.234375q-0.421875 -0.25 -0.59375 -0.640625q-0.171875 -0.40625 -0.171875 -1.671875l0 -4.765625l-1.03125 0l0 -1.09375l1.03125 0l0 -2.0625l1.40625 -0.84375l0 2.90625l1.40625 0l0 1.09375l-1.40625 0l0 4.84375q0 0.609375 0.0625 0.78125q0.078125 0.171875 0.25 0.28125q0.171875 0.09375 0.484375 0.09375q0.234375 0 0.609375 -0.0625zm1.3671875 1.265625l0 -8.296875l1.265625 0l0 1.25q0.484375 -0.875 0.890625 -1.15625q0.40625 -0.28125 0.90625 -0.28125q0.703125 0 1.4375 0.453125l-0.484375 1.296875q-0.515625 -0.296875 -1.03125 -0.296875q-0.453125 0 -0.828125 0.28125q-0.359375 0.265625 -0.515625 0.765625q-0.234375 0.75 -0.234375 1.640625l0 4.34375l-1.40625 0zm11.015625 -2.671875l1.453125 0.171875q-0.34375 1.28125 -1.28125 1.984375q-0.921875 0.703125 -2.359375 0.703125q-1.828125 0 -2.890625 -1.125q-1.0625 -1.125 -1.0625 -3.140625q0 -2.09375 1.078125 -3.25q1.078125 -1.15625 2.796875 -1.15625q1.65625 0 2.703125 1.140625q1.0625 1.125 1.0625 3.171875q0 0.125 0 0.375l-6.1875 0q0.078125 1.375 0.765625 2.109375q0.703125 0.71875 1.734375 0.71875q0.78125 0 1.328125 -0.40625q0.546875 -0.40625 0.859375 -1.296875zm-4.609375 -2.28125l4.625 0q-0.09375 -1.046875 -0.53125 -1.5625q-0.671875 -0.8125 -1.734375 -0.8125q-0.96875 0 -1.640625 0.65625q-0.65625 0.640625 -0.71875 1.71875zm13.5078125 2.28125l1.453125 0.171875q-0.34375 1.28125 -1.28125 1.984375q-0.921875 0.703125 -2.359375 0.703125q-1.828125 0 -2.890625 -1.125q-1.0625 -1.125 -1.0625 -3.140625q0 -2.09375 1.078125 -3.25q1.078125 -1.15625 2.796875 -1.15625q1.65625 0 2.703125 1.140625q1.0625 1.125 1.0625 3.171875q0 0.125 0 0.375l-6.1875 0q0.078125 1.375 0.765625 2.109375q0.703125 0.71875 1.734375 0.71875q0.78125 0 1.328125 -0.40625q0.546875 -0.40625 0.859375 -1.296875zm-4.609375 -2.28125l4.625 0q-0.09375 -1.046875 -0.53125 -1.5625q-0.671875 -0.8125 -1.734375 -0.8125q-0.96875 0 -1.640625 0.65625q-0.65625 0.640625 -0.71875 1.71875z" fill-rule="nonzero"/></g></svg>