<svg version="1.1" viewBox="0.0 0.0 576.5748031496063 534.501312335958" fill="none" stroke="none" stroke-linecap="square" stroke-miterlimit="10" xmlns:xlink="http://www.w3.org/1999/xlink" xmlns="http://www.w3.org/2000/svg"><clipPath id="p.0"><path d="m0 0l576.5748 0l0 534.50134l-576.5748 0l0 -534.50134z" clip-rule="nonzero"/></clipPath><g clip-path="url(#p.0)"><path fill="#ffffff" d="m0 0l576.5748 0l0 534.50134l-576.5748 0z" fill-rule="evenodd"/><path fill="#efefef" d="m76.63701 363.13403l0 0c14.985611 -36.355103 43.244553 -59.17801 63.118103 -50.97638l0 0c9.543625 3.938568 15.837616 14.651123 17.49739 29.781036c1.6597748 15.129913 -1.4506531 33.437805 -8.646988 50.89615l0 0c-14.985626 36.355103 -43.24456 59.17801 -63.11812 50.97638l0 0c-19.87355 -8.20166 -23.836006 -44.322052 -8.850388 -80.677185z" fill-rule="evenodd"/><path stroke="#000000" stroke-width="1.0" stroke-linejoin="round" stroke-linecap="butt" d="m76.63701 363.13403l0 0c14.985611 -36.355103 43.244553 -59.17801 63.118103 -50.97638l0 0c9.543625 3.938568 15.837616 14.651123 17.49739 29.781036c1.6597748 15.129913 -1.4506531 33.437805 -8.646988 50.89615l0 0c-14.985626 36.355103 -43.24456 59.17801 -63.11812 50.97638l0 0c-19.87355 -8.20166 -23.836006 -44.322052 -8.850388 -80.677185z" fill-rule="evenodd"/><path fill="#efefef" d="m258.5785 168.89221l0 0c-39.32094 0 -71.189804 -17.429169 -71.18111 -38.92914l0 0c0.004180908 -10.324646 7.509262 -20.226425 20.864212 -27.527054c13.35495 -7.3006287 31.465805 -11.402077 50.34839 -11.402077l0 0c39.320923 0 71.18979 17.429169 71.18109 38.92913l0 0c-0.00869751 21.49997 -31.891663 38.92914 -71.212585 38.92914z" fill-rule="evenodd"/><path stroke="#000000" stroke-width="1.0" stroke-linejoin="round" stroke-linecap="butt" d="m258.5785 168.89221l0 0c-39.32094 0 -71.189804 -17.429169 -71.18111 -38.92914l0 0c0.004180908 -10.324646 7.509262 -20.226425 20.864212 -27.527054c13.35495 -7.3006287 31.465805 -11.402077 50.34839 -11.402077l0 0c39.320923 0 71.18979 17.429169 71.18109 38.92913l0 0c-0.00869751 21.49997 -31.891663 38.92914 -71.212585 38.92914z" fill-rule="evenodd"/><path fill="#efefef" d="m372.84766 393.29498l0 0c-15.490051 -36.137665 -12.028198 -72.293335 7.7323 -80.75589l0 0c9.489319 -4.0638733 21.544952 -1.0674744 33.5148 8.330017c11.969818 9.397491 22.873383 24.4263 30.31195 41.780212l0 0c15.490082 36.137695 12.028229 72.293335 -7.7322693 80.75592l0 0c-19.760498 8.462555 -48.3367 -13.972565 -63.826782 -50.11026z" fill-rule="evenodd"/><path stroke="#000000" stroke-width="1.0" stroke-linejoin="round" stroke-linecap="butt" d="m372.84766 393.29498l0 0c-15.490051 -36.137665 -12.028198 -72.293335 7.7323 -80.75589l0 0c9.489319 -4.0638733 21.544952 -1.0674744 33.5148 8.330017c11.969818 9.397491 22.873383 24.4263 30.31195 41.780212l0 0c15.490082 36.137695 12.028229 72.293335 -7.7322693 80.75592l0 0c-19.760498 8.462555 -48.3367 -13.972565 -63.826782 -50.11026z" fill-rule="evenodd"/><path fill="#000000" fill-opacity="0.0" d="m70.7874 93.2021l0 384.56696" fill-rule="evenodd"/><path stroke="#000000" stroke-width="3.0" stroke-linejoin="round" stroke-linecap="butt" d="m70.7874 93.2021l0 384.56696" fill-rule="evenodd"/><path fill="#000000" fill-opacity="0.0" d="m455.07086 477.48557l-384.56693 0" fill-rule="evenodd"/><path stroke="#000000" stroke-width="3.0" stroke-linejoin="round" stroke-linecap="butt" d="m455.07086 477.48557l-384.56693 0" fill-rule="evenodd"/><path fill="#000000" fill-opacity="0.0" d="m71.88189 476.1811c31.097687 -58.502167 123.480354 -351.01312 186.58612 -351.01312c63.105804 0 160.04047 292.51096 192.04855 351.01312" fill-rule="evenodd"/><path stroke="#980000" stroke-width="4.0" stroke-linejoin="round" stroke-linecap="butt" d="m71.88189 476.1811c31.097687 -58.502167 123.480354 -351.01312 186.58612 -351.01312c63.105804 0 160.04047 292.51096 192.04855 351.01312" fill-rule="evenodd"/><path fill="#000000" fill-opacity="0.0" d="m12.3149605 394.96326l0 -220.06299l58.17323 0l0 220.06299z" fill-rule="evenodd"/><path fill="#000000" d="m39.86246 362.6388l-4.078125 0q0.46875 0.328125 0.78125 0.921875q0.296875 0.578125 0.296875 1.25q0 1.46875 -1.171875 2.546875q-1.1875 1.0625 -3.25 1.0625q-1.25 0 -2.234375 -0.4375q-1.0 -0.4375 -1.5 -1.25q-0.515625 -0.828125 -0.515625 -1.8125q0 -1.546875 1.296875 -2.421875l-1.109375 0l0 -1.265625l11.484375 0l0 1.40625zm-7.359375 4.328125q1.59375 0 2.40625 -0.671875q0.796875 -0.671875 0.796875 -1.609375q0 -0.890625 -0.765625 -1.53125q-0.765625 -0.65625 -2.3125 -0.65625q-1.65625 0 -2.484375 0.6875q-0.84375 0.671875 -0.84375 1.59375q0 0.921875 0.78125 1.5625q0.765625 0.625 2.421875 0.625zm4.171875 -13.3828125l-1.21875 0q1.40625 0.96875 1.40625 2.640625q0 0.734375 -0.28125 1.375q-0.28125 0.625 -0.703125 0.9375q-0.4375 0.3125 -1.046875 0.4375q-0.421875 0.078125 -1.3125 0.078125l-5.140625 0l0 -1.40625l4.59375 0q1.109375 0 1.484375 -0.078125q0.5625 -0.140625 0.875 -0.5625q0.3125 -0.4375 0.3125 -1.0625q0 -0.640625 -0.3125 -1.1875q-0.328125 -0.5625 -0.890625 -0.78125q-0.5625 -0.234375 -1.625 -0.234375l-4.4375 0l0 -1.40625l8.296875 0l0 1.25zm-1.03125 -8.8671875q0.671875 0.78125 0.953125 1.5q0.265625 0.71875 0.265625 1.546875q0 1.375 -0.671875 2.109375q-0.671875 0.734375 -1.703125 0.734375q-0.609375 0 -1.109375 -0.28125q-0.515625 -0.28125 -0.8125 -0.71875q-0.3125 -0.453125 -0.46875 -1.015625q-0.109375 -0.421875 -0.203125 -1.25q-0.203125 -1.703125 -0.484375 -2.515625q-0.296875 0 -0.375 0q-0.859375 0 -1.203125 0.390625q-0.484375 0.546875 -0.484375 1.609375q0 0.984375 0.359375 1.46875q0.34375 0.46875 1.21875 0.6875l-0.1875 1.375q-0.875 -0.1875 -1.421875 -0.609375q-0.546875 -0.4375 -0.828125 -1.25q-0.296875 -0.8125 -0.296875 -1.875q0 -1.0625 0.25 -1.71875q0.25 -0.671875 0.625 -0.984375q0.375 -0.3125 0.953125 -0.4375q0.359375 -0.078125 1.296875 -0.078125l1.875 0q1.96875 0 2.484375 -0.078125q0.515625 -0.09375 1.0 -0.359375l0 1.46875q-0.4375 0.21875 -1.03125 0.28125zm-3.140625 0.109375q0.3125 0.765625 0.53125 2.296875q0.125 0.875 0.28125 1.234375q0.15625 0.359375 0.46875 0.5625q0.296875 0.1875 0.65625 0.1875q0.5625 0 0.9375 -0.421875q0.375 -0.4375 0.375 -1.25q0 -0.8125 -0.34375 -1.4375q-0.359375 -0.640625 -0.984375 -0.9375q-0.46875 -0.234375 -1.40625 -0.234375l-0.515625 0zm4.171875 -3.5703125l-11.453125 0l0 -1.40625l11.453125 0l0 1.40625zm-9.84375 -3.5859375l-1.609375 0l0 -1.40625l1.609375 0l0 1.40625zm9.84375 0l-8.296875 0l0 -1.40625l8.296875 0l0 1.40625zm-1.265625 -6.6171875l1.25 -0.203125q0.125 0.59375 0.125 1.0625q0 0.765625 -0.234375 1.1875q-0.25 0.421875 -0.640625 0.59375q-0.40625 0.171875 -1.671875 0.171875l-4.765625 0l0 1.03125l-1.09375 0l0 -1.03125l-2.0625 0l-0.84375 -1.40625l2.90625 0l0 -1.40625l1.09375 0l0 1.40625l4.84375 0q0.609375 0 0.78125 -0.0625q0.171875 -0.078125 0.28125 -0.25q0.09375 -0.171875 0.09375 -0.484375q0 -0.234375 -0.0625 -0.609375zm4.46875 -1.3203125l-1.328125 0.15625q0.125 -0.453125 0.125 -0.796875q0 -0.46875 -0.15625 -0.75q-0.15625 -0.28125 -0.4375 -0.46875q-0.203125 -0.125 -1.046875 -0.421875q-0.109375 -0.046875 -0.34375 -0.125l-8.3125 3.140625l0 -1.515625l4.796875 -1.71875q0.921875 -0.34375 1.921875 -0.609375q-0.96875 -0.234375 -1.890625 -0.578125l-4.828125 -1.765625l0 -1.40625l8.4375 3.15625q1.375 0.5 1.890625 0.78125q0.6875 0.375 1.015625 0.859375q0.328125 0.484375 0.328125 1.15625q0 0.40625 -0.171875 0.90625zm-7.359375 -11.9765625q-2.296875 0 -3.40625 -1.28125q-0.921875 -1.078125 -0.921875 -2.609375q0 -1.71875 1.125 -2.796875q1.109375 -1.09375 3.09375 -1.09375q1.59375 0 2.515625 0.484375q0.921875 0.484375 1.4375 1.40625q0.5 0.90625 0.5 2.0q0 1.734375 -1.109375 2.8125q-1.125 1.078125 -3.234375 1.078125zm0 -1.453125q1.59375 0 2.390625 -0.6875q0.796875 -0.703125 0.796875 -1.75q0 -1.046875 -0.796875 -1.734375q-0.796875 -0.703125 -2.4375 -0.703125q-1.53125 0 -2.328125 0.703125q-0.796875 0.6875 -0.796875 1.734375q0 1.046875 0.796875 1.75q0.78125 0.6875 2.375 0.6875zm4.15625 -8.3046875l-7.203125 0l0 1.234375l-1.09375 0l0 -1.234375l-0.890625 0q-0.828125 0 -1.234375 -0.15625q-0.546875 -0.203125 -0.890625 -0.703125q-0.34375 -0.515625 -0.34375 -1.4375q0 -0.59375 0.140625 -1.3125l1.234375 0.203125q-0.078125 0.4375 -0.078125 0.828125q0 0.640625 0.28125 0.90625q0.265625 0.265625 1.015625 0.265625l0.765625 0l0 -1.609375l1.09375 0l0 1.609375l7.203125 0l0 1.40625zm3.1875 -8.5625l-11.484375 0l0 -1.28125l1.078125 0q-0.640625 -0.453125 -0.953125 -1.015625q-0.3125 -0.578125 -0.3125 -1.390625q0 -1.0625 0.546875 -1.875q0.546875 -0.8125 1.546875 -1.21875q0.984375 -0.421875 2.171875 -0.421875q1.28125 0 2.296875 0.46875q1.015625 0.453125 1.5625 1.328125q0.546875 0.859375 0.546875 1.828125q0 0.703125 -0.296875 1.265625q-0.296875 0.546875 -0.75 0.90625l4.046875 0l0 1.40625zm-7.296875 -1.265625q1.609375 0 2.375 -0.640625q0.765625 -0.65625 0.765625 -1.578125q0 -0.9375 -0.796875 -1.609375q-0.796875 -0.671875 -2.453125 -0.671875q-1.59375 0 -2.375 0.65625q-0.796875 0.65625 -0.796875 1.5625q0 0.890625 0.84375 1.59375q0.84375 0.6875 2.4375 0.6875zm4.109375 -7.6171875l-8.296875 0l0 -1.265625l1.25 0q-0.875 -0.484375 -1.15625 -0.890625q-0.28125 -0.40625 -0.28125 -0.90625q0 -0.703125 0.453125 -1.4375l1.296875 0.484375q-0.296875 0.515625 -0.296875 1.03125q0 0.453125 0.28125 0.828125q0.265625 0.359375 0.765625 0.515625q0.75 0.234375 1.640625 0.234375l4.34375 0l0 1.40625zm-2.671875 -11.015625l0.171875 -1.453125q1.28125 0.34375 1.984375 1.28125q0.703125 0.921875 0.703125 2.359375q0 1.828125 -1.125 2.890625q-1.125 1.0625 -3.140625 1.0625q-2.09375 0 -3.25 -1.078125q-1.15625 -1.078125 -1.15625 -2.796875q0 -1.65625 1.140625 -2.703125q1.125 -1.0625 3.171875 -1.0625q0.125 0 0.375 0l0 6.1875q1.375 -0.078125 2.109375 -0.765625q0.71875 -0.703125 0.71875 -1.734375q0 -0.78125 -0.40625 -1.328125q-0.40625 -0.546875 -1.296875 -0.859375zm-2.28125 4.609375l0 -4.625q-1.046875 0.09375 -1.5625 0.53125q-0.8125 0.671875 -0.8125 1.734375q0 0.96875 0.65625 1.640625q0.640625 0.65625 1.71875 0.71875zm4.953125 -13.2109375l-1.046875 0q1.234375 0.78125 1.234375 2.3125q0 1.0 -0.546875 1.828125q-0.546875 0.828125 -1.53125 1.296875q-0.984375 0.453125 -2.25 0.453125q-1.25 0 -2.25 -0.40625q-1.015625 -0.421875 -1.546875 -1.25q-0.546875 -0.828125 -0.546875 -1.859375q0 -0.75 0.3125 -1.328125q0.3125 -0.59375 0.828125 -0.953125l-4.109375 0l0 -1.40625l11.453125 0l0 1.3125zm-4.140625 4.4375q1.59375 0 2.390625 -0.671875q0.78125 -0.671875 0.78125 -1.578125q0 -0.921875 -0.75 -1.5625q-0.765625 -0.65625 -2.3125 -0.65625q-1.703125 0 -2.5 0.65625q-0.796875 0.65625 -0.796875 1.625q0 0.9375 0.765625 1.5625q0.765625 0.625 2.421875 0.625zm-5.703125 -7.9609375l-1.609375 0l0 -1.40625l1.609375 0l0 1.40625zm9.84375 0l-8.296875 0l0 -1.40625l8.296875 0l0 1.40625zm-3.046875 -8.9609375l0.1875 -1.390625q1.421875 0.234375 2.234375 1.171875q0.8125 0.921875 0.8125 2.28125q0 1.703125 -1.109375 2.75q-1.125 1.03125 -3.203125 1.03125q-1.34375 0 -2.34375 -0.4375q-1.015625 -0.453125 -1.515625 -1.359375q-0.5 -0.921875 -0.5 -1.984375q0 -1.359375 0.6875 -2.21875q0.671875 -0.859375 1.9375 -1.09375l0.203125 1.359375q-0.828125 0.203125 -1.25 0.703125q-0.421875 0.484375 -0.421875 1.1875q0 1.0625 0.765625 1.734375q0.75 0.65625 2.40625 0.65625q1.671875 0 2.4375 -0.640625q0.75 -0.640625 0.75 -1.671875q0 -0.828125 -0.5 -1.375q-0.515625 -0.5625 -1.578125 -0.703125zm1.78125 -5.65625l1.25 -0.203125q0.125 0.59375 0.125 1.0625q0 0.765625 -0.234375 1.1875q-0.25 0.421875 -0.640625 0.59375q-0.40625 0.171875 -1.671875 0.171875l-4.765625 0l0 1.03125l-1.09375 0l0 -1.03125l-2.0625 0l-0.84375 -1.40625l2.90625 0l0 -1.40625l1.09375 0l0 1.40625l4.84375 0q0.609375 0 0.78125 -0.0625q0.171875 -0.078125 0.28125 -0.25q0.09375 -0.171875 0.09375 -0.484375q0 -0.234375 -0.0625 -0.609375zm-8.578125 -1.3828125l-1.609375 0l0 -1.40625l1.609375 0l0 1.40625zm9.84375 0l-8.296875 0l0 -1.40625l8.296875 0l0 1.40625zm-4.15625 -3.0234375q-2.296875 0 -3.40625 -1.28125q-0.921875 -1.078125 -0.921875 -2.609375q0 -1.71875 1.125 -2.796875q1.109375 -1.09375 3.09375 -1.09375q1.59375 0 2.515625 0.484375q0.921875 0.484375 1.4375 1.40625q0.5 0.90625 0.5 2.0q0 1.734375 -1.109375 2.8125q-1.125 1.078125 -3.234375 1.078125zm0 -1.453125q1.59375 0 2.390625 -0.6875q0.796875 -0.703125 0.796875 -1.75q0 -1.046875 -0.796875 -1.734375q-0.796875 -0.703125 -2.4375 -0.703125q-1.53125 0 -2.328125 0.703125q-0.796875 0.6875 -0.796875 1.734375q0 1.046875 0.796875 1.75q0.78125 0.6875 2.375 0.6875zm4.15625 -7.9765625l-8.296875 0l0 -1.265625l1.171875 0q-1.359375 -0.90625 -1.359375 -2.640625q0 -0.75 0.265625 -1.375q0.265625 -0.625 0.703125 -0.9375q0.4375 -0.3125 1.046875 -0.4375q0.390625 -0.078125 1.359375 -0.078125l5.109375 0l0 1.40625l-5.046875 0q-0.859375 0 -1.28125 0.171875q-0.4375 0.15625 -0.6875 0.578125q-0.25 0.40625 -0.25 0.96875q0 0.90625 0.578125 1.5625q0.5625 0.640625 2.15625 0.640625l4.53125 0l0 1.40625zm-2.484375 -8.3359375l-0.21875 -1.390625q0.84375 -0.109375 1.296875 -0.640625q0.4375 -0.546875 0.4375 -1.5q0 -0.96875 -0.390625 -1.4375q-0.40625 -0.46875 -0.9375 -0.46875q-0.46875 0 -0.75 0.40625q-0.1875 0.296875 -0.46875 1.4375q-0.390625 1.546875 -0.671875 2.15625q-0.296875 0.59375 -0.796875 0.90625q-0.5 0.296875 -1.109375 0.296875q-0.5625 0 -1.03125 -0.25q-0.46875 -0.25 -0.78125 -0.6875q-0.25 -0.328125 -0.40625 -0.890625q-0.171875 -0.578125 -0.171875 -1.21875q0 -0.984375 0.28125 -1.71875q0.28125 -0.734375 0.765625 -1.078125q0.46875 -0.359375 1.28125 -0.5l0.1875 1.375q-0.640625 0.09375 -1.0 0.546875q-0.359375 0.453125 -0.359375 1.265625q0 0.96875 0.328125 1.390625q0.3125 0.40625 0.734375 0.40625q0.28125 0 0.5 -0.171875q0.21875 -0.171875 0.375 -0.53125q0.078125 -0.21875 0.359375 -1.25q0.390625 -1.484375 0.65625 -2.078125q0.25 -0.59375 0.734375 -0.921875q0.484375 -0.34375 1.203125 -0.34375q0.703125 0 1.328125 0.421875q0.609375 0.40625 0.953125 1.1875q0.34375 0.765625 0.34375 1.734375q0 1.625 -0.671875 2.46875q-0.671875 0.84375 -2.0 1.078125zm-1.671875 -12.4765625q-2.296875 0 -3.40625 -1.28125q-0.921875 -1.078125 -0.921875 -2.609375q0 -1.71875 1.125 -2.796875q1.109375 -1.09375 3.09375 -1.09375q1.59375 0 2.515625 0.484375q0.921875 0.484375 1.4375 1.40625q0.5 0.90625 0.5 2.0q0 1.734375 -1.109375 2.8125q-1.125 1.078125 -3.234375 1.078125zm0 -1.453125q1.59375 0 2.390625 -0.6875q0.796875 -0.703125 0.796875 -1.75q0 -1.046875 -0.796875 -1.734375q-0.796875 -0.703125 -2.4375 -0.703125q-1.53125 0 -2.328125 0.703125q-0.796875 0.6875 -0.796875 1.734375q0 1.046875 0.796875 1.75q0.78125 0.6875 2.375 0.6875zm4.15625 -7.9765625l-8.296875 0l0 -1.265625l1.171875 0q-1.359375 -0.90625 -1.359375 -2.640625q0 -0.75 0.265625 -1.375q0.265625 -0.625 0.703125 -0.9375q0.4375 -0.3125 1.046875 -0.4375q0.390625 -0.078125 1.359375 -0.078125l5.109375 0l0 1.40625l-5.046875 0q-0.859375 0 -1.28125 0.171875q-0.4375 0.15625 -0.6875 0.578125q-0.25 0.40625 -0.25 0.96875q0 0.90625 0.578125 1.5625q0.5625 0.640625 2.15625 0.640625l4.53125 0l0 1.40625z" fill-rule="nonzero"/><path fill="#000000" d="m55.87496 336.79895l-8.296875 0l0 -1.265625l1.25 0q-0.875 -0.484375 -1.15625 -0.890625q-0.28125 -0.40625 -0.28125 -0.90625q0 -0.703125 0.453125 -1.4375l1.296875 0.484375q-0.296875 0.515625 -0.296875 1.03125q0 0.453125 0.28125 0.828125q0.265625 0.359375 0.765625 0.515625q0.75 0.234375 1.640625 0.234375l4.34375 0l0 1.40625zm-2.671875 -11.015625l0.171875 -1.453125q1.28125 0.34375 1.984375 1.28125q0.703125 0.921875 0.703125 2.359375q0 1.828125 -1.125 2.890625q-1.125 1.0625 -3.140625 1.0625q-2.09375 0 -3.25 -1.078125q-1.15625 -1.078125 -1.15625 -2.796875q0 -1.65625 1.140625 -2.703125q1.125 -1.0625 3.171875 -1.0625q0.125 0 0.375 0l0 6.1875q1.375 -0.078125 2.109375 -0.765625q0.71875 -0.703125 0.71875 -1.734375q0 -0.78125 -0.40625 -1.328125q-0.40625 -0.546875 -1.296875 -0.859375zm-2.28125 4.609375l0 -4.625q-1.046875 0.09375 -1.5625 0.53125q-0.8125 0.671875 -0.8125 1.734375q0 0.96875 0.65625 1.640625q0.640625 0.65625 1.71875 0.71875zm3.921875 -13.2421875q0.671875 0.78125 0.953125 1.5q0.265625 0.71875 0.265625 1.546875q0 1.375 -0.671875 2.109375q-0.671875 0.734375 -1.703125 0.734375q-0.609375 0 -1.109375 -0.28125q-0.515625 -0.28125 -0.8125 -0.71875q-0.3125 -0.453125 -0.46875 -1.015625q-0.109375 -0.421875 -0.203125 -1.25q-0.203125 -1.703125 -0.484375 -2.515625q-0.296875 0 -0.375 0q-0.859375 0 -1.203125 0.390625q-0.484375 0.546875 -0.484375 1.609375q0 0.984375 0.359375 1.46875q0.34375 0.46875 1.21875 0.6875l-0.1875 1.375q-0.875 -0.1875 -1.421875 -0.609375q-0.546875 -0.4375 -0.828125 -1.25q-0.296875 -0.8125 -0.296875 -1.875q0 -1.0625 0.25 -1.71875q0.25 -0.671875 0.625 -0.984375q0.375 -0.3125 0.953125 -0.4375q0.359375 -0.078125 1.296875 -0.078125l1.875 0q1.96875 0 2.484375 -0.078125q0.515625 -0.09375 1.0 -0.359375l0 1.46875q-0.4375 0.21875 -1.03125 0.28125zm-3.140625 0.109375q0.3125 0.765625 0.53125 2.296875q0.125 0.875 0.28125 1.234375q0.15625 0.359375 0.46875 0.5625q0.296875 0.1875 0.65625 0.1875q0.5625 0 0.9375 -0.421875q0.375 -0.4375 0.375 -1.25q0 -0.8125 -0.34375 -1.4375q-0.359375 -0.640625 -0.984375 -0.9375q-0.46875 -0.234375 -1.40625 -0.234375l-0.515625 0zm4.171875 -3.5703125l-11.453125 0l0 -1.40625l11.453125 0l0 1.40625zm-3.4375 -3.0390625l-1.421875 0l0 -4.3125l1.421875 0l0 4.3125zm3.4375 -7.40625l-8.296875 2.546875l0 -1.453125l4.78125 -1.328125l1.78125 -0.484375q-0.125 -0.03125 -1.703125 -0.4375l-4.859375 -1.3125l0 -1.453125l4.8125 -1.234375l1.578125 -0.421875l-1.59375 -0.46875l-4.796875 -1.421875l0 -1.375l8.296875 2.59375l0 1.46875l-4.96875 1.3125l-1.421875 0.328125l6.390625 1.671875l0 1.46875zm-4.15625 -9.4921875q-2.296875 0 -3.40625 -1.28125q-0.921875 -1.078125 -0.921875 -2.609375q0 -1.71875 1.125 -2.796875q1.109375 -1.09375 3.09375 -1.09375q1.59375 0 2.515625 0.484375q0.921875 0.484375 1.4375 1.40625q0.5 0.90625 0.5 2.0q0 1.734375 -1.109375 2.8125q-1.125 1.078125 -3.234375 1.078125zm0 -1.453125q1.59375 0 2.390625 -0.6875q0.796875 -0.703125 0.796875 -1.75q0 -1.046875 -0.796875 -1.734375q-0.796875 -0.703125 -2.4375 -0.703125q-1.53125 0 -2.328125 0.703125q-0.796875 0.6875 -0.796875 1.734375q0 1.046875 0.796875 1.75q0.78125 0.6875 2.375 0.6875zm4.15625 -7.9609375l-8.296875 0l0 -1.265625l1.25 0q-0.875 -0.484375 -1.15625 -0.890625q-0.28125 -0.40625 -0.28125 -0.90625q0 -0.703125 0.453125 -1.4375l1.296875 0.484375q-0.296875 0.515625 -0.296875 1.03125q0 0.453125 0.28125 0.828125q0.265625 0.359375 0.765625 0.515625q0.75 0.234375 1.640625 0.234375l4.34375 0l0 1.40625zm0 -5.3125l-11.453125 0l0 -1.40625l11.453125 0l0 1.40625zm0 -8.9609375l-1.046875 0q1.234375 0.78125 1.234375 2.3125q0 1.0 -0.546875 1.828125q-0.546875 0.828125 -1.53125 1.296875q-0.984375 0.453125 -2.25 0.453125q-1.25 0 -2.25 -0.40625q-1.015625 -0.421875 -1.546875 -1.25q-0.546875 -0.828125 -0.546875 -1.859375q0 -0.75 0.3125 -1.328125q0.3125 -0.59375 0.828125 -0.953125l-4.109375 0l0 -1.40625l11.453125 0l0 1.3125zm-4.140625 4.4375q1.59375 0 2.390625 -0.671875q0.78125 -0.671875 0.78125 -1.578125q0 -0.921875 -0.75 -1.5625q-0.765625 -0.65625 -2.3125 -0.65625q-1.703125 0 -2.5 0.65625q-0.796875 0.65625 -0.796875 1.625q0 0.9375 0.765625 1.5625q0.765625 0.625 2.421875 0.625zm4.140625 -17.78125l-1.046875 0q1.234375 0.78125 1.234375 2.3125q0 1.0 -0.546875 1.828125q-0.546875 0.828125 -1.53125 1.296875q-0.984375 0.453125 -2.25 0.453125q-1.25 0 -2.25 -0.40625q-1.015625 -0.421875 -1.546875 -1.25q-0.546875 -0.828125 -0.546875 -1.859375q0 -0.75 0.3125 -1.328125q0.3125 -0.59375 0.828125 -0.953125l-4.109375 0l0 -1.40625l11.453125 0l0 1.3125zm-4.140625 4.4375q1.59375 0 2.390625 -0.671875q0.78125 -0.671875 0.78125 -1.578125q0 -0.921875 -0.75 -1.5625q-0.765625 -0.65625 -2.3125 -0.65625q-1.703125 0 -2.5 0.65625q-0.796875 0.65625 -0.796875 1.625q0 0.9375 0.765625 1.5625q0.765625 0.625 2.421875 0.625zm3.109375 -13.3671875q0.671875 0.78125 0.953125 1.5q0.265625 0.71875 0.265625 1.546875q0 1.375 -0.671875 2.109375q-0.671875 0.734375 -1.703125 0.734375q-0.609375 0 -1.109375 -0.28125q-0.515625 -0.28125 -0.8125 -0.71875q-0.3125 -0.453125 -0.46875 -1.015625q-0.109375 -0.421875 -0.203125 -1.25q-0.203125 -1.703125 -0.484375 -2.515625q-0.296875 0 -0.375 0q-0.859375 0 -1.203125 0.390625q-0.484375 0.546875 -0.484375 1.609375q0 0.984375 0.359375 1.46875q0.34375 0.46875 1.21875 0.6875l-0.1875 1.375q-0.875 -0.1875 -1.421875 -0.609375q-0.546875 -0.4375 -0.828125 -1.25q-0.296875 -0.8125 -0.296875 -1.875q0 -1.0625 0.25 -1.71875q0.25 -0.671875 0.625 -0.984375q0.375 -0.3125 0.953125 -0.4375q0.359375 -0.078125 1.296875 -0.078125l1.875 0q1.96875 0 2.484375 -0.078125q0.515625 -0.09375 1.0 -0.359375l0 1.46875q-0.4375 0.21875 -1.03125 0.28125zm-3.140625 0.109375q0.3125 0.765625 0.53125 2.296875q0.125 0.875 0.28125 1.234375q0.15625 0.359375 0.46875 0.5625q0.296875 0.1875 0.65625 0.1875q0.5625 0 0.9375 -0.421875q0.375 -0.4375 0.375 -1.25q0 -0.8125 -0.34375 -1.4375q-0.359375 -0.640625 -0.984375 -0.9375q-0.46875 -0.234375 -1.40625 -0.234375l-0.515625 0zm2.90625 -6.6640625l1.25 -0.203125q0.125 0.59375 0.125 1.0625q0 0.765625 -0.234375 1.1875q-0.25 0.421875 -0.640625 0.59375q-0.40625 0.171875 -1.671875 0.171875l-4.765625 0l0 1.03125l-1.09375 0l0 -1.03125l-2.0625 0l-0.84375 -1.40625l2.90625 0l0 -1.40625l1.09375 0l0 1.40625l4.84375 0q0.609375 0 0.78125 -0.0625q0.171875 -0.078125 0.28125 -0.25q0.09375 -0.171875 0.09375 -0.484375q0 -0.234375 -0.0625 -0.609375zm0.234375 -6.7890625q0.671875 0.78125 0.953125 1.5q0.265625 0.71875 0.265625 1.546875q0 1.375 -0.671875 2.109375q-0.671875 0.734375 -1.703125 0.734375q-0.609375 0 -1.109375 -0.28125q-0.515625 -0.28125 -0.8125 -0.71875q-0.3125 -0.453125 -0.46875 -1.015625q-0.109375 -0.421875 -0.203125 -1.25q-0.203125 -1.703125 -0.484375 -2.515625q-0.296875 0 -0.375 0q-0.859375 0 -1.203125 0.390625q-0.484375 0.546875 -0.484375 1.609375q0 0.984375 0.359375 1.46875q0.34375 0.46875 1.21875 0.6875l-0.1875 1.375q-0.875 -0.1875 -1.421875 -0.609375q-0.546875 -0.4375 -0.828125 -1.25q-0.296875 -0.8125 -0.296875 -1.875q0 -1.0625 0.25 -1.71875q0.25 -0.671875 0.625 -0.984375q0.375 -0.3125 0.953125 -0.4375q0.359375 -0.078125 1.296875 -0.078125l1.875 0q1.96875 0 2.484375 -0.078125q0.515625 -0.09375 1.0 -0.359375l0 1.46875q-0.4375 0.21875 -1.03125 0.28125zm-3.140625 0.109375q0.3125 0.765625 0.53125 2.296875q0.125 0.875 0.28125 1.234375q0.15625 0.359375 0.46875 0.5625q0.296875 0.1875 0.65625 0.1875q0.5625 0 0.9375 -0.421875q0.375 -0.4375 0.375 -1.25q0 -0.8125 -0.34375 -1.4375q-0.359375 -0.640625 -0.984375 -0.9375q-0.46875 -0.234375 -1.40625 -0.234375l-0.515625 0z" fill-rule="nonzero"/><path fill="#000000" fill-opacity="0.0" d="m155.37007 477.3077l220.063 0l0 58.17325l-220.063 0z" fill-rule="evenodd"/><path fill="#000000" d="m187.69453 504.8552l0 -4.078125q-0.328125 0.46875 -0.921875 0.78125q-0.578125 0.296875 -1.25 0.296875q-1.46875 0 -2.546875 -1.171875q-1.0625 -1.1875 -1.0625 -3.25q0 -1.25 0.4375 -2.234375q0.4375 -1.0 1.25 -1.5q0.828125 -0.515625 1.8125 -0.515625q1.546875 0 2.421875 1.296875l0 -1.109375l1.265625 0l0 11.484375l-1.40625 0zm-4.328125 -7.359375q0 1.59375 0.671875 2.40625q0.671875 0.796875 1.609375 0.796875q0.890625 0 1.53125 -0.765625q0.65625 -0.765625 0.65625 -2.3125q0 -1.65625 -0.6875 -2.484375q-0.671875 -0.84375 -1.59375 -0.84375q-0.921875 0 -1.5625 0.78125q-0.625 0.765625 -0.625 2.421875zm13.3828125 4.171875l0 -1.21875q-0.96875 1.40625 -2.640625 1.40625q-0.734375 0 -1.375 -0.28125q-0.625 -0.28125 -0.9375 -0.703125q-0.3125 -0.4375 -0.4375 -1.046875q-0.078125 -0.421875 -0.078125 -1.3125l0 -5.140625l1.40625 0l0 4.59375q0 1.109375 0.078125 1.484375q0.140625 0.5625 0.5625 0.875q0.4375 0.3125 1.0625 0.3125q0.640625 0 1.1875 -0.3125q0.5625 -0.328125 0.78125 -0.890625q0.234375 -0.5625 0.234375 -1.625l0 -4.4375l1.40625 0l0 8.296875l-1.25 0zm8.8671875 -1.03125q-0.78125 0.671875 -1.5 0.953125q-0.71875 0.265625 -1.546875 0.265625q-1.375 0 -2.109375 -0.671875q-0.734375 -0.671875 -0.734375 -1.703125q0 -0.609375 0.28125 -1.109375q0.28125 -0.515625 0.71875 -0.8125q0.453125 -0.3125 1.015625 -0.46875q0.421875 -0.109375 1.25 -0.203125q1.703125 -0.203125 2.515625 -0.484375q0 -0.296875 0 -0.375q0 -0.859375 -0.390625 -1.203125q-0.546875 -0.484375 -1.609375 -0.484375q-0.984375 0 -1.46875 0.359375q-0.46875 0.34375 -0.6875 1.21875l-1.375 -0.1875q0.1875 -0.875 0.609375 -1.421875q0.4375 -0.546875 1.25 -0.828125q0.8125 -0.296875 1.875 -0.296875q1.0625 0 1.71875 0.25q0.671875 0.25 0.984375 0.625q0.3125 0.375 0.4375 0.953125q0.078125 0.359375 0.078125 1.296875l0 1.875q0 1.96875 0.078125 2.484375q0.09375 0.515625 0.359375 1.0l-1.46875 0q-0.21875 -0.4375 -0.28125 -1.03125zm-0.109375 -3.140625q-0.765625 0.3125 -2.296875 0.53125q-0.875 0.125 -1.234375 0.28125q-0.359375 0.15625 -0.5625 0.46875q-0.1875 0.296875 -0.1875 0.65625q0 0.5625 0.421875 0.9375q0.4375 0.375 1.25 0.375q0.8125 0 1.4375 -0.34375q0.640625 -0.359375 0.9375 -0.984375q0.234375 -0.46875 0.234375 -1.40625l0 -0.515625zm3.5703125 4.171875l0 -11.453125l1.40625 0l0 11.453125l-1.40625 0zm3.5859375 -9.84375l0 -1.609375l1.40625 0l0 1.609375l-1.40625 0zm0 9.84375l0 -8.296875l1.40625 0l0 8.296875l-1.40625 0zm6.6171875 -1.265625l0.203125 1.25q-0.59375 0.125 -1.0625 0.125q-0.765625 0 -1.1875 -0.234375q-0.421875 -0.25 -0.59375 -0.640625q-0.171875 -0.40625 -0.171875 -1.671875l0 -4.765625l-1.03125 0l0 -1.09375l1.03125 0l0 -2.0625l1.40625 -0.84375l0 2.90625l1.40625 0l0 1.09375l-1.40625 0l0 4.84375q0 0.609375 0.0625 0.78125q0.078125 0.171875 0.25 0.28125q0.171875 0.09375 0.484375 0.09375q0.234375 0 0.609375 -0.0625zm1.3203125 4.46875l-0.15625 -1.328125q0.453125 0.125 0.796875 0.125q0.46875 0 0.75 -0.15625q0.28125 -0.15625 0.46875 -0.4375q0.125 -0.203125 0.421875 -1.046875q0.046875 -0.109375 0.125 -0.34375l-3.140625 -8.3125l1.515625 0l1.71875 4.796875q0.34375 0.921875 0.609375 1.921875q0.234375 -0.96875 0.578125 -1.890625l1.765625 -4.828125l1.40625 0l-3.15625 8.4375q-0.5 1.375 -0.78125 1.890625q-0.375 0.6875 -0.859375 1.015625q-0.484375 0.328125 -1.15625 0.328125q-0.40625 0 -0.90625 -0.171875zm11.9765625 -7.359375q0 -2.296875 1.28125 -3.40625q1.078125 -0.921875 2.609375 -0.921875q1.71875 0 2.796875 1.125q1.09375 1.109375 1.09375 3.09375q0 1.59375 -0.484375 2.515625q-0.484375 0.921875 -1.40625 1.4375q-0.90625 0.5 -2.0 0.5q-1.734375 0 -2.8125 -1.109375q-1.078125 -1.125 -1.078125 -3.234375zm1.453125 0q0 1.59375 0.6875 2.390625q0.703125 0.796875 1.75 0.796875q1.046875 0 1.734375 -0.796875q0.703125 -0.796875 0.703125 -2.4375q0 -1.53125 -0.703125 -2.328125q-0.6875 -0.796875 -1.734375 -0.796875q-1.046875 0 -1.75 0.796875q-0.6875 0.78125 -0.6875 2.375zm8.3046875 4.15625l0 -7.203125l-1.234375 0l0 -1.09375l1.234375 0l0 -0.890625q0 -0.828125 0.15625 -1.234375q0.203125 -0.546875 0.703125 -0.890625q0.515625 -0.34375 1.4375 -0.34375q0.59375 0 1.3125 0.140625l-0.203125 1.234375q-0.4375 -0.078125 -0.828125 -0.078125q-0.640625 0 -0.90625 0.28125q-0.265625 0.265625 -0.265625 1.015625l0 0.765625l1.609375 0l0 1.09375l-1.609375 0l0 7.203125l-1.40625 0zm8.5625 3.1875l0 -11.484375l1.28125 0l0 1.078125q0.453125 -0.640625 1.015625 -0.953125q0.578125 -0.3125 1.390625 -0.3125q1.0625 0 1.8750153 0.546875q0.8125 0.546875 1.21875 1.546875q0.421875 0.984375 0.421875 2.171875q0 1.28125 -0.46875 2.296875q-0.453125 1.015625 -1.328125 1.5625q-0.85939026 0.546875 -1.8281403 0.546875q-0.703125 0 -1.265625 -0.296875q-0.546875 -0.296875 -0.90625 -0.75l0 4.046875l-1.40625 0zm1.265625 -7.296875q0 1.609375 0.640625 2.375q0.65625 0.765625 1.578125 0.765625q0.9375 0 1.609375 -0.796875q0.67189026 -0.796875 0.67189026 -2.453125q0 -1.59375 -0.65625 -2.375q-0.65626526 -0.796875 -1.5625153 -0.796875q-0.890625 0 -1.59375 0.84375q-0.6875 0.84375 -0.6875 2.4375zm7.6172028 4.109375l0 -8.296875l1.265625 0l0 1.25q0.484375 -0.875 0.890625 -1.15625q0.40625 -0.28125 0.90625 -0.28125q0.703125 0 1.4375 0.453125l-0.484375 1.296875q-0.515625 -0.296875 -1.03125 -0.296875q-0.453125 0 -0.828125 0.28125q-0.359375 0.265625 -0.515625 0.765625q-0.234375 0.75 -0.234375 1.640625l0 4.34375l-1.40625 0zm11.015625 -2.671875l1.453125 0.171875q-0.34375 1.28125 -1.28125 1.984375q-0.921875 0.703125 -2.359375 0.703125q-1.828125 0 -2.890625 -1.125q-1.0625 -1.125 -1.0625 -3.140625q0 -2.09375 1.078125 -3.25q1.078125 -1.15625 2.796875 -1.15625q1.65625 0 2.703125 1.140625q1.0625 1.125 1.0625 3.171875q0 0.125 0 0.375l-6.1875 0q0.078125 1.375 0.765625 2.109375q0.703125 0.71875 1.734375 0.71875q0.78125 0 1.328125 -0.40625q0.546875 -0.40625 0.859375 -1.296875zm-4.609375 -2.28125l4.625 0q-0.09375 -1.046875 -0.53125 -1.5625q-0.671875 -0.8125 -1.734375 -0.8125q-0.96875 0 -1.640625 0.65625q-0.65625 0.640625 -0.71875 1.71875zm13.2109375 4.953125l0 -1.046875q-0.78125 1.234375 -2.3125 1.234375q-1.0 0 -1.828125 -0.546875q-0.828125 -0.546875 -1.296875 -1.53125q-0.453125 -0.984375 -0.453125 -2.25q0 -1.25 0.40625 -2.25q0.421875 -1.015625 1.25 -1.546875q0.828125 -0.546875 1.859375 -0.546875q0.75 0 1.328125 0.3125q0.59375 0.3125 0.953125 0.828125l0 -4.109375l1.40625 0l0 11.453125l-1.3125 0zm-4.4375 -4.140625q0 1.59375 0.671875 2.390625q0.671875 0.78125 1.578125 0.78125q0.921875 0 1.5625 -0.75q0.65625 -0.765625 0.65625 -2.3125q0 -1.703125 -0.65625 -2.5q-0.65625 -0.796875 -1.625 -0.796875q-0.9375 0 -1.5625 0.765625q-0.625 0.765625 -0.625 2.421875zm7.9609375 -5.703125l0 -1.609375l1.40625 0l0 1.609375l-1.40625 0zm0 9.84375l0 -8.296875l1.40625 0l0 8.296875l-1.40625 0zm8.9609375 -3.046875l1.390625 0.1875q-0.234375 1.421875 -1.171875 2.234375q-0.921875 0.8125 -2.28125 0.8125q-1.703125 0 -2.75 -1.109375q-1.03125 -1.125 -1.03125 -3.203125q0 -1.34375 0.4375 -2.34375q0.453125 -1.015625 1.359375 -1.515625q0.921875 -0.5 1.984375 -0.5q1.359375 0 2.21875 0.6875q0.859375 0.671875 1.09375 1.9375l-1.359375 0.203125q-0.203125 -0.828125 -0.703125 -1.25q-0.484375 -0.421875 -1.1875 -0.421875q-1.0625 0 -1.734375 0.765625q-0.65625 0.75 -0.65625 2.40625q0 1.671875 0.640625 2.4375q0.640625 0.75 1.671875 0.75q0.828125 0 1.375 -0.5q0.5625 -0.515625 0.703125 -1.578125zm5.65625 1.78125l0.203125 1.25q-0.59375 0.125 -1.0625 0.125q-0.765625 0 -1.1875 -0.234375q-0.421875 -0.25 -0.59375 -0.640625q-0.171875 -0.40625 -0.171875 -1.671875l0 -4.765625l-1.03125 0l0 -1.09375l1.03125 0l0 -2.0625l1.40625 -0.84375l0 2.90625l1.40625 0l0 1.09375l-1.40625 0l0 4.84375q0 0.609375 0.0625 0.78125q0.078125 0.171875 0.25 0.28125q0.171875 0.09375 0.484375 0.09375q0.234375 0 0.609375 -0.0625zm1.3828125 -8.578125l0 -1.609375l1.40625 0l0 1.609375l-1.40625 0zm0 9.84375l0 -8.296875l1.40625 0l0 8.296875l-1.40625 0zm3.0234375 -4.15625q0 -2.296875 1.28125 -3.40625q1.078125 -0.921875 2.609375 -0.921875q1.71875 0 2.796875 1.125q1.09375 1.109375 1.09375 3.09375q0 1.59375 -0.484375 2.515625q-0.484375 0.921875 -1.40625 1.4375q-0.90625 0.5 -2.0 0.5q-1.734375 0 -2.8125 -1.109375q-1.078125 -1.125 -1.078125 -3.234375zm1.453125 0q0 1.59375 0.6875 2.390625q0.703125 0.796875 1.75 0.796875q1.046875 0 1.734375 -0.796875q0.703125 -0.796875 0.703125 -2.4375q0 -1.53125 -0.703125 -2.328125q-0.6875 -0.796875 -1.734375 -0.796875q-1.046875 0 -1.75 0.796875q-0.6875 0.78125 -0.6875 2.375zm7.9765625 4.15625l0 -8.296875l1.265625 0l0 1.171875q0.90625 -1.359375 2.640625 -1.359375q0.75 0 1.375 0.265625q0.625 0.265625 0.9375 0.703125q0.3125 0.4375 0.4375 1.046875q0.078125 0.390625 0.078125 1.359375l0 5.109375l-1.40625 0l0 -5.046875q0 -0.859375 -0.171875 -1.28125q-0.15625 -0.4375 -0.578125 -0.6875q-0.40625 -0.25 -0.96875 -0.25q-0.90625 0 -1.5625 0.578125q-0.640625 0.5625 -0.640625 2.15625l0 4.53125l-1.40625 0zm8.3359375 -2.484375l1.390625 -0.21875q0.109375 0.84375 0.640625 1.296875q0.546875 0.4375 1.5 0.4375q0.96875 0 1.4375 -0.390625q0.46875 -0.40625 0.46875 -0.9375q0 -0.46875 -0.40625 -0.75q-0.296875 -0.1875 -1.4375 -0.46875q-1.546875 -0.390625 -2.15625 -0.671875q-0.59375 -0.296875 -0.90625 -0.796875q-0.296875 -0.5 -0.296875 -1.109375q0 -0.5625 0.25 -1.03125q0.25 -0.46875 0.6875 -0.78125q0.328125 -0.25 0.890625 -0.40625q0.578125 -0.171875 1.21875 -0.171875q0.984375 0 1.71875 0.28125q0.734375 0.28125 1.078125 0.765625q0.359375 0.46875 0.5 1.28125l-1.375 0.1875q-0.09375 -0.640625 -0.546875 -1.0q-0.453125 -0.359375 -1.265625 -0.359375q-0.96875 0 -1.390625 0.328125q-0.40625 0.3125 -0.40625 0.734375q0 0.28125 0.171875 0.5q0.171875 0.21875 0.53125 0.375q0.21875 0.078125 1.25 0.359375q1.484375 0.390625 2.078125 0.65625q0.59375 0.25 0.921875 0.734375q0.34375 0.484375 0.34375 1.203125q0 0.703125 -0.421875 1.328125q-0.40625 0.609375 -1.1875 0.953125q-0.765625 0.34375 -1.734375 0.34375q-1.625 0 -2.46875 -0.671875q-0.84375 -0.671875 -1.078125 -2.0zm12.4765625 -1.671875q0 -2.296875 1.28125 -3.40625q1.078125 -0.921875 2.609375 -0.921875q1.71875 0 2.796875 1.125q1.09375 1.109375 1.09375 3.09375q0 1.59375 -0.484375 2.515625q-0.484375 0.921875 -1.40625 1.4375q-0.90625 0.5 -2.0 0.5q-1.734375 0 -2.8125 -1.109375q-1.078125 -1.125 -1.078125 -3.234375zm1.453125 0q0 1.59375 0.6875 2.390625q0.703125 0.796875 1.75 0.796875q1.046875 0 1.734375 -0.796875q0.703125 -0.796875 0.703125 -2.4375q0 -1.53125 -0.703125 -2.328125q-0.6875 -0.796875 -1.734375 -0.796875q-1.046875 0 -1.75 0.796875q-0.6875 0.78125 -0.6875 2.375zm7.9765625 4.15625l0 -8.296875l1.265625 0l0 1.171875q0.90625 -1.359375 2.640625 -1.359375q0.75 0 1.375 0.265625q0.625 0.265625 0.9375 0.703125q0.3125 0.4375 0.4375 1.046875q0.078125 0.390625 0.078125 1.359375l0 5.109375l-1.40625 0l0 -5.046875q0 -0.859375 -0.171875 -1.28125q-0.15625 -0.4375 -0.578125 -0.6875q-0.40625 -0.25 -0.96875 -0.25q-0.90625 0 -1.5625 0.578125q-0.640625 0.5625 -0.640625 2.15625l0 4.53125l-1.40625 0z" fill-rule="nonzero"/><path fill="#000000" d="m230.39375 519.60205l0.203125 1.25q-0.59375 0.125 -1.0625 0.125q-0.765625 0 -1.1875 -0.234375q-0.421875 -0.25 -0.59375 -0.640625q-0.171875 -0.40625 -0.171875 -1.671875l0 -4.765625l-1.03125 0l0 -1.09375l1.03125 0l0 -2.0624695l1.40625 -0.84375l0 2.9062195l1.40625 0l0 1.09375l-1.40625 0l0 4.84375q0 0.609375 0.0625 0.78125q0.078125 0.171875 0.25 0.28125q0.171875 0.09375 0.484375 0.09375q0.234375 0 0.609375 -0.0625zm1.3671875 1.265625l0 -8.296875l1.265625 0l0 1.25q0.484375 -0.875 0.890625 -1.15625q0.40625 -0.28125 0.90625 -0.28125q0.703125 0 1.4375 0.453125l-0.484375 1.296875q-0.515625 -0.296875 -1.03125 -0.296875q-0.453125 0 -0.828125 0.28125q-0.359375 0.265625 -0.515625 0.765625q-0.234375 0.75 -0.234375 1.640625l0 4.34375l-1.40625 0zm10.75 -1.03125q-0.78125 0.671875 -1.5 0.953125q-0.71875 0.265625 -1.546875 0.265625q-1.375 0 -2.109375 -0.671875q-0.734375 -0.671875 -0.734375 -1.703125q0 -0.609375 0.28125 -1.109375q0.28125 -0.515625 0.71875 -0.8125q0.453125 -0.3125 1.015625 -0.46875q0.421875 -0.109375 1.25 -0.203125q1.703125 -0.203125 2.515625 -0.484375q0 -0.296875 0 -0.375q0 -0.859375 -0.390625 -1.203125q-0.546875 -0.484375 -1.609375 -0.484375q-0.984375 0 -1.46875 0.359375q-0.46875 0.34375 -0.6875 1.21875l-1.375 -0.1875q0.1875 -0.875 0.609375 -1.421875q0.4375 -0.546875 1.25 -0.828125q0.8125 -0.296875 1.875 -0.296875q1.0625 0 1.71875 0.25q0.671875 0.25 0.984375 0.625q0.3125 0.375 0.4375 0.953125q0.078125 0.359375 0.078125 1.296875l0 1.875q0 1.96875 0.078125 2.484375q0.09375 0.515625 0.359375 1.0l-1.46875 0q-0.21875 -0.4375 -0.28125 -1.03125zm-0.109375 -3.140625q-0.765625 0.3125 -2.296875 0.53125q-0.875 0.125 -1.234375 0.28125q-0.359375 0.15625 -0.5625 0.46875q-0.1875 0.296875 -0.1875 0.65625q0 0.5625 0.421875 0.9375q0.4375 0.375 1.25 0.375q0.8125 0 1.4375 -0.34375q0.640625 -0.359375 0.9375 -0.984375q0.234375 -0.46875 0.234375 -1.40625l0 -0.515625zm3.6015625 -5.6718445l0 -1.609375l1.40625 0l0 1.609375l-1.40625 0zm0 9.8437195l0 -8.296875l1.40625 0l0 8.296875l-1.40625 0zm3.5546875 0l0 -8.296875l1.265625 0l0 1.171875q0.90625 -1.359375 2.640625 -1.359375q0.75 0 1.375 0.265625q0.625 0.265625 0.9375 0.703125q0.31251526 0.4375 0.43751526 1.046875q0.078125 0.390625 0.078125 1.359375l0 5.109375l-1.4062653 0l0 -5.046875q0 -0.859375 -0.171875 -1.28125q-0.15625 -0.4375 -0.578125 -0.6875q-0.40625 -0.25 -0.96875 -0.25q-0.90625 0 -1.5625 0.578125q-0.640625 0.5625 -0.640625 2.15625l0 4.53125l-1.40625 0zm8.898453 -9.8437195l0 -1.609375l1.40625 0l0 1.609375l-1.40625 0zm0 9.8437195l0 -8.296875l1.40625 0l0 8.296875l-1.40625 0zm3.5546875 0l0 -8.296875l1.265625 0l0 1.171875q0.90625 -1.359375 2.640625 -1.359375q0.75 0 1.375 0.265625q0.625 0.265625 0.9375 0.703125q0.3125 0.4375 0.4375 1.046875q0.078125 0.390625 0.078125 1.359375l0 5.109375l-1.40625 0l0 -5.046875q0 -0.859375 -0.171875 -1.28125q-0.15625 -0.4375 -0.578125 -0.6875q-0.40625 -0.25 -0.96875 -0.25q-0.90625 0 -1.5625 0.578125q-0.640625 0.5625 -0.640625 2.15625l0 4.53125l-1.40625 0zm8.6328125 0.6875l1.375 0.203125q0.078125 0.640625 0.46875 0.921875q0.53125 0.390625 1.4375 0.390625q0.96875 0 1.5 -0.390625q0.53125 -0.390625 0.71875 -1.09375q0.109375 -0.421875 0.109375 -1.8125q-0.921875 1.09375 -2.296875 1.09375q-1.71875 0 -2.65625 -1.234375q-0.9375 -1.234375 -0.9375 -2.96875q0 -1.1875 0.421875 -2.1875q0.4375 -1.0 1.25 -1.546875q0.828125 -0.546875 1.921875 -0.546875q1.46875 0 2.421875 1.1875l0 -1.0l1.296875 0l0 7.171875q0 1.9375 -0.390625 2.75q-0.390625 0.8125 -1.25 1.28125q-0.859375 0.46875 -2.109375 0.46875q-1.484375 0 -2.40625 -0.671875q-0.90625 -0.671875 -0.875 -2.015625zm1.171875 -4.984375q0 1.625 0.640625 2.375q0.65625 0.75 1.625 0.75q0.96875 0 1.625 -0.734375q0.65625 -0.75 0.65625 -2.34375q0 -1.53125 -0.671875 -2.296875q-0.671875 -0.78125 -1.625 -0.78125q-0.9375 0 -1.59375 0.765625q-0.65625 0.765625 -0.65625 2.265625zm11.875 1.8125l1.390625 -0.21875q0.109375 0.84375 0.640625 1.296875q0.546875 0.4375 1.5 0.4375q0.96875 0 1.4375 -0.390625q0.46875 -0.40625 0.46875 -0.9375q0 -0.46875 -0.40625 -0.75q-0.296875 -0.1875 -1.4375 -0.46875q-1.546875 -0.390625 -2.15625 -0.671875q-0.59375 -0.296875 -0.90625 -0.796875q-0.296875 -0.5 -0.296875 -1.109375q0 -0.5625 0.25 -1.03125q0.25 -0.46875 0.6875 -0.78125q0.328125 -0.25 0.890625 -0.40625q0.578125 -0.171875 1.21875 -0.171875q0.984375 0 1.71875 0.28125q0.734375 0.28125 1.078125 0.765625q0.359375 0.46875 0.5 1.28125l-1.375 0.1875q-0.09375 -0.640625 -0.546875 -1.0q-0.453125 -0.359375 -1.265625 -0.359375q-0.96875 0 -1.390625 0.328125q-0.40625 0.3125 -0.40625 0.734375q0 0.28125 0.171875 0.5q0.171875 0.21875 0.53125 0.375q0.21875 0.078125 1.25 0.359375q1.484375 0.390625 2.078125 0.65625q0.59375 0.25 0.921875 0.734375q0.34375 0.484375 0.34375 1.203125q0 0.703125 -0.421875 1.328125q-0.40625 0.609375 -1.1875 0.953125q-0.765625 0.34375 -1.734375 0.34375q-1.625 0 -2.46875 -0.671875q-0.84375 -0.671875 -1.078125 -2.0zm14.234375 -0.1875l1.453125 0.171875q-0.34375 1.28125 -1.28125 1.984375q-0.921875 0.703125 -2.359375 0.703125q-1.828125 0 -2.890625 -1.125q-1.0625 -1.125 -1.0625 -3.140625q0 -2.09375 1.078125 -3.25q1.078125 -1.15625 2.796875 -1.15625q1.65625 0 2.703125 1.140625q1.0625 1.125 1.0625 3.171875q0 0.125 0 0.375l-6.1875 0q0.078125 1.375 0.765625 2.109375q0.703125 0.71875 1.734375 0.71875q0.78125 0 1.328125 -0.40625q0.546875 -0.40625 0.859375 -1.296875zm-4.609375 -2.28125l4.625 0q-0.09375 -1.046875 -0.53125 -1.5625q-0.671875 -0.8125 -1.734375 -0.8125q-0.96875 0 -1.640625 0.65625q-0.65625 0.640625 -0.71875 1.71875zm10.8984375 3.6875l0.203125 1.25q-0.59375 0.125 -1.0625 0.125q-0.765625 0 -1.1875 -0.234375q-0.421875 -0.25 -0.59375 -0.640625q-0.171875 -0.40625 -0.171875 -1.671875l0 -4.765625l-1.03125 0l0 -1.09375l1.03125 0l0 -2.0624695l1.40625 -0.84375l0 2.9062195l1.40625 0l0 1.09375l-1.40625 0l0 4.84375q0 0.609375 0.0625 0.78125q0.078125 0.171875 0.25 0.28125q0.171875 0.09375 0.484375 0.09375q0.234375 0 0.609375 -0.0625z" fill-rule="nonzero"/><path fill="#000000" fill-opacity="0.0" d="m219.65628 13.112861l93.38583 0l0 37.16535l-93.38583 0z" fill-rule="evenodd"/><path fill="#000000" d="m233.94525 28.599112l1.109375 0l0 -0.578125q0 -0.953125 0.203125 -1.421875q0.21875 -0.484375 0.765625 -0.78125q0.546875 -0.296875 1.375 -0.296875q0.859375 0 1.6875 0.265625l-0.28125 1.390625q-0.46875 -0.109375 -0.921875 -0.109375q-0.4375 0 -0.625 0.203125q-0.1875 0.203125 -0.1875 0.78125l0 0.546875l1.5 0l0 1.578125l-1.5 0l0 6.015623l-2.015625 0l0 -6.015623l-1.109375 0l0 -1.578125zm5.7556458 -1.03125l0 -1.859375l2.015625 0l0 1.859375l-2.015625 0zm0 8.624998l0 -7.593748l2.015625 0l0 7.593748l-2.015625 0zm7.5563507 -7.593748l0 1.59375l-1.375 0l0 3.062498q0 0.9375 0.03125 1.09375q0.046875 0.140625 0.1875 0.25q0.140625 0.09375 0.34375 0.09375q0.28125 0 0.8125 -0.1875l0.171875 1.5625q-0.703125 0.296875 -1.59375 0.296875q-0.546875 0 -0.984375 -0.171875q-0.421875 -0.1875 -0.640625 -0.46875q-0.203125 -0.296875 -0.28125 -0.796875q-0.0625 -0.359375 -0.0625 -1.421875l0 -3.312498l-0.921875 0l0 -1.59375l0.921875 0l0 -1.515625l2.015625 -1.171875l0 2.6875l1.375 0z" fill-rule="nonzero"/><path fill="#000000" d="m252.64737 36.19286l0 -7.593748l1.15625 0l0 1.0625q0.34375 -0.5625 0.9375 -0.890625q0.609375 -0.34375 1.359375 -0.34375q0.84375 0 1.375 0.34375q0.546875 0.34375 0.765625 0.984375q0.90625 -1.328125 2.359375 -1.328125q1.125 0 1.734375 0.625q0.609375 0.625 0.609375 1.921875l0 5.218748l-1.28125 0l0 -4.781248q0 -0.78125 -0.125 -1.109375q-0.125 -0.34375 -0.453125 -0.546875q-0.328125 -0.21875 -0.78125 -0.21875q-0.796875 0 -1.328125 0.53125q-0.53125 0.53125 -0.53125 1.703125l0 4.421873l-1.28125 0l0 -4.937498q0 -0.859375 -0.3125 -1.28125q-0.3125 -0.4375 -1.03125 -0.4375q-0.546875 0 -1.015625 0.296875q-0.453125 0.28125 -0.671875 0.828125q-0.203125 0.546875 -0.203125 1.5937481l0 3.9375l-1.28125 0zm11.724396 -3.796875q0 -2.109373 1.171875 -3.124998q0.984375 -0.84375 2.390625 -0.84375q1.578125 0 2.5625 1.03125q1.0 1.015625 1.0 2.828123q0 1.46875 -0.4375 2.3125q-0.4375 0.828125 -1.28125 1.296875q-0.84375 0.46875 -1.84375 0.46875q-1.59375 0 -2.578125 -1.015625q-0.984375 -1.03125 -0.984375 -2.953125zm1.328125 0q0 1.453125 0.625 2.1875q0.640625 0.71875 1.609375 0.71875q0.96875 0 1.59375 -0.71875q0.640625 -0.734375 0.640625 -2.234375q0 -1.4062481 -0.640625 -2.124998q-0.640625 -0.734375 -1.59375 -0.734375q-0.96875 0 -1.609375 0.71875q-0.625 0.71875 -0.625 2.187498zm12.229248 3.796875l0 -0.953125q-0.71875 1.125 -2.125 1.125q-0.90625 0 -1.671875 -0.5q-0.75 -0.5 -1.171875 -1.390625q-0.421875 -0.90625 -0.421875 -2.078125q0 -1.1406231 0.375 -2.062498q0.390625 -0.921875 1.140625 -1.40625q0.765625 -0.5 1.703125 -0.5q0.6875 0 1.21875 0.296875q0.53125 0.28125 0.875 0.734375l0 -3.75l1.28125 0l0 10.484373l-1.203125 0zm-4.0625 -3.796875q0 1.46875 0.609375 2.1875q0.625 0.71875 1.453125 0.71875q0.84375 0 1.4375 -0.6875q0.59375 -0.6875 0.59375 -2.109375q0 -1.5624981 -0.609375 -2.281248q-0.59375 -0.734375 -1.484375 -0.734375q-0.84375 0 -1.421875 0.703125q-0.578125 0.703125 -0.578125 2.203123zm12.494843 1.34375l1.328125 0.171875q-0.3125 1.171875 -1.171875 1.8125q-0.84375 0.640625 -2.171875 0.640625q-1.671875 0 -2.65625 -1.015625q-0.96875 -1.03125 -0.96875 -2.890625q0 -1.9218731 0.984375 -2.968748q1.0 -1.0625 2.578125 -1.0625q1.515625 0 2.484375 1.03125q0.96875 1.03125 0.96875 2.921873q0 0.109375 -0.015625 0.34375l-5.65625 0q0.0625 1.25 0.703125 1.921875q0.640625 0.65625 1.59375 0.65625q0.703125 0 1.203125 -0.359375q0.5 -0.375 0.796875 -1.203125zm-4.234375 -2.078123l4.25 0q-0.09375 -0.953125 -0.484375 -1.4375q-0.625 -0.75 -1.609375 -0.75q-0.875 0 -1.484375 0.59375q-0.609375 0.59375 -0.671875 1.59375zm7.151123 4.531248l0 -10.484373l1.28125 0l0 10.484373l-1.28125 0zm2.771759 -2.265625l1.265625 -0.203125q0.109375 0.765625 0.59375 1.171875q0.5 0.40625 1.375 0.40625q0.890625 0 1.3125 -0.359375q0.4375 -0.359375 0.4375 -0.84375q0 -0.4375 -0.375 -0.6875q-0.265625 -0.171875 -1.3125 -0.4375q-1.421875 -0.359375 -1.96875 -0.609375q-0.546875 -0.265625 -0.828125 -0.7343731q-0.28125 -0.46875 -0.28125 -1.015625q0 -0.515625 0.21875 -0.9375q0.234375 -0.4375 0.640625 -0.734375q0.296875 -0.21875 0.8125 -0.359375q0.53125 -0.15625 1.125 -0.15625q0.890625 0 1.5625 0.265625q0.671875 0.25 1.0 0.6875q0.328125 0.4375 0.4375 1.171875l-1.25 0.171875q-0.09375 -0.578125 -0.5 -0.90625q-0.40625 -0.34375 -1.15625 -0.34375q-0.890625 0 -1.28125 0.296875q-0.375 0.296875 -0.375 0.6875q0 0.25 0.15625 0.453125q0.15625 0.203125 0.5 0.34375q0.1875 0.078125 1.140625 0.328125q1.359375 0.359375 1.890625 0.5937481q0.546875 0.234375 0.859375 0.6875q0.3125 0.4375 0.3125 1.09375q0 0.640625 -0.375 1.21875q-0.375 0.5625 -1.09375 0.875q-0.703125 0.3125 -1.59375 0.3125q-1.484375 0 -2.265625 -0.609375q-0.765625 -0.625 -0.984375 -1.828125z" fill-rule="nonzero"/><path fill="#000000" fill-opacity="0.0" d="m161.17815 385.32434l127.65355 0l0 37.165344l-127.65355 0z" fill-rule="evenodd"/><path fill="#000000" d="m178.11969 408.40433l0 -1.140625q-0.40625 0.609375 -1.09375 0.96875q-0.671875 0.34375 -1.421875 0.34375q-0.765625 0 -1.375 -0.328125q-0.609375 -0.34375 -0.875 -0.953125q-0.265625 -0.609375 -0.265625 -1.6875l0 -4.796875l2.0 0l0 3.484375q0 1.609375 0.109375 1.96875q0.109375 0.359375 0.40625 0.578125q0.296875 0.203125 0.75 0.203125q0.515625 0 0.921875 -0.28125q0.40625 -0.28125 0.546875 -0.703125q0.15625 -0.421875 0.15625 -2.046875l0 -3.203125l2.015625 0l0 7.59375l-1.875 0zm10.874496 0l-2.015625 0l0 -3.875q0 -1.234375 -0.125 -1.59375q-0.125 -0.359375 -0.421875 -0.5625q-0.296875 -0.203125 -0.703125 -0.203125q-0.515625 0 -0.9375 0.296875q-0.40625 0.28125 -0.5625 0.75q-0.15625 0.46875 -0.15625 1.75l0 3.4375l-2.015625 0l0 -7.59375l1.875 0l0 1.109375q1.0 -1.28125 2.5 -1.28125q0.671875 0 1.21875 0.234375q0.546875 0.234375 0.828125 0.609375q0.296875 0.375 0.40625 0.84375q0.109375 0.46875 0.109375 1.359375l0 4.71875zm8.999496 0l-1.859375 0l0 -1.109375q-0.46875 0.640625 -1.109375 0.96875q-0.625 0.3125 -1.265625 0.3125q-1.3125 0 -2.25 -1.046875q-0.9375 -1.0625 -0.9375 -2.953125q0 -1.9375 0.90625 -2.9375q0.921875 -1.0 2.3125 -1.0q1.265625 0 2.203125 1.046875l0 -3.765625l2.0 0l0 10.484375zm-5.359375 -3.96875q0 1.21875 0.328125 1.765625q0.5 0.78125 1.359375 0.78125q0.703125 0 1.1875 -0.578125q0.484375 -0.59375 0.484375 -1.765625q0 -1.3125 -0.46875 -1.890625q-0.46875 -0.578125 -1.203125 -0.578125q-0.71875 0 -1.203125 0.578125q-0.484375 0.5625 -0.484375 1.6875zm11.749496 1.546875l2.0 0.34375q-0.375 1.09375 -1.21875 1.671875q-0.828125 0.578125 -2.078125 0.578125q-1.984375 0 -2.9375 -1.296875q-0.75 -1.03125 -0.75 -2.625q0 -1.875 0.984375 -2.9375q0.984375 -1.078125 2.5 -1.078125q1.6875 0 2.671875 1.125q0.984375 1.109375 0.9375 3.421875l-5.03125 0q0.015625 0.890625 0.484375 1.390625q0.46875 0.5 1.15625 0.5q0.46875 0 0.78125 -0.25q0.328125 -0.265625 0.5 -0.84375zm0.109375 -2.03125q-0.015625 -0.875 -0.453125 -1.328125q-0.421875 -0.453125 -1.03125 -0.453125q-0.671875 0 -1.09375 0.484375q-0.421875 0.46875 -0.421875 1.296875l3.0 0zm5.572983 4.453125l-2.015625 0l0 -7.59375l1.859375 0l0 1.078125q0.484375 -0.765625 0.859375 -1.0q0.390625 -0.25 0.875 -0.25q0.6875 0 1.328125 0.375l-0.625 1.75q-0.5 -0.328125 -0.9375 -0.328125q-0.421875 0 -0.71875 0.234375q-0.296875 0.234375 -0.46875 0.84375q-0.15625 0.609375 -0.15625 2.546875l0 2.34375zm2.8911285 -7.59375l1.109375 0l0 -0.578125q0 -0.953125 0.203125 -1.421875q0.21875 -0.484375 0.765625 -0.78125q0.546875 -0.296875 1.375 -0.296875q0.859375 0 1.6875 0.265625l-0.28125 1.390625q-0.46875 -0.109375 -0.921875 -0.109375q-0.4375 0 -0.625 0.203125q-0.1875 0.203125 -0.1875 0.78125l0 0.546875l1.5 0l0 1.578125l-1.5 0l0 6.015625l-2.015625 0l0 -6.015625l-1.109375 0l0 -1.578125zm5.7556458 -1.03125l0 -1.859375l2.015625 0l0 1.859375l-2.015625 0zm0 8.625l0 -7.59375l2.015625 0l0 7.59375l-2.015625 0zm7.5563507 -7.59375l0 1.59375l-1.375 0l0 3.0625q0 0.9375 0.03125 1.09375q0.046875 0.140625 0.1875 0.25q0.140625 0.09375 0.34375 0.09375q0.28125 0 0.8125 -0.1875l0.171875 1.5625q-0.703125 0.296875 -1.59375 0.296875q-0.546875 0 -0.984375 -0.171875q-0.421875 -0.1875 -0.640625 -0.46875q-0.203125 -0.296875 -0.28125 -0.796875q-0.0625 -0.359375 -0.0625 -1.421875l0 -3.3125l-0.921875 0l0 -1.59375l0.921875 0l0 -1.515625l2.015625 -1.171875l0 2.6875l1.375 0z" fill-rule="nonzero"/><path fill="#000000" d="m231.65941 408.40433l0 -7.59375l1.15625 0l0 1.0625q0.34375 -0.5625 0.9375 -0.890625q0.609375 -0.34375 1.359375 -0.34375q0.84375 0 1.375 0.34375q0.546875 0.34375 0.765625 0.984375q0.90625 -1.328125 2.359375 -1.328125q1.125 0 1.734375 0.625q0.609375 0.625 0.609375 1.921875l0 5.21875l-1.28125 0l0 -4.78125q0 -0.78125 -0.125 -1.109375q-0.125 -0.34375 -0.453125 -0.546875q-0.328125 -0.21875 -0.78125 -0.21875q-0.796875 0 -1.328125 0.53125q-0.53125 0.53125 -0.53125 1.703125l0 4.421875l-1.28125 0l0 -4.9375q0 -0.859375 -0.3125 -1.28125q-0.3125 -0.4375 -1.03125 -0.4375q-0.546875 0 -1.015625 0.296875q-0.453125 0.28125 -0.671875 0.828125q-0.203125 0.546875 -0.203125 1.59375l0 3.9375l-1.28125 0zm11.724396 -3.796875q0 -2.109375 1.171875 -3.125q0.984375 -0.84375 2.390625 -0.84375q1.578125 0 2.5625 1.03125q1.0 1.015625 1.0 2.828125q0 1.46875 -0.4375 2.3125q-0.4375 0.828125 -1.28125 1.296875q-0.84375 0.46875 -1.84375 0.46875q-1.59375 0 -2.578125 -1.015625q-0.984375 -1.03125 -0.984375 -2.953125zm1.328125 0q0 1.453125 0.625 2.1875q0.640625 0.71875 1.609375 0.71875q0.96875 0 1.59375 -0.71875q0.640625 -0.734375 0.640625 -2.234375q0 -1.40625 -0.640625 -2.125q-0.640625 -0.734375 -1.59375 -0.734375q-0.96875 0 -1.609375 0.71875q-0.625 0.71875 -0.625 2.1875zm12.229233 3.796875l0 -0.953125q-0.71875 1.125 -2.125 1.125q-0.90625 0 -1.671875 -0.5q-0.75 -0.5 -1.171875 -1.390625q-0.421875 -0.90625 -0.421875 -2.078125q0 -1.140625 0.375 -2.0625q0.390625 -0.921875 1.140625 -1.40625q0.765625 -0.5 1.703125 -0.5q0.6875 0 1.21875 0.296875q0.53125 0.28125 0.875 0.734375l0 -3.75l1.28125 0l0 10.484375l-1.203125 0zm-4.0625 -3.796875q0 1.46875 0.609375 2.1875q0.625 0.71875 1.453125 0.71875q0.84375 0 1.4375 -0.6875q0.59375 -0.6875 0.59375 -2.109375q0 -1.5625 -0.609375 -2.28125q-0.59375 -0.734375 -1.484375 -0.734375q-0.84375 0 -1.421875 0.703125q-0.578125 0.703125 -0.578125 2.203125zm12.494873 1.34375l1.328125 0.171875q-0.3125 1.171875 -1.171875 1.8125q-0.84375 0.640625 -2.171875 0.640625q-1.671875 0 -2.65625 -1.015625q-0.96875 -1.03125 -0.96875 -2.890625q0 -1.921875 0.984375 -2.96875q1.0 -1.0625 2.578125 -1.0625q1.515625 0 2.484375 1.03125q0.96875 1.03125 0.96875 2.921875q0 0.109375 -0.015625 0.34375l-5.65625 0q0.0625 1.25 0.703125 1.921875q0.640625 0.65625 1.59375 0.65625q0.703125 0 1.203125 -0.359375q0.5 -0.375 0.796875 -1.203125zm-4.234375 -2.078125l4.25 0q-0.09375 -0.953125 -0.484375 -1.4375q-0.625 -0.75 -1.609375 -0.75q-0.875 0 -1.484375 0.59375q-0.609375 0.59375 -0.671875 1.59375zm7.1510925 4.53125l0 -10.484375l1.28125 0l0 10.484375l-1.28125 0zm2.7717896 -2.265625l1.265625 -0.203125q0.109375 0.765625 0.59375 1.171875q0.5 0.40625 1.375 0.40625q0.890625 0 1.3125 -0.359375q0.4375 -0.359375 0.4375 -0.84375q0 -0.4375 -0.375 -0.6875q-0.265625 -0.171875 -1.3125 -0.4375q-1.421875 -0.359375 -1.96875 -0.609375q-0.546875 -0.265625 -0.828125 -0.734375q-0.28125 -0.46875 -0.28125 -1.015625q0 -0.515625 0.21875 -0.9375q0.234375 -0.4375 0.640625 -0.734375q0.296875 -0.21875 0.8125 -0.359375q0.53125 -0.15625 1.125 -0.15625q0.890625 0 1.5625 0.265625q0.671875 0.25 1.0 0.6875q0.328125 0.4375 0.4375 1.171875l-1.25 0.171875q-0.09375 -0.578125 -0.5 -0.90625q-0.40625 -0.34375 -1.15625 -0.34375q-0.890625 0 -1.28125 0.296875q-0.375 0.296875 -0.375 0.6875q0 0.25 0.15625 0.453125q0.15625 0.203125 0.5 0.34375q0.1875 0.078125 1.140625 0.328125q1.359375 0.359375 1.890625 0.59375q0.546875 0.234375 0.859375 0.6875q0.3125 0.4375 0.3125 1.09375q0 0.640625 -0.375 1.21875q-0.375 0.5625 -1.09375 0.875q-0.703125 0.3125 -1.59375 0.3125q-1.484375 0 -2.265625 -0.609375q-0.765625 -0.625 -0.984375 -1.828125z" fill-rule="nonzero"/><path fill="#000000" fill-opacity="0.0" d="m462.4181 385.32434l118.6142 0l0 37.165344l-118.6142 0z" fill-rule="evenodd"/><path fill="#000000" d="m474.2639 404.49808q0 -1.0 0.484375 -1.9375q0.5 -0.9375 1.40625 -1.421875q0.90625 -0.5 2.015625 -0.5q1.71875 0 2.828125 1.125q1.109375 1.109375 1.109375 2.8125q0 1.734375 -1.125 2.875q-1.109375 1.125 -2.796875 1.125q-1.046875 0 -2.0 -0.46875q-0.9375 -0.46875 -1.4375 -1.375q-0.484375 -0.921875 -0.484375 -2.234375zm2.046875 0.109375q0 1.125 0.53125 1.734375q0.546875 0.59375 1.34375 0.59375q0.78125 0 1.3125 -0.59375q0.53125 -0.609375 0.53125 -1.75q0 -1.125 -0.53125 -1.71875q-0.53125 -0.609375 -1.3125 -0.609375q-0.796875 0 -1.34375 0.609375q-0.53125 0.59375 -0.53125 1.734375zm9.452606 3.796875l-3.0625 -7.59375l2.109375 0l1.4375 3.875l0.40625 1.296875q0.171875 -0.5 0.21875 -0.65625q0.09375 -0.328125 0.203125 -0.640625l1.453125 -3.875l2.0625 0l-3.015625 7.59375l-1.8125 0zm10.463623 -2.421875l2.0 0.34375q-0.375 1.09375 -1.21875 1.671875q-0.828125 0.578125 -2.078125 0.578125q-1.984375 0 -2.9375 -1.296875q-0.75 -1.03125 -0.75 -2.625q0 -1.875 0.984375 -2.9375q0.984375 -1.078125 2.5 -1.078125q1.6875 0 2.671875 1.125q0.984375 1.109375 0.9375 3.421875l-5.03125 0q0.015625 0.890625 0.484375 1.390625q0.46875 0.5 1.15625 0.5q0.46875 0 0.78125 -0.25q0.328125 -0.265625 0.5 -0.84375zm0.109375 -2.03125q-0.015625 -0.875 -0.453125 -1.328125q-0.421875 -0.453125 -1.03125 -0.453125q-0.671875 0 -1.09375 0.484375q-0.421875 0.46875 -0.421875 1.296875l3.0 0zm5.5729675 4.453125l-2.015625 0l0 -7.59375l1.859375 0l0 1.078125q0.484375 -0.765625 0.859375 -1.0q0.390625 -0.25 0.875 -0.25q0.6875 0 1.328125 0.375l-0.625 1.75q-0.5 -0.328125 -0.9375 -0.328125q-0.421875 0 -0.71875 0.234375q-0.296875 0.234375 -0.46875 0.84375q-0.15625 0.609375 -0.15625 2.546875l0 2.34375zm2.8911438 -7.59375l1.109375 0l0 -0.578125q0 -0.953125 0.203125 -1.421875q0.21875 -0.484375 0.765625 -0.78125q0.546875 -0.296875 1.375 -0.296875q0.859375 0 1.6875 0.265625l-0.28125 1.390625q-0.46875 -0.109375 -0.921875 -0.109375q-0.4375 0 -0.625 0.203125q-0.1875 0.203125 -0.1875 0.78125l0 0.546875l1.5 0l0 1.578125l-1.5 0l0 6.015625l-2.015625 0l0 -6.015625l-1.109375 0l0 -1.578125zm5.7556458 -1.03125l0 -1.859375l2.0155945 0l0 1.859375l-2.0155945 0zm0 8.625l0 -7.59375l2.0155945 0l0 7.59375l-2.0155945 0zm7.556366 -7.59375l0 1.59375l-1.375 0l0 3.0625q0 0.9375 0.03125 1.09375q0.046875 0.140625 0.1875 0.25q0.140625 0.09375 0.34375 0.09375q0.28125 0 0.8125 -0.1875l0.171875 1.5625q-0.703125 0.296875 -1.59375 0.296875q-0.546875 0 -0.984375 -0.171875q-0.421875 -0.1875 -0.640625 -0.46875q-0.203125 -0.296875 -0.28125 -0.796875q-0.0625 -0.359375 -0.0625 -1.421875l0 -3.3125l-0.921875 0l0 -1.59375l0.921875 0l0 -1.515625l2.015625 -1.171875l0 2.6875l1.375 0z" fill-rule="nonzero"/><path fill="#000000" d="m523.50256 408.40433l0 -7.59375l1.15625 0l0 1.0625q0.34375 -0.5625 0.9375 -0.890625q0.609375 -0.34375 1.359375 -0.34375q0.84375 0 1.375 0.34375q0.546875 0.34375 0.765625 0.984375q0.90625 -1.328125 2.359375 -1.328125q1.125 0 1.734375 0.625q0.609375 0.625 0.609375 1.921875l0 5.21875l-1.28125 0l0 -4.78125q0 -0.78125 -0.125 -1.109375q-0.125 -0.34375 -0.453125 -0.546875q-0.328125 -0.21875 -0.78125 -0.21875q-0.796875 0 -1.328125 0.53125q-0.53125 0.53125 -0.53125 1.703125l0 4.421875l-1.28125 0l0 -4.9375q0 -0.859375 -0.3125 -1.28125q-0.3125 -0.4375 -1.03125 -0.4375q-0.546875 0 -1.015625 0.296875q-0.453125 0.28125 -0.671875 0.828125q-0.203125 0.546875 -0.203125 1.59375l0 3.9375l-1.28125 0zm11.724426 -3.796875q0 -2.109375 1.171875 -3.125q0.984375 -0.84375 2.390625 -0.84375q1.578125 0 2.5625 1.03125q1.0 1.015625 1.0 2.828125q0 1.46875 -0.4375 2.3125q-0.4375 0.828125 -1.28125 1.296875q-0.84375 0.46875 -1.84375 0.46875q-1.59375 0 -2.578125 -1.015625q-0.984375 -1.03125 -0.984375 -2.953125zm1.328125 0q0 1.453125 0.625 2.1875q0.640625 0.71875 1.609375 0.71875q0.96875 0 1.59375 -0.71875q0.640625 -0.734375 0.640625 -2.234375q0 -1.40625 -0.640625 -2.125q-0.640625 -0.734375 -1.59375 -0.734375q-0.96875 0 -1.609375 0.71875q-0.625 0.71875 -0.625 2.1875zm12.229248 3.796875l0 -0.953125q-0.71875 1.125 -2.125 1.125q-0.90625 0 -1.671875 -0.5q-0.75 -0.5 -1.171875 -1.390625q-0.421875 -0.90625 -0.421875 -2.078125q0 -1.140625 0.375 -2.0625q0.390625 -0.921875 1.140625 -1.40625q0.765625 -0.5 1.703125 -0.5q0.6875 0 1.21875 0.296875q0.53125 0.28125 0.875 0.734375l0 -3.75l1.28125 0l0 10.484375l-1.203125 0zm-4.0625 -3.796875q0 1.46875 0.609375 2.1875q0.625 0.71875 1.453125 0.71875q0.84375 0 1.4375 -0.6875q0.59375 -0.6875 0.59375 -2.109375q0 -1.5625 -0.609375 -2.28125q-0.59375 -0.734375 -1.484375 -0.734375q-0.84375 0 -1.421875 0.703125q-0.578125 0.703125 -0.578125 2.203125zm12.494812 1.34375l1.328125 0.171875q-0.3125 1.171875 -1.171875 1.8125q-0.84375 0.640625 -2.171875 0.640625q-1.671875 0 -2.65625 -1.015625q-0.96875 -1.03125 -0.96875 -2.890625q0 -1.921875 0.984375 -2.96875q1.0 -1.0625 2.578125 -1.0625q1.515625 0 2.484375 1.03125q0.96875 1.03125 0.96875 2.921875q0 0.109375 -0.015625 0.34375l-5.65625 0q0.0625 1.25 0.703125 1.921875q0.640625 0.65625 1.59375 0.65625q0.703125 0 1.203125 -0.359375q0.5 -0.375 0.796875 -1.203125zm-4.234375 -2.078125l4.25 0q-0.09375 -0.953125 -0.484375 -1.4375q-0.625 -0.75 -1.609375 -0.75q-0.875 0 -1.484375 0.59375q-0.609375 0.59375 -0.671875 1.59375zm7.151123 4.53125l0 -10.484375l1.28125 0l0 10.484375l-1.28125 0zm2.7717896 -2.265625l1.265625 -0.203125q0.109375 0.765625 0.59375 1.171875q0.5 0.40625 1.375 0.40625q0.890625 0 1.3125 -0.359375q0.4375 -0.359375 0.4375 -0.84375q0 -0.4375 -0.375 -0.6875q-0.265625 -0.171875 -1.3125 -0.4375q-1.421875 -0.359375 -1.96875 -0.609375q-0.546875 -0.265625 -0.828125 -0.734375q-0.28125 -0.46875 -0.28125 -1.015625q0 -0.515625 0.21875 -0.9375q0.234375 -0.4375 0.640625 -0.734375q0.296875 -0.21875 0.8125 -0.359375q0.53125 -0.15625 1.125 -0.15625q0.890625 0 1.5625 0.265625q0.671875 0.25 1.0 0.6875q0.328125 0.4375 0.4375 1.171875l-1.25 0.171875q-0.09375 -0.578125 -0.5 -0.90625q-0.40625 -0.34375 -1.15625 -0.34375q-0.890625 0 -1.28125 0.296875q-0.375 0.296875 -0.375 0.6875q0 0.25 0.15625 0.453125q0.15625 0.203125 0.5 0.34375q0.1875 0.078125 1.140625 0.328125q1.359375 0.359375 1.890625 0.59375q0.546875 0.234375 0.859375 0.6875q0.3125 0.4375 0.3125 1.09375q0 0.640625 -0.375 1.21875q-0.375 0.5625 -1.09375 0.875q-0.703125 0.3125 -1.59375 0.3125q-1.484375 0 -2.265625 -0.609375q-0.765625 -0.625 -0.984375 -1.828125z" fill-rule="nonzero"/><path fill="#ffff00" d="m516.80664 392.86877l0 -19.87445l-57.906372 0l0 4.0319214l-7.9212646 -7.9212646l7.9212646 -7.9212646l0 4.0319214l65.68506 0l0 27.653137z" fill-rule="evenodd"/><path stroke="#000000" stroke-width="1.0" stroke-linejoin="round" stroke-linecap="butt" d="m516.80664 392.86877l0 -19.87445l-57.906372 0l0 4.0319214l-7.9212646 -7.9212646l7.9212646 -7.9212646l0 4.0319214l65.68506 0l0 27.653137z" fill-rule="evenodd"/><path fill="#ffff00" d="m262.62793 43.026493l0 39.54331l3.645691 0l-7.2913513 7.291336l-7.291336 -7.291336l3.6456604 0l0 -39.54331z" fill-rule="evenodd"/><path stroke="#000000" stroke-width="1.0" stroke-linejoin="round" stroke-linecap="butt" d="m262.62793 43.026493l0 39.54331l3.645691 0l-7.2913513 7.291336l-7.291336 -7.291336l3.6456604 0l0 -39.54331z" fill-rule="evenodd"/><path fill="#ffff00" d="m220.80663 392.86877l0 -19.87445l-57.906357 0l0 4.0319214l-7.9212646 -7.9212646l7.9212646 -7.9212646l0 4.0319214l65.68503 0l0 27.653137z" fill-rule="evenodd"/><path stroke="#000000" stroke-width="1.0" stroke-linejoin="round" stroke-linecap="butt" d="m220.80663 392.86877l0 -19.87445l-57.906357 0l0 4.0319214l-7.9212646 -7.9212646l7.9212646 -7.9212646l0 4.0319214l65.68503 0l0 27.653137z" fill-rule="evenodd"/></g></svg>