<svg version="1.1" viewBox="0.0 0.0 737.2808398950132 290.9212598425197" fill="none" stroke="none" stroke-linecap="square" stroke-miterlimit="10" xmlns:xlink="http://www.w3.org/1999/xlink" xmlns="http://www.w3.org/2000/svg"><clipPath id="p.0"><path d="m0 0l737.2808 0l0 290.92126l-737.2808 0l0 -290.92126z" clip-rule="nonzero"/></clipPath><g clip-path="url(#p.0)"><path fill="#000000" fill-opacity="0.0" d="m0 0l737.2808 0l0 290.92126l-737.2808 0z" fill-rule="evenodd"/><path fill="#999999" d="m22.457994 224.97285l0 0c0 -6.897049 6.02124 -12.48819 13.44882 -12.48819l0 0c7.427574 0 13.448818 5.5911407 13.448818 12.48819l0 0c0 6.8970337 -6.021244 12.488174 -13.448818 12.488174l0 0c-7.42758 0 -13.44882 -5.5911407 -13.44882 -12.488174z" fill-rule="evenodd"/><path fill="#000000" fill-opacity="0.0" d="m351.92334 32.976368l-316.0315 179.49606" fill-rule="evenodd"/><path stroke="#999999" stroke-width="1.0" stroke-linejoin="round" stroke-linecap="butt" d="m351.92334 32.976368l-316.0315 179.49606" fill-rule="evenodd"/><path fill="#999999" d="m158.78882 224.97191l0 0c0 -6.897049 6.02124 -12.48819 13.448822 -12.48819l0 0c7.427582 0 13.448822 5.5911407 13.448822 12.48819l0 0c0 6.8970337 -6.02124 12.48819 -13.448822 12.48819l0 0c-7.427582 0 -13.448822 -5.591156 -13.448822 -12.48819z" fill-rule="evenodd"/><path fill="#999999" d="m295.11966 224.97191l0 0c0 -6.897049 6.02124 -12.48819 13.448822 -12.48819l0 0c7.427582 0 13.448822 5.5911407 13.448822 12.48819l0 0c0 6.8970337 -6.02124 12.48819 -13.448822 12.48819l0 0c-7.427582 0 -13.448822 -5.591156 -13.448822 -12.48819z" fill-rule="evenodd"/><path fill="#999999" d="m363.28506 224.97191l0 0c0 -6.897049 6.02124 -12.48819 13.448822 -12.48819l0 0c7.427582 0 13.448822 5.5911407 13.448822 12.48819l0 0c0 6.8970337 -6.02124 12.48819 -13.448822 12.48819l0 0c-7.427582 0 -13.448822 -5.591156 -13.448822 -12.48819z" fill-rule="evenodd"/><path fill="#000000" fill-opacity="0.0" d="m351.92334 32.976368l-179.68503 179.49606" fill-rule="evenodd"/><path stroke="#999999" stroke-width="1.0" stroke-linejoin="round" stroke-linecap="butt" d="m351.92334 32.976368l-179.68503 179.49606" fill-rule="evenodd"/><path fill="#000000" fill-opacity="0.0" d="m351.92334 32.976368l24.818909 179.49606" fill-rule="evenodd"/><path stroke="#999999" stroke-width="1.0" stroke-linejoin="round" stroke-linecap="butt" d="m351.92334 32.976368l24.818909 179.49606" fill-rule="evenodd"/><path fill="#000000" fill-opacity="0.0" d="m351.92334 32.976368l-43.370056 179.49606" fill-rule="evenodd"/><path stroke="#999999" stroke-width="1.0" stroke-linejoin="round" stroke-linecap="butt" d="m351.92334 32.976368l-43.370056 179.49606" fill-rule="evenodd"/><path fill="#999999" d="m499.6159 223.26875l0 0c0 -6.8970337 6.02124 -12.48819 13.4487915 -12.48819l0 0c7.4276123 0 13.448853 5.591156 13.448853 12.48819l0 0c0 6.8970337 -6.02124 12.48819 -13.448853 12.48819l0 0c-7.4275513 0 -13.4487915 -5.591156 -13.4487915 -12.48819z" fill-rule="evenodd"/><path fill="#d9d9d9" d="m635.9467 224.9748l0 0c0 -6.8970337 6.02124 -12.48819 13.448853 -12.48819l0 0c7.4275513 0 13.4487915 5.591156 13.4487915 12.48819l0 0c0 6.8970337 -6.02124 12.48819 -13.4487915 12.48819l0 0c-7.4276123 0 -13.448853 -5.591156 -13.448853 -12.48819z" fill-rule="evenodd"/><path fill="#000000" fill-opacity="0.0" d="m351.92334 32.976368l161.13385 177.79527" fill-rule="evenodd"/><path stroke="#999999" stroke-width="1.0" stroke-linejoin="round" stroke-linecap="butt" d="m351.92334 32.976368l161.13385 177.79527" fill-rule="evenodd"/><path fill="#000000" fill-opacity="0.0" d="m351.92334 32.976368l297.48035 179.49606" fill-rule="evenodd"/><path stroke="#999999" stroke-width="1.0" stroke-linejoin="round" stroke-linecap="butt" d="m351.92334 32.976368l297.48035 179.49606" fill-rule="evenodd"/><path fill="#f1c232" d="m338.47455 20.48818l0 0c0 -6.8970366 6.02124 -12.48819 13.4487915 -12.48819l0 0c7.427582 0 13.448822 5.5911527 13.448822 12.48819l0 0c0 6.8970356 -6.02124 12.488188 -13.448822 12.488188l0 0c-7.4275513 0 -13.4487915 -5.591152 -13.4487915 -12.488188z" fill-rule="evenodd"/><path fill="#999999" d="m90.623405 224.97473l0 0c0 -6.8970337 6.021248 -12.48819 13.448822 -12.48819l0 0c7.427582 0 13.448822 5.591156 13.448822 12.48819l0 0c0 6.897049 -6.02124 12.48819 -13.448822 12.48819l0 0c-7.427574 0 -13.448822 -5.5911407 -13.448822 -12.48819z" fill-rule="evenodd"/><path fill="#000000" fill-opacity="0.0" d="m351.92334 32.976368l-247.8425 179.49606" fill-rule="evenodd"/><path stroke="#999999" stroke-width="1.0" stroke-linejoin="round" stroke-linecap="butt" d="m351.92334 32.976368l-247.8425 179.49606" fill-rule="evenodd"/><path fill="#999999" d="m226.95424 224.97191l0 0c0 -6.897049 6.02124 -12.48819 13.448822 -12.48819l0 0c7.427582 0 13.448822 5.5911407 13.448822 12.48819l0 0c0 6.8970337 -6.02124 12.48819 -13.448822 12.48819l0 0c-7.427582 0 -13.448822 -5.591156 -13.448822 -12.48819z" fill-rule="evenodd"/><path fill="#000000" fill-opacity="0.0" d="m351.92334 32.976368l-111.52754 179.49606" fill-rule="evenodd"/><path stroke="#999999" stroke-width="1.0" stroke-linejoin="round" stroke-linecap="butt" d="m351.92334 32.976368l-111.52754 179.49606" fill-rule="evenodd"/><path fill="#999999" d="m431.45047 224.97191l0 0c0 -6.897049 6.0212708 -12.48819 13.448822 -12.48819l0 0c7.427582 0 13.448822 5.5911407 13.448822 12.48819l0 0c0 6.8970337 -6.02124 12.48819 -13.448822 12.48819l0 0c-7.4275513 0 -13.448822 -5.591156 -13.448822 -12.48819z" fill-rule="evenodd"/><path fill="#000000" fill-opacity="0.0" d="m351.92334 32.976368l92.97638 179.49606" fill-rule="evenodd"/><path stroke="#999999" stroke-width="1.0" stroke-linejoin="round" stroke-linecap="butt" d="m351.92334 32.976368l92.97638 179.49606" fill-rule="evenodd"/><path fill="#d9d9d9" d="m567.7813 223.26875l0 0c0 -6.8970337 6.02124 -12.48819 13.448853 -12.48819l0 0c7.4275513 0 13.4487915 5.591156 13.4487915 12.48819l0 0c0 6.8970337 -6.02124 12.48819 -13.4487915 12.48819l0 0c-7.4276123 0 -13.448853 -5.591156 -13.448853 -12.48819z" fill-rule="evenodd"/><path fill="#000000" fill-opacity="0.0" d="m351.92334 32.976368l229.29138 177.79527" fill-rule="evenodd"/><path stroke="#999999" stroke-width="1.0" stroke-linejoin="round" stroke-linecap="butt" d="m351.92334 32.976368l229.29138 177.79527" fill-rule="evenodd"/><path fill="#000000" fill-opacity="0.0" d="m7.952756 249.61154l55.905514 0l0 37.385834l-55.905514 0z" fill-rule="evenodd"/><path fill="#000000" d="m26.365585 271.17218l-3.125 0l0 5.359375l-1.75 0l0 -13.265625l4.390625 0q2.234375 0 3.4375 1.03125q1.21875 1.015625 1.21875 2.953125q0 1.25 -0.671875 2.171875q-0.671875 0.921875 -1.859375 1.375l3.109375 5.625l0 0.109375l-1.875 0l-2.875 -5.359375zm-3.125 -1.4375l2.6875 0q1.3125 0 2.078125 -0.671875q0.765625 -0.671875 0.765625 -1.8125q0 -1.21875 -0.734375 -1.875q-0.734375 -0.65625 -2.109375 -0.671875l-2.6875 0l0 5.03125zm13.565201 6.984375q-2.0 0 -3.265625 -1.3125q-1.25 -1.328125 -1.25 -3.53125l0 -0.3125q0 -1.46875 0.5625 -2.609375q0.5625 -1.15625 1.5625 -1.796875q1.015625 -0.65625 2.1875 -0.65625q1.921875 0 2.984375 1.265625q1.0625 1.265625 1.0625 3.625l0 0.6875l-6.671875 0q0.03125 1.46875 0.84375 2.375q0.828125 0.890625 2.078125 0.890625q0.890625 0 1.515625 -0.359375q0.625 -0.375 1.078125 -0.96875l1.03125 0.796875q-1.234375 1.90625 -3.71875 1.90625zm-0.203125 -8.84375q-1.015625 0 -1.71875 0.75q-0.6875 0.734375 -0.84375 2.078125l4.9375 0l0 -0.125q-0.078125 -1.28125 -0.703125 -1.984375q-0.609375 -0.71875 -1.671875 -0.71875zm5.5869293 3.640625q0 -2.265625 1.078125 -3.640625q1.078125 -1.375 2.8125 -1.375q1.734375 0 2.75 1.171875l0 -5.140625l1.6875 0l0 14.0l-1.546875 0l-0.09375 -1.0625q-1.0 1.25 -2.8125 1.25q-1.703125 0 -2.796875 -1.40625q-1.078125 -1.40625 -1.078125 -3.65625l0 -0.140625zm1.6875 0.203125q0 1.671875 0.6875 2.625q0.703125 0.9375 1.921875 0.9375q1.609375 0 2.34375 -1.4375l0 -4.53125q-0.765625 -1.390625 -2.328125 -1.390625q-1.234375 0 -1.9375 0.953125q-0.6875 0.953125 -0.6875 2.84375z" fill-rule="nonzero"/><path fill="#000000" fill-opacity="0.0" d="m144.28609 249.61154l55.905518 0l0 37.385834l-55.905518 0z" fill-rule="evenodd"/><path fill="#000000" d="m155.6305 276.53156l0 -13.265625l4.328125 0q2.15625 0 3.25 0.890625q1.09375 0.890625 1.09375 2.640625q0 0.9375 -0.53125 1.65625q-0.53125 0.703125 -1.4375 1.09375q1.0625 0.3125 1.6875 1.15625q0.625 0.84375 0.625 2.0q0 1.78125 -1.15625 2.8125q-1.15625 1.015625 -3.265625 1.015625l-4.59375 0zm1.734375 -6.203125l0 4.765625l2.890625 0q1.21875 0 1.921875 -0.625q0.71875 -0.640625 0.71875 -1.75q0 -2.390625 -2.609375 -2.390625l-2.921875 0zm0 -1.40625l2.65625 0q1.140625 0 1.828125 -0.5625q0.6875 -0.578125 0.6875 -1.5625q0 -1.09375 -0.640625 -1.59375q-0.640625 -0.5 -1.9375 -0.5l-2.59375 0l0 4.21875zm11.442734 7.609375l-1.6875 0l0 -14.0l1.6875 0l0 14.0zm8.77742 -0.96875q-0.984375 1.15625 -2.890625 1.15625q-1.578125 0 -2.40625 -0.921875q-0.8125 -0.921875 -0.828125 -2.703125l0 -6.421875l1.6875 0l0 6.375q0 2.234375 1.828125 2.234375q1.921875 0 2.5625 -1.4375l0 -7.171875l1.6875 0l0 9.859375l-1.609375 0l-0.03125 -0.96875zm8.284622 1.15625q-2.0 0 -3.265625 -1.3125q-1.25 -1.328125 -1.25 -3.53125l0 -0.3125q0 -1.46875 0.5625 -2.609375q0.5625 -1.15625 1.5625 -1.796875q1.015625 -0.65625 2.1875 -0.65625q1.921875 0 2.984375 1.265625q1.0625 1.265625 1.0625 3.625l0 0.6875l-6.671875 0q0.03125 1.46875 0.84375 2.375q0.828125 0.890625 2.078125 0.890625q0.890625 0 1.515625 -0.359375q0.625 -0.375 1.078125 -0.96875l1.03125 0.796875q-1.234375 1.90625 -3.71875 1.90625zm-0.203125 -8.84375q-1.015625 0 -1.71875 0.75q-0.6875 0.734375 -0.84375 2.078125l4.9375 0l0 -0.125q-0.078125 -1.28125 -0.703125 -1.984375q-0.609375 -0.71875 -1.671875 -0.71875z" fill-rule="nonzero"/><path fill="#000000" fill-opacity="0.0" d="m273.7349 249.61154l69.66931 0l0 37.385834l-69.66931 0z" fill-rule="evenodd"/><path fill="#000000" d="m295.3567 274.79718q-0.671875 0.953125 -1.875 1.4375q-1.203125 0.484375 -2.8125 0.484375q-1.625 0 -2.890625 -0.765625q-1.25 -0.765625 -1.9375 -2.15625q-0.6875 -1.40625 -0.703125 -3.265625l0 -1.15625q0 -2.984375 1.390625 -4.640625q1.40625 -1.65625 3.9375 -1.65625q2.078125 0 3.34375 1.0625q1.265625 1.0625 1.546875 3.015625l-1.75 0q-0.484375 -2.625 -3.125 -2.625q-1.765625 0 -2.671875 1.234375q-0.90625 1.234375 -0.90625 3.5625l0 1.09375q0 2.234375 1.015625 3.546875q1.015625 1.3125 2.765625 1.3125q0.984375 0 1.71875 -0.21875q0.734375 -0.21875 1.21875 -0.734375l0 -2.984375l-3.078125 0l0 -1.421875l4.8125 0l0 4.875zm7.4265137 -6.609375q-0.390625 -0.0625 -0.84375 -0.0625q-1.65625 0 -2.25 1.40625l0 7.0l-1.671875 0l0 -9.859375l1.640625 0l0.015625 1.140625q0.828125 -1.3125 2.359375 -1.3125q0.484375 0 0.75 0.125l0 1.5625zm5.625366 8.53125q-2.0 0 -3.265625 -1.3125q-1.25 -1.328125 -1.25 -3.53125l0 -0.3125q0 -1.46875 0.5625 -2.609375q0.5625 -1.15625 1.5625 -1.796875q1.015625 -0.65625 2.1875 -0.65625q1.921875 0 2.984375 1.265625q1.0625 1.265625 1.0625 3.625l0 0.6875l-6.671875 0q0.03125 1.46875 0.84375 2.375q0.828125 0.890625 2.078125 0.890625q0.890625 0 1.515625 -0.359375q0.625 -0.375 1.078125 -0.96875l1.03125 0.796875q-1.234375 1.90625 -3.71875 1.90625zm-0.203125 -8.84375q-1.015625 0 -1.71875 0.75q-0.6875 0.734375 -0.84375 2.078125l4.9375 0l0 -0.125q-0.078125 -1.28125 -0.703125 -1.984375q-0.609375 -0.71875 -1.671875 -0.71875zm10.086945 8.84375q-2.0 0 -3.265625 -1.3125q-1.25 -1.328125 -1.25 -3.53125l0 -0.3125q0 -1.46875 0.5625 -2.609375q0.5625 -1.15625 1.5625 -1.796875q1.015625 -0.65625 2.1875 -0.65625q1.921875 0 2.984375 1.265625q1.0625 1.265625 1.0625 3.625l0 0.6875l-6.671875 0q0.03125 1.46875 0.84375 2.375q0.828125 0.890625 2.078125 0.890625q0.890625 0 1.515625 -0.359375q0.625 -0.375 1.078125 -0.96875l1.03125 0.796875q-1.234375 1.90625 -3.71875 1.90625zm-0.203125 -8.84375q-1.015625 0 -1.71875 0.75q-0.6875 0.734375 -0.84375 2.078125l4.9375 0l0 -0.125q-0.078125 -1.28125 -0.703125 -1.984375q-0.609375 -0.71875 -1.671875 -0.71875zm7.602539 -1.203125l0.046875 1.234375q1.125 -1.40625 2.953125 -1.40625q3.125 0 3.15625 3.515625l0 6.515625l-1.6875 0l0 -6.515625q-0.015625 -1.078125 -0.5 -1.578125q-0.46875 -0.515625 -1.484375 -0.515625q-0.8125 0 -1.4375 0.4375q-0.609375 0.4375 -0.96875 1.15625l0 7.015625l-1.671875 0l0 -9.859375l1.59375 0z" fill-rule="nonzero"/><path fill="#000000" fill-opacity="0.0" d="m64.48294 249.61154l79.18111 0l0 37.385834l-79.18111 0z" fill-rule="evenodd"/><path fill="#000000" d="m85.84218 270.32843q0 1.953125 -0.65625 3.40625q-0.640625 1.453125 -1.84375 2.21875q-1.203125 0.765625 -2.8125 0.765625q-1.5625 0 -2.78125 -0.765625q-1.203125 -0.78125 -1.875 -2.203125q-0.671875 -1.421875 -0.6875 -3.296875l0 -0.96875q0 -1.90625 0.65625 -3.375q0.671875 -1.46875 1.890625 -2.25q1.21875 -0.78125 2.78125 -0.78125q1.59375 0 2.8125 0.78125q1.21875 0.765625 1.859375 2.234375q0.65625 1.453125 0.65625 3.390625l0 0.84375zm-1.734375 -0.859375q0 -2.359375 -0.953125 -3.609375q-0.9375 -1.265625 -2.640625 -1.265625q-1.65625 0 -2.609375 1.265625q-0.953125 1.25 -0.984375 3.5l0 0.96875q0 2.28125 0.953125 3.59375q0.96875 1.3125 2.65625 1.3125q1.6875 0 2.609375 -1.234375q0.9375 -1.234375 0.96875 -3.546875l0 -0.984375zm8.873047 -1.28125q-0.390625 -0.0625 -0.84375 -0.0625q-1.65625 0 -2.25 1.40625l0 7.0l-1.671875 0l0 -9.859375l1.640625 0l0.015625 1.140625q0.828125 -1.3125 2.359375 -1.3125q0.484375 0 0.75 0.125l0 1.5625zm7.6253815 8.34375q-0.140625 -0.296875 -0.234375 -1.03125q-1.171875 1.21875 -2.8125 1.21875q-1.453125 0 -2.390625 -0.828125q-0.921875 -0.828125 -0.921875 -2.09375q0 -1.53125 1.15625 -2.375q1.171875 -0.859375 3.296875 -0.859375l1.640625 0l0 -0.78125q0 -0.890625 -0.53125 -1.40625q-0.515625 -0.53125 -1.546875 -0.53125q-0.90625 0 -1.515625 0.46875q-0.609375 0.453125 -0.609375 1.09375l-1.703125 0q0 -0.734375 0.515625 -1.421875q0.53125 -0.6875 1.421875 -1.078125q0.90625 -0.40625 1.984375 -0.40625q1.703125 0 2.671875 0.859375q0.96875 0.84375 1.0 2.328125l0 4.53125q0 1.359375 0.34375 2.171875l0 0.140625l-1.765625 0zm-2.796875 -1.28125q0.796875 0 1.5 -0.40625q0.71875 -0.421875 1.03125 -1.078125l0 -2.015625l-1.3125 0q-3.109375 0 -3.109375 1.8125q0 0.796875 0.53125 1.25q0.53125 0.4375 1.359375 0.4375zm8.46048 -8.578125l0.046875 1.234375q1.125 -1.40625 2.953125 -1.40625q3.125 0 3.15625 3.515625l0 6.515625l-1.6875 0l0 -6.515625q-0.015625 -1.078125 -0.5 -1.578125q-0.46875 -0.515625 -1.484375 -0.515625q-0.8125 0 -1.4375 0.4375q-0.609375 0.4375 -0.96875 1.15625l0 7.015625l-1.671875 0l0 -9.859375l1.59375 0zm8.293732 4.84375q0 -2.296875 1.0625 -3.65625q1.0625 -1.359375 2.828125 -1.359375q1.796875 0 2.8125 1.265625l0.078125 -1.09375l1.546875 0l0 9.625q0 1.90625 -1.140625 3.0q-1.125 1.109375 -3.046875 1.109375q-1.0625 0 -2.09375 -0.453125q-1.015625 -0.453125 -1.546875 -1.25l0.875 -1.0q1.078125 1.328125 2.65625 1.328125q1.21875 0 1.90625 -0.6875q0.6875 -0.6875 0.6875 -1.953125l0 -0.84375q-1.0 1.171875 -2.75 1.171875q-1.734375 0 -2.8125 -1.390625q-1.0625 -1.40625 -1.0625 -3.8125zm1.6875 0.203125q0 1.65625 0.6875 2.609375q0.6875 0.953125 1.921875 0.953125q1.59375 0 2.328125 -1.453125l0 -4.5q-0.765625 -1.40625 -2.3125 -1.40625q-1.234375 0 -1.9375 0.953125q-0.6875 0.953125 -0.6875 2.84375zm13.263687 5.0q-2.0 0 -3.265625 -1.3125q-1.25 -1.328125 -1.25 -3.53125l0 -0.3125q0 -1.46875 0.5625 -2.609375q0.5625 -1.15625 1.5625 -1.796875q1.015625 -0.65625 2.1875 -0.65625q1.921875 0 2.984375 1.265625q1.0625 1.265625 1.0625 3.625l0 0.6875l-6.671875 0q0.03125 1.46875 0.84375 2.375q0.828125 0.890625 2.078125 0.890625q0.890625 0 1.515625 -0.359375q0.625 -0.375 1.078125 -0.96875l1.03125 0.796875q-1.234375 1.90625 -3.71875 1.90625zm-0.203125 -8.84375q-1.015625 0 -1.71875 0.75q-0.6875 0.734375 -0.84375 2.078125l4.9375 0l0 -0.125q-0.078125 -1.28125 -0.703125 -1.984375q-0.609375 -0.71875 -1.671875 -0.71875z" fill-rule="nonzero"/><path fill="#000000" fill-opacity="0.0" d="m484.4908 249.61154l79.18112 0l0 37.385834l-79.18112 0z" fill-rule="evenodd"/><path fill="#000000" d="m499.18793 276.53156l0 -13.265625l4.328125 0q2.15625 0 3.25 0.890625q1.09375 0.890625 1.09375 2.640625q0 0.9375 -0.53125 1.65625q-0.53125 0.703125 -1.4375 1.09375q1.0625 0.3125 1.6875 1.15625q0.625 0.84375 0.625 2.0q0 1.78125 -1.15625 2.8125q-1.15625 1.015625 -3.265625 1.015625l-4.59375 0zm1.734375 -6.203125l0 4.765625l2.890625 0q1.21875 0 1.921875 -0.625q0.71875 -0.640625 0.71875 -1.75q0 -2.390625 -2.609375 -2.390625l-2.921875 0zm0 -1.40625l2.65625 0q1.140625 0 1.828125 -0.5625q0.6875 -0.578125 0.6875 -1.5625q0 -1.09375 -0.640625 -1.59375q-0.640625 -0.5 -1.9375 -0.5l-2.59375 0l0 4.21875zm14.380249 -0.734375q-0.390625 -0.0625 -0.84375 -0.0625q-1.65625 0 -2.25 1.40625l0 7.0l-1.6719055 0l0 -9.859375l1.6406555 0l0.015625 1.140625q0.828125 -1.3125 2.359375 -1.3125q0.484375 0 0.75 0.125l0 1.5625zm1.0941162 3.328125q0 -1.453125 0.5625 -2.609375q0.578125 -1.15625 1.59375 -1.78125q1.015625 -0.625 2.3125 -0.625q2.015625 0 3.25 1.390625q1.25 1.390625 1.25 3.703125l0 0.125q0 1.4375 -0.546875 2.578125q-0.546875 1.140625 -1.578125 1.78125q-1.015625 0.640625 -2.359375 0.640625q-2.0 0 -3.25 -1.390625q-1.234375 -1.40625 -1.234375 -3.703125l0 -0.109375zm1.6875 0.203125q0 1.640625 0.765625 2.640625q0.765625 0.984375 2.03125 0.984375q1.296875 0 2.046875 -1.0q0.75 -1.015625 0.75 -2.828125q0 -1.625 -0.765625 -2.625q-0.765625 -1.015625 -2.046875 -1.015625q-1.25 0 -2.015625 1.0q-0.765625 0.984375 -0.765625 2.84375zm18.124268 2.484375l1.890625 -7.53125l1.6875 0l-2.859375 9.859375l-1.375 0l-2.390625 -7.46875l-2.328125 7.46875l-1.375 0l-2.859375 -9.859375l1.671875 0l1.953125 7.375l2.28125 -7.375l1.359375 0l2.34375 7.53125zm6.8945312 -7.53125l0.046875 1.234375q1.125 -1.40625 2.953125 -1.40625q3.125 0 3.15625 3.515625l0 6.515625l-1.6875 0l0 -6.515625q-0.015625 -1.078125 -0.5 -1.578125q-0.46875 -0.515625 -1.484375 -0.515625q-0.8125 0 -1.4375 0.4375q-0.609375 0.4375 -0.96875 1.15625l0 7.015625l-1.671875 0l0 -9.859375l1.59375 0z" fill-rule="nonzero"/><path fill="#000000" fill-opacity="0.0" d="m341.90027 249.61154l69.66928 0l0 37.385834l-69.66928 0z" fill-rule="evenodd"/><path fill="#000000" d="m355.52625 276.53156l0 -13.265625l4.328125 0q2.15625 0 3.25 0.890625q1.09375 0.890625 1.09375 2.640625q0 0.9375 -0.53125 1.65625q-0.53125 0.703125 -1.4375 1.09375q1.0625 0.3125 1.6875 1.15625q0.625 0.84375 0.625 2.0q0 1.78125 -1.15625 2.8125q-1.15625 1.015625 -3.265625 1.015625l-4.59375 0zm1.734375 -6.203125l0 4.765625l2.890625 0q1.21875 0 1.921875 -0.625q0.71875 -0.640625 0.71875 -1.75q0 -2.390625 -2.609375 -2.390625l-2.921875 0zm0 -1.40625l2.65625 0q1.140625 0 1.828125 -0.5625q0.6875 -0.578125 0.6875 -1.5625q0 -1.09375 -0.640625 -1.59375q-0.640625 -0.5 -1.9375 -0.5l-2.59375 0l0 4.21875zm11.442749 7.609375l-1.6875 0l0 -14.0l1.6875 0l0 14.0zm8.777435 0q-0.140625 -0.296875 -0.234375 -1.03125q-1.171875 1.21875 -2.8125 1.21875q-1.4531555 0 -2.3906555 -0.828125q-0.921875 -0.828125 -0.921875 -2.09375q0 -1.53125 1.15625 -2.375q1.171875 -0.859375 3.2969055 -0.859375l1.640625 0l0 -0.78125q0 -0.890625 -0.53125 -1.40625q-0.515625 -0.53125 -1.546875 -0.53125q-0.90625 0 -1.5156555 0.46875q-0.609375 0.453125 -0.609375 1.09375l-1.703125 0q0 -0.734375 0.515625 -1.421875q0.53125 -0.6875 1.421875 -1.078125q0.9062805 -0.40625 1.9844055 -0.40625q1.703125 0 2.671875 0.859375q0.96875 0.84375 1.0 2.328125l0 4.53125q0 1.359375 0.34375 2.171875l0 0.140625l-1.765625 0zm-2.796875 -1.28125q0.796875 0 1.5 -0.40625q0.71875 -0.421875 1.03125 -1.078125l0 -2.015625l-1.3125 0q-3.1094055 0 -3.1094055 1.8125q0 0.796875 0.53125 1.25q0.53125 0.4375 1.3594055 0.4375zm10.819855 0.09375q0.890625 0 1.5625 -0.546875q0.6875 -0.546875 0.75 -1.375l1.59375 0q-0.046875 0.84375 -0.578125 1.609375q-0.53125 0.765625 -1.4375 1.234375q-0.890625 0.453125 -1.890625 0.453125q-2.015625 0 -3.203125 -1.34375q-1.1875 -1.34375 -1.1875 -3.6875l0 -0.28125q0 -1.4375 0.515625 -2.546875q0.53125 -1.125 1.515625 -1.734375q1.0 -0.625 2.34375 -0.625q1.65625 0 2.75 1.0q1.109375 0.984375 1.171875 2.5625l-1.59375 0q-0.0625 -0.953125 -0.71875 -1.5625q-0.65625 -0.625 -1.609375 -0.625q-1.28125 0 -2.0 0.921875q-0.703125 0.921875 -0.703125 2.671875l0 0.328125q0 1.703125 0.703125 2.625q0.703125 0.921875 2.015625 0.921875zm8.562256 -3.375l-1.0625 1.09375l0 3.46875l-1.6875 0l0 -14.0l1.6875 0l0 8.46875l0.90625 -1.078125l3.0625 -3.25l2.046875 0l-3.828125 4.125l4.28125 5.734375l-1.984375 0l-3.421875 -4.5625z" fill-rule="nonzero"/><path fill="#000000" fill-opacity="0.0" d="m405.3084 249.61154l79.18109 0l0 37.385834l-79.18109 0z" fill-rule="evenodd"/><path fill="#000000" d="m421.5577 271.34406l0 5.1875l-1.734375 0l0 -13.265625l4.890625 0q2.171875 0 3.40625 1.109375q1.234375 1.109375 1.234375 2.953125q0 1.921875 -1.21875 2.96875q-1.203125 1.046875 -3.453125 1.046875l-3.125 0zm0 -1.4375l3.15625 0q1.390625 0 2.140625 -0.65625q0.75 -0.65625 0.75 -1.90625q0 -1.1875 -0.75 -1.890625q-0.75 -0.71875 -2.046875 -0.75l-3.25 0l0 5.203125zm15.847595 5.65625q-0.984375 1.15625 -2.890625 1.15625q-1.578125 0 -2.40625 -0.921875q-0.8125 -0.921875 -0.828125 -2.703125l0 -6.421875l1.6875 0l0 6.375q0 2.234375 1.828125 2.234375q1.921875 0 2.5625 -1.4375l0 -7.171875l1.6875 0l0 9.859375l-1.609375 0l-0.03125 -0.96875zm8.972107 -7.375q-0.390625 -0.0625 -0.84375 -0.0625q-1.65625 0 -2.25 1.40625l0 7.0l-1.671875 0l0 -9.859375l1.640625 0l0.015625 1.140625q0.828125 -1.3125 2.359375 -1.3125q0.484375 0 0.75 0.125l0 1.5625zm9.859772 3.53125q0 2.25 -1.03125 3.625q-1.015625 1.375 -2.78125 1.375q-1.796875 0 -2.828125 -1.140625l0 4.75l-1.671875 0l0 -13.65625l1.53125 0l0.078125 1.09375q1.03125 -1.265625 2.859375 -1.265625q1.78125 0 2.8125 1.34375q1.03125 1.328125 1.03125 3.71875l0 0.15625zm-1.671875 -0.203125q0 -1.65625 -0.71875 -2.625q-0.703125 -0.96875 -1.953125 -0.96875q-1.53125 0 -2.296875 1.359375l0 4.703125q0.765625 1.359375 2.328125 1.359375q1.203125 0 1.921875 -0.953125q0.71875 -0.96875 0.71875 -2.875zm5.654297 5.015625l-1.6875 0l0 -14.0l1.6875 0l0 14.0zm6.7774353 0.1875q-2.0 0 -3.265625 -1.3125q-1.25 -1.328125 -1.25 -3.53125l0 -0.3125q0 -1.46875 0.5625 -2.609375q0.5625 -1.15625 1.5625 -1.796875q1.015625 -0.65625 2.1875 -0.65625q1.921875 0 2.984375 1.265625q1.0625 1.265625 1.0625 3.625l0 0.6875l-6.671875 0q0.03125 1.46875 0.84375 2.375q0.828125 0.890625 2.078125 0.890625q0.890625 0 1.515625 -0.359375q0.625 -0.375 1.078125 -0.96875l1.03125 0.796875q-1.234375 1.90625 -3.71875 1.90625zm-0.203125 -8.84375q-1.015625 0 -1.71875 0.75q-0.6875 0.734375 -0.84375 2.078125l4.9375 0l0 -0.125q-0.078125 -1.28125 -0.703125 -1.984375q-0.609375 -0.71875 -1.671875 -0.71875z" fill-rule="nonzero"/><path fill="#000000" fill-opacity="0.0" d="m567.78217 251.6273l152.91339 0l0 33.354324l-152.91339 0z" fill-rule="evenodd"/><path fill="#000000" d="m589.5771 278.7348q-1.265625 -0.03125 -2.203125 -0.609375q-0.9375 -0.59375 -1.484375 -1.71875q-0.53125 -1.140625 -0.578125 -2.546875q-0.0625 -1.109375 0.234375 -2.71875q0.3125 -1.625 1.046875 -2.921875q0.734375 -1.3125 1.796875 -2.09375q1.421875 -1.0625 3.265625 -1.03125q1.9375 0.046875 3.046875 1.359375q1.125 1.296875 1.203125 3.53125q0.046875 0.953125 -0.1875 2.4375q-0.234375 1.46875 -0.828125 2.734375q-0.59375 1.265625 -1.515625 2.125q-1.609375 1.5 -3.796875 1.453125zm4.65625 -8.328125q0.046875 -1.796875 -0.640625 -2.78125q-0.671875 -1.0 -2.03125 -1.03125q-1.21875 -0.03125 -2.1875 0.65625q-0.953125 0.6875 -1.5625 2.078125q-0.609375 1.375 -0.78125 3.484375l-0.03125 0.59375q-0.046875 1.78125 0.640625 2.796875q0.6875 1.015625 2.015625 1.046875q1.71875 0.046875 2.84375 -1.234375q1.140625 -1.296875 1.515625 -3.625q0.1875 -1.15625 0.21875 -1.984375zm7.112793 -4.109375l-0.421875 2.390625l1.796875 0l-0.234375 1.3125l-1.78125 0l-1.03125 6.125q-0.03125 0.234375 -0.015625 0.4375q0.078125 0.703125 0.78125 0.703125q0.296875 0 0.796875 -0.078125l-0.125 1.375q-0.59375 0.15625 -1.203125 0.15625q-0.984375 -0.015625 -1.484375 -0.71875q-0.484375 -0.703125 -0.375 -1.90625l1.0 -6.09375l-1.734375 0l0.234375 -1.3125l1.734375 0l0.421875 -2.390625l1.640625 0zm4.721924 3.59375q1.296875 -1.40625 2.984375 -1.375q1.375 0.015625 2.046875 0.953125q0.671875 0.9375 0.5 2.625l-1.078125 6.453125l-1.640625 0l1.078125 -6.484375q0.0625 -0.453125 0.015625 -0.828125q-0.15625 -1.28125 -1.515625 -1.3125q-1.5 -0.03125 -2.59375 1.59375l-1.21875 7.03125l-1.65625 0l2.4375 -14.0l1.640625 0l-1.0 5.34375zm11.244385 8.84375q-1.84375 -0.046875 -2.890625 -1.359375q-1.03125 -1.328125 -0.859375 -3.390625l0.046875 -0.390625q0.15625 -1.453125 0.859375 -2.671875q0.71875 -1.21875 1.75 -1.828125q1.03125 -0.609375 2.21875 -0.578125q1.53125 0.03125 2.390625 1.015625q0.859375 0.96875 0.953125 2.625q0.015625 0.59375 -0.046875 1.1875l-0.09375 0.75l-6.4375 0q-0.171875 1.34375 0.4375 2.28125q0.609375 0.9375 1.8125 0.984375q1.453125 0.03125 2.6875 -1.3125l0.953125 0.796875q-0.625 0.890625 -1.609375 1.40625q-0.96875 0.5 -2.171875 0.484375zm1.046875 -8.84375q-1.015625 -0.03125 -1.78125 0.6875q-0.765625 0.71875 -1.203125 2.140625l4.78125 0l0.046875 -0.140625q0.140625 -1.140625 -0.375 -1.90625q-0.515625 -0.765625 -1.46875 -0.78125zm10.486755 0.296875l-0.765625 -0.078125q-1.59375 0 -2.5 1.4375l-1.203125 7.0l-1.65625 0l1.71875 -9.859375l1.59375 0l-0.25 1.140625q1.046875 -1.375 2.46875 -1.34375q0.296875 0 0.78125 0.140625l-0.1875 1.5625zm13.035645 2.5l-5.390625 0l-1.015625 5.859375l-1.71875 0l2.3125 -13.265625l7.984375 0l-0.265625 1.4375l-6.265625 0l-0.78125 4.546875l5.40625 0l-0.265625 1.421875zm5.9839478 6.046875q-1.84375 -0.046875 -2.890625 -1.359375q-1.03125 -1.328125 -0.859375 -3.390625l0.046875 -0.390625q0.15625 -1.453125 0.859375 -2.671875q0.71875 -1.21875 1.75 -1.828125q1.03125 -0.609375 2.21875 -0.578125q1.53125 0.03125 2.390625 1.015625q0.859375 0.96875 0.953125 2.625q0.015625 0.59375 -0.046875 1.1875l-0.09375 0.75l-6.4375 0q-0.171875 1.34375 0.4375 2.28125q0.609375 0.9375 1.8125 0.984375q1.453125 0.03125 2.6875 -1.3125l0.953125 0.796875q-0.625 0.890625 -1.609375 1.40625q-0.96875 0.5 -2.171875 0.484375zm1.046875 -8.84375q-1.015625 -0.03125 -1.78125 0.6875q-0.765625 0.71875 -1.203125 2.140625l4.78125 0l0.046875 -0.140625q0.140625 -1.140625 -0.375 -1.90625q-0.515625 -0.765625 -1.46875 -0.78125zm10.393066 8.65625q-0.0625 -0.265625 -0.0625 -0.515625l0.03125 -0.515625q-1.359375 1.25 -2.890625 1.21875q-1.296875 -0.03125 -2.109375 -0.828125q-0.8125 -0.8125 -0.75 -2.015625q0.09375 -1.578125 1.375 -2.453125q1.28125 -0.875 3.375 -0.875l1.71875 0.015625l0.109375 -0.796875q0.09375 -0.875 -0.34375 -1.390625q-0.4375 -0.515625 -1.296875 -0.53125q-0.84375 -0.015625 -1.5 0.421875q-0.65625 0.421875 -0.796875 1.140625l-1.65625 0q0.078125 -0.859375 0.671875 -1.53125q0.59375 -0.671875 1.515625 -1.03125q0.9375 -0.375 1.921875 -0.359375q1.546875 0.03125 2.390625 0.9375q0.859375 0.890625 0.734375 2.375l-0.8125 4.890625l-0.046875 0.703125q-0.015625 0.5 0.109375 0.984375l-0.015625 0.15625l-1.671875 0zm-2.59375 -1.28125q0.796875 0.03125 1.5 -0.359375q0.71875 -0.40625 1.21875 -1.109375l0.359375 -2.03125l-1.25 -0.015625q-1.5625 0 -2.390625 0.5q-0.828125 0.484375 -0.9375 1.390625q-0.078125 0.6875 0.328125 1.15625q0.40625 0.453125 1.171875 0.46875zm10.860291 -10.96875l-0.421875 2.390625l1.796875 0l-0.234375 1.3125l-1.78125 0l-1.03125 6.125q-0.03125 0.234375 -0.015625 0.4375q0.078125 0.703125 0.78125 0.703125q0.296875 0 0.796875 -0.078125l-0.125 1.375q-0.59375 0.15625 -1.203125 0.15625q-0.984375 -0.015625 -1.484375 -0.71875q-0.484375 -0.703125 -0.375 -1.90625l1.0 -6.09375l-1.734375 0l0.234375 -1.3125l1.734375 0l0.421875 -2.390625l1.640625 0zm7.909424 11.28125q-1.15625 1.1875 -2.953125 1.15625q-1.40625 -0.046875 -2.09375 -1.015625q-0.671875 -0.96875 -0.5 -2.65625l1.0625 -6.375l1.640625 0l-1.0625 6.390625q-0.046875 0.40625 -0.015625 0.796875q0.046875 0.65625 0.390625 1.03125q0.34375 0.359375 0.96875 0.390625q1.765625 0.0625 2.734375 -1.421875l1.234375 -7.1875l1.640625 0l-1.703125 9.859375l-1.5625 0l0.21875 -0.96875zm9.925354 -7.390625l-0.765625 -0.078125q-1.59375 0 -2.5 1.4375l-1.203125 7.0l-1.65625 0l1.71875 -9.859375l1.59375 0l-0.25 1.140625q1.046875 -1.375 2.46875 -1.34375q0.296875 0 0.78125 0.140625l-0.1875 1.5625zm4.3533325 8.546875q-1.84375 -0.046875 -2.890625 -1.359375q-1.03125 -1.328125 -0.859375 -3.390625l0.046875 -0.390625q0.15625 -1.453125 0.859375 -2.671875q0.71875 -1.21875 1.75 -1.828125q1.03125 -0.609375 2.21875 -0.578125q1.53125 0.03125 2.390625 1.015625q0.859375 0.96875 0.953125 2.625q0.015625 0.59375 -0.046875 1.1875l-0.09375 0.75l-6.4375 0q-0.171875 1.34375 0.4375 2.28125q0.609375 0.9375 1.8125 0.984375q1.453125 0.03125 2.6875 -1.3125l0.953125 0.796875q-0.625 0.890625 -1.609375 1.40625q-0.96875 0.5 -2.171875 0.484375zm1.046875 -8.84375q-1.015625 -0.03125 -1.78125 0.6875q-0.765625 0.71875 -1.203125 2.140625l4.78125 0l0.046875 -0.140625q0.140625 -1.140625 -0.375 -1.90625q-0.515625 -0.765625 -1.46875 -0.78125zm10.47113 5.984375q0.125 -1.015625 -1.125 -1.4375l-1.71875 -0.5q-2.15625 -0.75 -2.09375 -2.484375q0.0625 -1.296875 1.1875 -2.125q1.125 -0.84375 2.65625 -0.8125q1.484375 0.015625 2.421875 0.875q0.9375 0.84375 0.90625 2.203125l-1.640625 0q0.015625 -0.75 -0.46875 -1.203125q-0.484375 -0.46875 -1.28125 -0.484375q-0.859375 -0.015625 -1.484375 0.421875q-0.578125 0.40625 -0.65625 1.0625q-0.125 0.859375 1.046875 1.25l0.828125 0.234375q1.6875 0.4375 2.390625 1.140625q0.71875 0.703125 0.671875 1.734375q-0.0625 0.921875 -0.609375 1.609375q-0.546875 0.671875 -1.453125 1.03125q-0.90625 0.359375 -1.9375 0.34375q-1.578125 -0.03125 -2.59375 -0.921875q-1.015625 -0.890625 -0.984375 -2.3125l1.65625 0.015625q0 0.828125 0.515625 1.328125q0.53125 0.5 1.453125 0.5q0.90625 0.015625 1.5625 -0.375q0.65625 -0.40625 0.75 -1.09375z" fill-rule="nonzero"/><path fill="#000000" fill-opacity="0.0" d="m200.81364 249.61154l79.18111 0l0 37.385834l-79.18111 0z" fill-rule="evenodd"/><path fill="#000000" d="m218.58096 269.92218l3.46875 -6.65625l1.984375 0l-4.578125 8.3125l0 4.953125l-1.75 0l0 -4.953125l-4.5625 -8.3125l2.0 0l3.4375 6.65625zm10.985931 6.796875q-2.0 0 -3.265625 -1.3125q-1.25 -1.328125 -1.25 -3.53125l0 -0.3125q0 -1.46875 0.5625 -2.609375q0.5625 -1.15625 1.5625 -1.796875q1.015625 -0.65625 2.1875 -0.65625q1.921875 0 2.984375 1.265625q1.0625 1.265625 1.0625 3.625l0 0.6875l-6.671875 0q0.03125 1.46875 0.84375 2.375q0.828125 0.890625 2.078125 0.890625q0.890625 0 1.515625 -0.359375q0.625 -0.375 1.078125 -0.96875l1.03125 0.796875q-1.234375 1.90625 -3.71875 1.90625zm-0.203125 -8.84375q-1.015625 0 -1.71875 0.75q-0.6875 0.734375 -0.84375 2.078125l4.9375 0l0 -0.125q-0.078125 -1.28125 -0.703125 -1.984375q-0.609375 -0.71875 -1.671875 -0.71875zm7.8369293 8.65625l-1.6875 0l0 -14.0l1.6875 0l0 14.0zm4.52742 0l-1.6875 0l0 -14.0l1.6875 0l0 14.0zm2.24617 -5.015625q0 -1.453125 0.5625 -2.609375q0.578125 -1.15625 1.59375 -1.78125q1.015625 -0.625 2.3125 -0.625q2.015625 0 3.25 1.390625q1.25 1.390625 1.25 3.703125l0 0.125q0 1.4375 -0.546875 2.578125q-0.546875 1.140625 -1.578125 1.78125q-1.015625 0.640625 -2.359375 0.640625q-2.0 0 -3.25 -1.390625q-1.234375 -1.40625 -1.234375 -3.703125l0 -0.109375zm1.6875 0.203125q0 1.640625 0.765625 2.640625q0.765625 0.984375 2.03125 0.984375q1.296875 0 2.046875 -1.0q0.75 -1.015625 0.75 -2.828125q0 -1.625 -0.765625 -2.625q-0.765625 -1.015625 -2.046875 -1.015625q-1.25 0 -2.015625 1.0q-0.765625 0.984375 -0.765625 2.84375zm18.124252 2.484375l1.890625 -7.53125l1.6875 0l-2.859375 9.859375l-1.375 0l-2.390625 -7.46875l-2.328125 7.46875l-1.375 0l-2.8593597 -9.859375l1.671875 0l1.9531097 7.375l2.28125 -7.375l1.359375 0l2.34375 7.53125z" fill-rule="nonzero"/><path fill="#d9d9d9" d="m704.11206 223.26875l0 0c0 -6.8970337 6.02124 -12.48819 13.448853 -12.48819l0 0c7.4275513 0 13.4487915 5.591156 13.4487915 12.48819l0 0c0 6.8970337 -6.02124 12.48819 -13.4487915 12.48819l0 0c-7.4276123 0 -13.448853 -5.591156 -13.448853 -12.48819z" fill-rule="evenodd"/><path fill="#000000" fill-opacity="0.0" d="m351.92334 32.976368l365.63782 177.79527" fill-rule="evenodd"/><path stroke="#999999" stroke-width="1.0" stroke-linejoin="round" stroke-linecap="butt" d="m351.92334 32.976368l365.63782 177.79527" fill-rule="evenodd"/></g></svg>